<?xml version="1.0" encoding="utf-8"?>
<!-- Generator: Adobe Illustrator 17.0.0, SVG Export Plug-In . SVG Version: 6.00 Build 0)  -->
<!DOCTYPE svg PUBLIC "-//W3C//DTD SVG 1.1//EN" "http://www.w3.org/Graphics/SVG/1.1/DTD/svg11.dtd">
<svg version="1.1" xmlns="http://www.w3.org/2000/svg" xmlns:xlink="http://www.w3.org/1999/xlink" x="0px" y="0px" width="1000px"
	 height="1000px" viewBox="0 0 1000 1000" enable-background="new 0 0 1000 1000" xml:space="preserve">
<g id="Layer_1" display="none">
	<g display="inline">
		<g>
			<g enable-background="new    ">
				<g enable-background="new    ">
					<defs>
						<path id="SVGID_1_" enable-background="new    " d="M870.384,791.835l-22.795-12.4c17.276-2.428,31.37-19.577,31.405-38.229
							l22.795,12.4C901.754,772.258,887.661,789.406,870.384,791.835z"/>
					</defs>
					<clipPath id="SVGID_2_">
						<use xlink:href="#SVGID_1_"  overflow="visible"/>
					</clipPath>
					<g clip-path="url(#SVGID_2_)" enable-background="new    ">
						<path fill="#E81B23" d="M870.384,791.835l-22.795-12.4c0.75-0.105,1.495-0.239,2.232-0.399l22.795,12.4
							C871.879,791.596,871.135,791.729,870.384,791.835"/>
						<path fill="#E41B23" d="M872.617,791.436l-22.795-12.4c1.092-0.237,2.169-0.532,3.228-0.882l22.795,12.4
							C874.786,790.904,873.709,791.199,872.617,791.436"/>
						<path fill="#DF1A22" d="M875.844,790.554l-22.795-12.4c0.777-0.257,1.545-0.544,2.302-0.859l22.795,12.4
							C877.389,790.01,876.622,790.297,875.844,790.554"/>
						<path fill="#DA1A21" d="M878.146,789.695l-22.795-12.4c0.634-0.264,1.261-0.548,1.879-0.851l22.795,12.4
							C879.407,789.147,878.781,789.431,878.146,789.695"/>
						<path fill="#D51920" d="M880.026,788.844l-22.795-12.4c0.548-0.269,1.09-0.552,1.625-0.85l22.795,12.4
							C881.115,788.292,880.574,788.575,880.026,788.844"/>
						<path fill="#D11920" d="M881.65,787.994l-22.795-12.4c0.503-0.281,1.001-0.574,1.491-0.879l22.795,12.4
							C882.651,787.42,882.154,787.713,881.65,787.994"/>
						<path fill="#CC181F" d="M883.141,787.114l-22.795-12.4c0.462-0.288,0.918-0.586,1.368-0.895l22.795,12.4
							C884.059,786.528,883.603,786.827,883.141,787.114"/>
						<path fill="#C7181E" d="M884.509,786.219l-22.795-12.4c0.427-0.293,0.848-0.596,1.264-0.907l22.795,12.4
							C885.358,785.624,884.936,785.926,884.509,786.219"/>
						<path fill="#C2171E" d="M885.773,785.312l-22.795-12.4c0.409-0.307,0.812-0.622,1.209-0.946l22.795,12.4
							C886.585,784.69,886.182,785.005,885.773,785.312"/>
						<path fill="#BE161D" d="M886.982,784.366l-22.795-12.4c0.383-0.313,0.761-0.633,1.134-0.962l22.795,12.4
							C887.743,783.733,887.365,784.054,886.982,784.366"/>
						<path fill="#B9161C" d="M888.115,783.405l-22.795-12.4c0.371-0.327,0.736-0.661,1.095-1.003l22.795,12.4
							C888.851,782.743,888.486,783.078,888.115,783.405"/>
						<path fill="#B4151B" d="M889.21,782.402l-22.795-12.4c0.356-0.339,0.706-0.684,1.049-1.036l22.795,12.4
							C889.916,781.718,889.566,782.063,889.21,782.402"/>
						<path fill="#AF151B" d="M890.259,781.365l-22.795-12.4c0.345-0.354,0.684-0.715,1.017-1.082l22.795,12.4
							C890.944,780.651,890.605,781.011,890.259,781.365"/>
						<path fill="#AB141A" d="M891.276,780.283l-22.795-12.4c0.334-0.369,0.662-0.745,0.983-1.127l22.795,12.4
							C891.938,779.539,891.611,779.914,891.276,780.283"/>
						<path fill="#A61419" d="M892.26,779.156l-22.795-12.4c0.328-0.39,0.649-0.787,0.962-1.19l22.795,12.4
							C892.908,778.37,892.587,778.767,892.26,779.156"/>
						<path fill="#A11318" d="M893.222,777.967l-22.795-12.4c0.317-0.407,0.626-0.82,0.928-1.239l22.795,12.4
							C893.848,777.147,893.539,777.56,893.222,777.967"/>
						<path fill="#9C1218" d="M894.15,776.728l-22.795-12.4c0.317-0.44,0.625-0.887,0.925-1.34l22.795,12.4
							C894.774,775.842,894.466,776.288,894.15,776.728"/>
						<path fill="#981217" d="M895.074,775.388l-22.795-12.4c0.308-0.465,0.606-0.937,0.895-1.415l22.795,12.4
							C895.68,774.452,895.382,774.923,895.074,775.388"/>
						<path fill="#931116" d="M895.97,773.974l-22.795-12.4c0.305-0.505,0.6-1.016,0.884-1.535l22.795,12.4
							C896.57,772.957,896.275,773.469,895.97,773.974"/>
						<path fill="#8E1116" d="M896.854,772.439l-22.795-12.4c0.309-0.563,0.604-1.135,0.887-1.713l22.795,12.4
							C897.458,771.304,897.162,771.875,896.854,772.439"/>
						<path fill="#891015" d="M897.741,770.725l-22.795-12.4c0.308-0.63,0.6-1.269,0.875-1.915l22.795,12.4
							C898.34,769.457,898.048,770.095,897.741,770.725"/>
						<path fill="#851014" d="M898.616,768.81l-22.795-12.4c0.316-0.74,0.61-1.491,0.881-2.251l22.795,12.4
							C899.225,767.319,898.931,768.07,898.616,768.81"/>
						<path fill="#800F13" d="M899.497,766.559l-22.795-12.4c0.349-0.975,0.661-1.966,0.933-2.969l22.795,12.4
							C900.158,764.594,899.846,765.584,899.497,766.559"/>
						<path fill="#7B0F13" d="M900.431,763.591l-22.795-12.4c0.877-3.225,1.352-6.58,1.359-9.985l22.795,12.4
							C901.783,757.011,901.308,760.366,900.431,763.591"/>
					</g>
				</g>
				<g>
					<polygon fill="#770E12" points="901.789,753.605 878.994,741.205 879.479,482.803 902.274,495.203 					"/>
				</g>
				<g enable-background="new    ">
					<defs>
						<path id="SVGID_3_" enable-background="new    " d="M902.274,495.203l-22.795-12.4c0.036-18.978-5.238-46.503-12.258-64.016
							l22.795,12.4C897.036,448.7,902.309,476.225,902.274,495.203z"/>
					</defs>
					<clipPath id="SVGID_4_">
						<use xlink:href="#SVGID_3_"  overflow="visible"/>
					</clipPath>
					<g clip-path="url(#SVGID_4_)" enable-background="new    ">
						<path fill="#7B0F13" d="M902.274,495.203l-22.795-12.4c0.036-18.978-5.238-46.503-12.258-64.016l22.795,12.4
							C897.036,448.7,902.309,476.225,902.274,495.203"/>
					</g>
				</g>
				<g enable-background="new    ">
					<defs>
						<path id="SVGID_5_" enable-background="new    " d="M804.264,492.426l-22.795-12.4c-0.391-1.131-0.711-2.357-1.02-3.54
							c-0.357-1.394-0.73-2.819-1.218-4.066l22.795,12.4c0.487,1.247,0.861,2.672,1.218,4.066
							C803.553,490.07,803.873,491.296,804.264,492.426z"/>
					</defs>
					<clipPath id="SVGID_6_">
						<use xlink:href="#SVGID_5_"  overflow="visible"/>
					</clipPath>
					<g clip-path="url(#SVGID_6_)" enable-background="new    ">
						<path fill="#7B0F13" d="M804.264,492.426l-22.795-12.4c-0.391-1.131-0.711-2.357-1.02-3.54
							c-0.357-1.394-0.73-2.819-1.218-4.066l22.795,12.4c0.487,1.247,0.861,2.672,1.218,4.066
							C803.553,490.07,803.873,491.296,804.264,492.426"/>
					</g>
				</g>
				<g>
					<polygon fill="#891015" points="600.32,623.99 577.525,611.59 624.898,502.034 647.693,514.434 					"/>
				</g>
				<g>
					<polygon fill="#E91B23" points="647.693,514.434 624.898,502.034 781.469,480.026 804.264,492.426 					"/>
				</g>
				<g>
					<polygon fill="#770E12" points="890.016,431.187 867.221,418.787 749.569,139.485 772.364,151.885 					"/>
				</g>
				<g enable-background="new    ">
					<defs>
						<path id="SVGID_7_" enable-background="new    " d="M730.689,119.297l22.795,12.4c8.356,4.546,15.361,11.684,18.88,20.187
							l-22.795-12.4C746.05,130.982,739.045,123.843,730.689,119.297z"/>
					</defs>
					<clipPath id="SVGID_8_">
						<use xlink:href="#SVGID_7_"  overflow="visible"/>
					</clipPath>
					<g clip-path="url(#SVGID_8_)" enable-background="new    ">
						<path fill="#7B0F13" d="M772.364,151.885l-22.795-12.4c-3.519-8.503-10.524-15.642-18.88-20.187l22.795,12.4
							C761.84,136.243,768.845,143.382,772.364,151.885"/>
					</g>
				</g>
				<g>
					<polygon fill="#770E12" points="802.027,484.821 779.232,472.421 674.559,221.6 697.354,234 					"/>
				</g>
				<g enable-background="new    ">
					<defs>
						<path id="SVGID_9_" enable-background="new    " d="M731.159,118.433l22.795,12.4c-7.838-4.264-16.843-6.29-25.317-5.099
							l-22.795-12.4C714.315,112.143,723.321,114.169,731.159,118.433z"/>
					</defs>
					<clipPath id="SVGID_10_">
						<use xlink:href="#SVGID_9_"  overflow="visible"/>
					</clipPath>
					<g clip-path="url(#SVGID_10_)" enable-background="new    ">
						<path fill="#E81B23" d="M728.637,125.734l-22.795-12.4c3.309-0.465,6.699-0.44,10.069,0.018l22.795,12.4
							C735.336,125.294,731.946,125.269,728.637,125.734"/>
						<path fill="#E41B23" d="M738.706,125.752l-22.795-12.4c1.621,0.22,3.236,0.54,4.836,0.954l22.795,12.4
							C741.942,126.292,740.326,125.972,738.706,125.752"/>
						<path fill="#DF1A22" d="M743.542,126.706l-22.795-12.4c1.248,0.323,2.486,0.702,3.71,1.135l22.795,12.4
							C746.029,127.408,744.79,127.028,743.542,126.706"/>
						<path fill="#DA1A21" d="M747.252,127.841l-22.795-12.4c1.052,0.373,2.093,0.785,3.12,1.235l22.795,12.4
							C749.345,128.626,748.304,128.214,747.252,127.841"/>
						<path fill="#D51920" d="M750.372,129.076l-22.795-12.4c0.934,0.41,1.856,0.851,2.764,1.322l22.795,12.4
							C752.228,129.927,751.306,129.486,750.372,129.076"/>
						<path fill="#D11920" d="M753.136,130.398l-22.795-12.4c0.274,0.142,0.547,0.287,0.818,0.435l22.795,12.4
							C753.682,130.685,753.41,130.54,753.136,130.398"/>
					</g>
				</g>
				<g>
					<polygon fill="#E91B23" points="441.948,646.251 419.153,633.851 577.525,611.59 600.32,623.99 					"/>
				</g>
				<g>
					<polygon fill="#770E12" points="441.391,647.29 418.596,634.89 371.602,538.599 394.397,550.999 					"/>
				</g>
				<g>
					<polygon fill="#E91B23" points="171.105,890.127 148.31,877.727 847.589,779.435 870.384,791.835 					"/>
				</g>
				<g enable-background="new    ">
					<defs>
						<path id="SVGID_11_" enable-background="new    " d="M154.391,887.248l-22.795-12.4c4.836,2.631,10.569,3.743,16.714,2.879
							l22.795,12.4C164.96,890.991,159.226,889.879,154.391,887.248z"/>
					</defs>
					<clipPath id="SVGID_12_">
						<use xlink:href="#SVGID_11_"  overflow="visible"/>
					</clipPath>
					<g clip-path="url(#SVGID_12_)" enable-background="new    ">
						<path fill="#D11920" d="M154.391,887.248l-22.795-12.4c0.149,0.081,0.298,0.16,0.449,0.238l22.795,12.4
							C154.689,887.408,154.539,887.329,154.391,887.248"/>
						<path fill="#D51920" d="M154.839,887.486l-22.795-12.4c0.5,0.259,1.009,0.503,1.527,0.729l22.795,12.4
							C155.848,887.989,155.339,887.746,154.839,887.486"/>
						<path fill="#DA1A21" d="M156.366,888.216l-22.795-12.4c0.583,0.255,1.176,0.489,1.78,0.702l22.795,12.4
							C157.542,888.705,156.949,888.471,156.366,888.216"/>
						<path fill="#DF1A22" d="M158.146,888.918l-22.795-12.4c0.71,0.25,1.434,0.47,2.171,0.659l22.795,12.4
							C159.58,889.388,158.856,889.168,158.146,888.918"/>
						<path fill="#E41B23" d="M160.317,889.577l-22.795-12.4c0.983,0.253,1.99,0.45,3.017,0.59l22.795,12.4
							C162.307,890.027,161.301,889.83,160.317,889.577"/>
						<path fill="#E81B23" d="M163.334,890.167l-22.795-12.4c2.485,0.338,5.088,0.337,7.77-0.04l22.795,12.4
							C168.423,890.504,165.819,890.504,163.334,890.167"/>
					</g>
				</g>
				<g enable-background="new    ">
					<defs>
						<path id="SVGID_13_" enable-background="new    " d="M153.916,888.134l-22.795-12.4c-9.013-4.903-14.996-14.936-14.973-27.302
							l22.795,12.4C138.92,873.198,144.903,883.231,153.916,888.134z"/>
					</defs>
					<clipPath id="SVGID_14_">
						<use xlink:href="#SVGID_13_"  overflow="visible"/>
					</clipPath>
					<g clip-path="url(#SVGID_14_)" enable-background="new    ">
						<path fill="#7B0F13" d="M153.916,888.134l-22.795-12.4c-9.013-4.903-14.996-14.936-14.973-27.302l22.795,12.4
							C138.92,873.198,144.903,883.231,153.916,888.134"/>
					</g>
				</g>
				<g>
					<polygon fill="#E91B23" points="238.382,571.968 215.587,559.568 372.158,537.56 394.953,549.96 					"/>
				</g>
				<g enable-background="new    ">
					<defs>
						<path id="SVGID_15_" enable-background="new    " d="M237.083,573.111l-22.795-12.4c0.733-2.083,1.112-3.625,1.474-5.109
							c0.372-1.515,0.759-3.08,1.264-4.518l22.795,12.4c-0.506,1.438-0.892,3.003-1.264,4.518
							C238.195,569.486,237.815,571.028,237.083,573.111z"/>
					</defs>
					<clipPath id="SVGID_16_">
						<use xlink:href="#SVGID_15_"  overflow="visible"/>
					</clipPath>
					<g clip-path="url(#SVGID_16_)" enable-background="new    ">
						<path fill="#800F13" d="M237.083,573.111l-22.795-12.4c0.389-1.104,0.678-2.057,0.918-2.929l22.795,12.4
							C237.76,571.054,237.471,572.006,237.083,573.111"/>
						<path fill="#7B0F13" d="M238,570.182l-22.795-12.4c0.213-0.773,0.386-1.483,0.557-2.18c0.199-0.811,0.403-1.637,0.626-2.449
							l22.795,12.4c-0.223,0.813-0.427,1.638-0.626,2.449C238.387,568.699,238.213,569.409,238,570.182"/>
						<path fill="#800F13" d="M239.183,565.553l-22.795-12.4c0.194-0.705,0.403-1.401,0.638-2.069l22.795,12.4
							C239.586,564.152,239.377,564.847,239.183,565.553"/>
					</g>
				</g>
				<g>
					<polygon fill="#E91B23" points="345.734,282.464 322.939,270.064 675.146,220.557 697.941,232.957 					"/>
				</g>
				<g>
					<path fill="#EA1C23" d="M804.104,488.507c0.357,1.383,0.73,2.819,1.218,4.062l-157.079,22.748l-47.37,109.555L441.391,647.29
						l-46.994-96.292l-157.314,22.112c0.733-2.083,1.112-3.625,1.474-5.109c0.372-1.515,0.759-3.08,1.264-4.518l105.912-281.02
						l352.207-49.507l104.911,251.379C803.356,485.639,803.737,487.096,804.104,488.507z M647.693,514.434l156.572-22.008
						c-0.391-1.131-0.711-2.357-1.02-3.54c-0.357-1.394-0.731-2.819-1.218-4.066L697.354,234l-351.037,49.342L240.646,563.741
						c-0.482,1.372-0.861,2.903-1.233,4.399c-0.307,1.27-0.628,2.585-1.03,3.828l156.572-22.008l46.994,96.292L600.32,623.99
						L647.693,514.434"/>
				</g>
				<g>
					<polygon fill="#851014" points="239.821,563.484 217.026,551.083 322.939,270.064 345.734,282.464 					"/>
				</g>
				<g>
					<polygon fill="#770E12" points="138.943,860.832 116.148,848.432 116.632,590.03 139.427,602.43 					"/>
				</g>
				<g enable-background="new    ">
					<defs>
						<path id="SVGID_17_" enable-background="new    " d="M139.427,602.43l-22.795-12.4c0.036-19.092,5.439-48.262,12.57-67.868
							l22.795,12.4C144.866,554.168,139.463,583.338,139.427,602.43z"/>
					</defs>
					<clipPath id="SVGID_18_">
						<use xlink:href="#SVGID_17_"  overflow="visible"/>
					</clipPath>
					<g clip-path="url(#SVGID_18_)" enable-background="new    ">
						<path fill="#7B0F13" d="M139.427,602.43l-22.795-12.4c0.028-15.111,3.419-36.536,8.368-54.534l22.795,12.4
							C142.846,565.894,139.456,587.319,139.427,602.43"/>
						<path fill="#800F13" d="M147.795,547.896L125,535.496c1.244-4.525,2.586-8.833,3.999-12.77l22.795,12.4
							C150.381,539.063,149.039,543.371,147.795,547.896"/>
						<path fill="#851014" d="M151.794,535.126l-22.795-12.4c0.068-0.189,0.136-0.377,0.204-0.564l22.795,12.4
							C151.929,534.749,151.861,534.937,151.794,535.126"/>
					</g>
				</g>
				<g>
					<polygon fill="#E91B23" points="315.423,183.816 292.628,171.416 705.842,113.334 728.637,125.734 					"/>
				</g>
				<g>
					<polygon fill="#861014" points="151.997,534.562 129.202,522.162 247.963,209.611 270.758,222.011 					"/>
				</g>
				<g enable-background="new    ">
					<defs>
						<path id="SVGID_19_" enable-background="new    " d="M270.758,222.011l-22.795-12.4c6.951-18.568,26.989-35.71,44.666-38.195
							l22.795,12.4C297.747,186.301,277.709,203.443,270.758,222.011z"/>
					</defs>
					<clipPath id="SVGID_20_">
						<use xlink:href="#SVGID_19_"  overflow="visible"/>
					</clipPath>
					<g clip-path="url(#SVGID_20_)" enable-background="new    ">
						<path fill="#851014" d="M270.758,222.011l-22.795-12.4c0.251-0.671,0.52-1.34,0.804-2.007l22.795,12.4
							C271.277,220.67,271.009,221.34,270.758,222.011"/>
						<path fill="#891015" d="M271.562,220.003l-22.795-12.4c0.34-0.797,0.704-1.591,1.09-2.38l22.795,12.4
							C272.266,218.413,271.902,219.206,271.562,220.003"/>
						<path fill="#8E1116" d="M272.652,217.624l-22.795-12.4c0.368-0.752,0.755-1.499,1.162-2.241l22.795,12.4
							C273.407,216.125,273.02,216.872,272.652,217.624"/>
						<path fill="#931116" d="M273.814,215.383l-22.795-12.4c0.396-0.722,0.809-1.439,1.24-2.151l22.795,12.4
							C274.623,213.943,274.21,214.661,273.814,215.383"/>
						<path fill="#981217" d="M275.054,213.232l-22.795-12.4c0.424-0.701,0.865-1.396,1.321-2.085l22.795,12.4
							C275.919,211.836,275.478,212.531,275.054,213.232"/>
						<path fill="#9C1218" d="M276.375,211.147l-22.795-12.4c0.455-0.686,0.925-1.367,1.409-2.04l22.795,12.4
							C277.3,209.78,276.829,210.461,276.375,211.147"/>
						<path fill="#A11318" d="M277.784,209.107l-22.795-12.4c0.487-0.676,0.988-1.345,1.503-2.006l22.795,12.4
							C278.772,207.762,278.271,208.431,277.784,209.107"/>
						<path fill="#A61419" d="M279.287,207.101l-22.795-12.4c0.519-0.666,1.052-1.324,1.598-1.973l22.795,12.4
							C280.339,205.777,279.806,206.435,279.287,207.101"/>
						<path fill="#AB141A" d="M280.885,205.128l-22.795-12.4c0.551-0.656,1.116-1.302,1.693-1.939l22.795,12.4
							C282.001,203.825,281.437,204.472,280.885,205.128"/>
						<path fill="#AF151B" d="M282.578,203.189l-22.795-12.4c0.584-0.645,1.181-1.279,1.789-1.903l22.795,12.4
							C283.759,201.909,283.162,202.544,282.578,203.189"/>
						<path fill="#B4151B" d="M284.367,201.286l-22.795-12.4c0.62-0.635,1.251-1.259,1.893-1.87l22.795,12.4
							C285.618,200.027,284.987,200.651,284.367,201.286"/>
						<path fill="#B9161C" d="M286.261,199.416l-22.795-12.4c0.653-0.621,1.317-1.229,1.991-1.824l22.795,12.4
							C287.577,198.186,286.913,198.794,286.261,199.416"/>
						<path fill="#BE161D" d="M288.251,197.592l-22.795-12.4c0.686-0.605,1.383-1.196,2.088-1.771l22.795,12.4
							C289.634,196.396,288.937,196.987,288.251,197.592"/>
						<path fill="#C2171E" d="M290.34,195.821l-22.795-12.4c0.72-0.587,1.45-1.158,2.188-1.712l22.795,12.4
							C291.789,194.662,291.06,195.233,290.34,195.821"/>
						<path fill="#C7181E" d="M292.527,194.108l-22.795-12.4c0.755-0.567,1.519-1.116,2.291-1.646l22.795,12.4
							C294.047,192.992,293.283,193.541,292.527,194.108"/>
						<path fill="#CC181F" d="M294.818,192.463l-22.795-12.4c0.793-0.545,1.595-1.07,2.402-1.573l22.795,12.4
							C296.413,191.393,295.611,191.917,294.818,192.463"/>
						<path fill="#D11920" d="M297.22,190.89l-22.795-12.4c0.837-0.522,1.681-1.02,2.53-1.494l22.795,12.4
							C298.901,189.869,298.057,190.368,297.22,190.89"/>
						<path fill="#D51920" d="M299.75,189.395l-22.795-12.4c0.892-0.498,1.79-0.969,2.691-1.411l22.795,12.4
							C301.539,188.427,300.642,188.897,299.75,189.395"/>
						<path fill="#DA1A21" d="M302.441,187.985l-22.795-12.4c0.97-0.476,1.945-0.918,2.921-1.324l22.795,12.4
							C304.385,187.067,303.411,187.509,302.441,187.985"/>
						<path fill="#DF1A22" d="M305.361,186.661l-22.795-12.4c1.101-0.458,2.203-0.871,3.304-1.235l22.795,12.4
							C307.565,185.789,306.462,186.202,305.361,186.661"/>
						<path fill="#E41B23" d="M308.666,185.425l-22.795-12.4c1.366-0.452,2.73-0.829,4.084-1.127l22.795,12.4
							C311.395,184.596,310.032,184.973,308.666,185.425"/>
						<path fill="#E81B23" d="M312.75,184.298l-22.795-12.4c0.896-0.197,1.788-0.358,2.674-0.482l22.795,12.4
							C314.537,183.941,313.646,184.102,312.75,184.298"/>
					</g>
				</g>
				<g>
					<path fill="#EA1C23" d="M890.831,430.703c7.065,17.617,12.368,45.283,12.333,64.375l-0.484,258.402
						c-0.036,19.188-14.524,36.825-32.297,39.323l-699.28,98.292c-17.769,2.498-32.196-11.074-32.16-30.263l0.484-258.402
						c0.036-19.092,5.439-48.262,12.57-67.868l118.76-312.551c6.951-18.568,26.989-35.71,44.666-38.195l413.213-58.082
						c17.677-2.485,37.668,9.031,44.546,25.655L890.831,430.703z M901.789,753.605l0.484-258.402
						c0.036-18.978-5.238-46.503-12.258-64.016L772.364,151.885c-6.759-16.331-26.374-27.629-43.729-25.19l-413.213,58.082
						c-17.348,2.438-37.023,19.26-43.85,37.5L152.815,534.82c-7.093,19.486-12.462,48.507-12.498,67.484l-0.484,258.402
						c-0.035,18.652,13.992,31.848,31.271,29.42l699.28-98.292C887.661,789.406,901.754,772.258,901.789,753.605"/>
				</g>
			</g>
		</g>
	</g>
</g>
<g id="Layer_2">
	<g>
		<g>
			<g enable-background="new    ">
				<g enable-background="new    ">
					<defs>
						<path id="SVGID_21_" enable-background="new    " d="M314.036,856.419l-22.795-12.4c17.548,9.546,36.026,17.401,55.345,23.515
							c46.929,14.848,96.789,18.714,148.204,11.487c51.407-7.226,101.316-25.116,148.317-53.167
							c45.408-27.096,86.211-62.477,121.271-105.173c35.064-42.696,62.621-90.542,81.912-142.205l22.795,12.4
							c-19.29,51.663-46.848,99.509-81.912,142.205c-35.06,42.695-75.862,78.076-121.271,105.173
							c-47.001,28.051-96.911,45.941-148.317,53.167c-51.415,7.227-101.276,3.361-148.204-11.487
							C350.062,873.82,331.585,865.965,314.036,856.419z"/>
					</defs>
					<clipPath id="SVGID_22_">
						<use xlink:href="#SVGID_21_"  overflow="visible"/>
					</clipPath>
					<g clip-path="url(#SVGID_22_)" enable-background="new    ">
						<path fill="#D11920" d="M314.036,856.419l-22.795-12.4c1.752,0.953,3.512,1.889,5.282,2.808l22.795,12.4
							C317.549,858.308,315.788,857.372,314.036,856.419"/>
						<path fill="#D51920" d="M319.319,859.227l-22.795-12.4c6.012,3.122,12.129,6.048,18.35,8.778l22.795,12.4
							C331.448,865.275,325.331,862.348,319.319,859.227"/>
						<path fill="#DA1A21" d="M337.668,868.005l-22.795-12.4c7.017,3.08,14.165,5.909,21.438,8.485l22.795,12.4
							C351.834,873.914,344.686,871.085,337.668,868.005"/>
						<path fill="#DF1A22" d="M359.107,876.49l-22.795-12.4c3.398,1.203,6.823,2.351,10.274,3.444
							c5.335,1.688,10.708,3.234,16.116,4.638l22.795,12.4c-5.409-1.404-10.781-2.95-16.116-4.638
							C365.929,878.841,362.504,877.693,359.107,876.49"/>
						<path fill="#E41B23" d="M385.497,884.571l-22.795-12.4c12.146,3.153,24.474,5.589,36.959,7.307l22.795,12.4
							C409.971,890.16,397.644,887.724,385.497,884.571"/>
						<path fill="#E81B23" d="M422.456,891.878l-22.795-12.4c30.86,4.246,62.685,4.103,95.129-0.458
							c9.457-1.329,18.864-3.02,28.212-5.068l22.795,12.4c-9.347,2.048-18.754,3.738-28.211,5.068
							C485.142,895.981,453.316,896.124,422.456,891.878"/>
						<path fill="#E41B23" d="M545.797,886.353l-22.795-12.4c13.097-2.87,26.076-6.442,38.915-10.707l22.795,12.4
							C571.873,879.911,558.894,883.483,545.797,886.353"/>
						<path fill="#DF1A22" d="M584.712,875.645l-22.795-12.4c9.267-3.079,18.46-6.519,27.571-10.318l22.795,12.4
							C603.172,869.126,593.979,872.566,584.712,875.645"/>
						<path fill="#DA1A21" d="M612.283,865.328l-22.795-12.4c7.653-3.191,15.247-6.634,22.778-10.328l22.795,12.4
							C627.53,858.694,619.936,862.137,612.283,865.328"/>
						<path fill="#D51920" d="M635.061,855l-22.795-12.4c6.715-3.294,13.379-6.787,19.989-10.478l22.795,12.4
							C648.44,848.213,641.776,851.706,635.061,855"/>
						<path fill="#D11920" d="M655.051,844.521l-22.795-12.4c3.634-2.029,7.252-4.119,10.852-6.267
							c2.471-1.475,4.929-2.974,7.373-4.497l22.795,12.4c-2.444,1.524-4.901,3.023-7.373,4.498
							C662.302,840.403,658.685,842.492,655.051,844.521"/>
						<path fill="#CC181F" d="M673.276,833.756l-22.795-12.4c5.617-3.502,11.162-7.133,16.631-10.891l22.795,12.4
							C684.438,826.623,678.893,830.254,673.276,833.756"/>
						<path fill="#C7181E" d="M689.907,822.865l-22.795-12.4c5.2-3.573,10.333-7.261,15.395-11.062l22.795,12.4
							C700.239,815.604,695.107,819.292,689.907,822.865"/>
						<path fill="#C2171E" d="M705.301,811.803l-22.795-12.4c4.868-3.656,9.672-7.416,14.409-11.279l22.795,12.4
							C714.974,804.387,710.17,808.147,705.301,811.803"/>
						<path fill="#BE161D" d="M719.711,800.524l-22.795-12.4c4.62-3.768,9.177-7.634,13.67-11.597l22.795,12.4
							C728.888,792.89,724.331,796.756,719.711,800.524"/>
						<path fill="#B9161C" d="M733.381,788.927l-22.795-12.4c4.428-3.906,8.792-7.906,13.093-11.998l22.795,12.4
							C742.173,781.021,737.808,785.021,733.381,788.927"/>
						<path fill="#B4151B" d="M746.473,776.928l-22.795-12.4c4.277-4.071,8.491-8.233,12.639-12.486l22.795,12.4
							C754.964,768.695,750.751,772.858,746.473,776.928"/>
						<path fill="#AF151B" d="M759.113,764.443l-22.795-12.4c4.164-4.269,8.262-8.629,12.294-13.079l22.795,12.4
							C767.375,755.813,763.277,760.174,759.113,764.443"/>
						<path fill="#AB141A" d="M771.406,751.364l-22.795-12.4c4.086-4.511,8.103-9.113,12.049-13.807l22.795,12.4
							C779.509,742.25,775.492,746.853,771.406,751.364"/>
						<path fill="#A61419" d="M783.455,737.556l-22.795-12.4c1.246-1.483,2.486-2.974,3.718-4.475
							c2.744-3.341,5.442-6.714,8.093-10.117l22.795,12.4c-2.652,3.404-5.349,6.776-8.093,10.117
							C785.941,734.582,784.702,736.074,783.455,737.556"/>
						<path fill="#A11318" d="M795.267,722.964l-22.795-12.4c3.902-5.009,7.704-10.084,11.404-15.225l22.795,12.4
							C802.971,712.88,799.169,717.955,795.267,722.964"/>
						<path fill="#9C1218" d="M806.671,707.739l-22.795-12.4c3.796-5.274,7.486-10.617,11.068-16.025l22.795,12.4
							C814.157,697.123,810.467,702.465,806.671,707.739"/>
						<path fill="#981217" d="M817.738,691.714l-22.795-12.4c3.72-5.618,7.323-11.306,10.809-17.064l22.795,12.4
							C825.062,680.408,821.458,686.097,817.738,691.714"/>
						<path fill="#931116" d="M828.547,674.65l-22.795-12.4c3.68-6.08,7.229-12.237,10.645-18.467l22.795,12.4
							C835.776,662.414,832.227,668.57,828.547,674.65"/>
						<path fill="#8E1116" d="M839.192,656.183l-22.795-12.4c3.674-6.703,7.195-13.492,10.559-20.362l22.795,12.4
							C846.386,642.691,842.866,649.48,839.192,656.183"/>
						<path fill="#891015" d="M849.75,635.821l-22.795-12.4c3.737-7.632,7.281-15.364,10.629-23.193l22.795,12.4
							C857.031,620.457,853.487,628.189,849.75,635.821"/>
						<path fill="#851014" d="M860.379,612.628l-22.795-12.4c3.067-7.171,5.97-14.423,8.706-21.752l22.795,12.4
							C866.349,598.205,863.446,605.457,860.379,612.628"/>
					</g>
				</g>
				<g enable-background="new    ">
					<defs>
						<path id="SVGID_23_" enable-background="new    " d="M699.885,91.547l22.795,12.4c23.618,12.848,45.551,28.759,65.583,47.609
							c34.922,32.859,62.315,72.981,81.422,119.242c19.78,47.902,29.757,100.333,29.653,155.824
							c-0.104,55.504-10.282,110.759-30.252,164.253l-22.795-12.4c19.97-53.494,30.148-108.749,30.252-164.253
							c0.104-55.49-9.872-107.922-29.653-155.824c-19.107-46.262-46.5-86.384-81.422-119.242
							C745.436,120.306,723.504,104.395,699.885,91.547z"/>
					</defs>
					<clipPath id="SVGID_24_">
						<use xlink:href="#SVGID_23_"  overflow="visible"/>
					</clipPath>
					<g clip-path="url(#SVGID_24_)" enable-background="new    ">
						<path fill="#851014" d="M869.085,590.876l-22.795-12.4c0.735-1.97,1.457-3.942,2.166-5.916l22.795,12.4
							C870.543,586.934,869.821,588.906,869.085,590.876"/>
						<path fill="#800F13" d="M871.251,584.96l-22.795-12.4c4.224-11.766,7.976-23.615,11.253-35.53l22.795,12.4
							C879.227,561.345,875.475,573.193,871.251,584.96"/>
						<path fill="#7B0F13" d="M882.504,549.43l-22.795-12.4c11.106-40.383,16.756-81.527,16.834-122.807
							c0.104-55.49-9.872-107.922-29.653-155.824c-19.107-46.262-46.5-86.384-81.422-119.242
							c-20.032-18.851-41.964-34.762-65.583-47.61l22.795,12.4c23.618,12.848,45.551,28.759,65.583,47.61
							c34.922,32.859,62.315,72.981,81.422,119.242c19.78,47.902,29.757,100.333,29.653,155.824
							C899.26,467.904,893.61,509.047,882.504,549.43"/>
					</g>
				</g>
				<g>
					<path fill="#EA1C23" d="M870.506,270.312c19.825,48.015,29.822,100.568,29.717,156.187
						c-0.104,55.632-10.303,111.023-30.319,164.634c-19.336,51.794-46.955,99.741-82.101,142.533
						c-35.146,42.792-76.047,78.27-121.55,105.429c-47.124,28.112-97.14,46.044-148.67,53.287
						c-51.538,7.244-101.513,3.368-148.549-11.509c-45.433-14.376-86.215-38.374-121.219-71.305s-62.458-73.138-81.606-119.522
						c-19.829-48.01-29.826-100.563-29.722-156.195c0.104-55.619,10.303-111.01,30.323-164.626
						c19.332-51.789,46.951-99.745,82.097-142.537c35.146-42.796,76.039-78.26,121.55-105.42
						c47.116-28.12,97.132-46.052,148.67-53.296c51.53-7.243,101.505-3.366,148.549,11.518
						c45.425,14.377,86.215,38.36,121.219,71.296C823.9,183.717,851.354,223.933,870.506,270.312z M869.085,590.876
						c19.97-53.494,30.148-108.749,30.252-164.253c0.104-55.49-9.872-107.922-29.653-155.824
						c-19.107-46.262-46.5-86.384-81.422-119.242c-34.918-32.859-75.61-56.785-120.94-71.127
						c-46.921-14.858-96.789-18.723-148.196-11.497c-51.415,7.227-101.316,25.116-148.326,53.177
						c-45.4,27.095-86.203,62.476-121.267,105.172c-35.06,42.695-62.625,90.543-81.908,142.2
						c-19.97,53.489-30.148,108.754-30.252,164.244c-0.104,55.504,9.872,107.926,29.653,155.833
						c19.099,46.267,46.5,86.388,81.418,119.247c34.922,32.859,75.614,56.784,120.936,71.128
						c46.929,14.848,96.789,18.714,148.204,11.487c51.407-7.226,101.316-25.116,148.317-53.167
						c45.408-27.096,86.211-62.477,121.271-105.173C822.237,690.385,849.795,642.539,869.085,590.876"/>
				</g>
				<g enable-background="new    ">
					<defs>
						<path id="SVGID_25_" enable-background="new    " d="M313.596,857.317l-22.795-12.4c-23.688-12.886-45.686-28.846-65.78-47.75
							c-35.004-32.931-62.458-73.138-81.606-119.522c-19.829-48.01-29.826-100.563-29.722-156.195
							c0.104-55.619,10.303-111.01,30.323-164.626c19.332-51.789,46.951-99.745,82.097-142.537
							c35.146-42.796,76.039-78.26,121.55-105.42c47.116-28.12,97.132-46.052,148.67-53.296
							c51.53-7.243,101.505-3.366,148.549,11.518c19.362,6.128,37.881,14.001,55.469,23.569l22.795,12.4
							c-17.588-9.568-36.108-17.441-55.469-23.569c-47.044-14.885-97.019-18.761-148.549-11.518
							c-51.538,7.244-101.554,25.176-148.67,53.296c-45.511,27.16-86.404,62.624-121.55,105.42
							c-35.146,42.792-62.765,90.748-82.097,142.537c-20.02,53.616-30.218,109.007-30.323,164.626
							c-0.104,55.632,9.892,108.185,29.722,156.195c19.148,46.384,46.602,86.591,81.606,119.522
							C267.91,828.471,289.907,844.431,313.596,857.317z"/>
					</defs>
					<clipPath id="SVGID_26_">
						<use xlink:href="#SVGID_25_"  overflow="visible"/>
					</clipPath>
					<g clip-path="url(#SVGID_26_)" enable-background="new    ">
						<path fill="#7B0F13" d="M313.596,857.317l-22.795-12.4c-23.688-12.886-45.686-28.846-65.78-47.75
							c-35.004-32.931-62.458-73.138-81.606-119.522c-19.829-48.01-29.826-100.563-29.722-156.195
							c0.077-41.365,5.739-82.604,16.871-123.081l22.795,12.4c-11.132,40.477-16.793,81.716-16.871,123.081
							c-0.104,55.632,9.892,108.185,29.722,156.195c19.148,46.384,46.602,86.591,81.606,119.522
							C267.91,828.471,289.907,844.431,313.596,857.317"/>
						<path fill="#800F13" d="M153.359,410.77l-22.795-12.4c3.284-11.94,7.043-23.813,11.276-35.604l22.795,12.4
							C160.403,386.957,156.643,398.83,153.359,410.77"/>
						<path fill="#851014" d="M164.636,375.166l-22.795-12.4c0.712-1.983,1.437-3.963,2.176-5.941
							c2.747-7.359,5.661-14.641,8.741-21.841l22.795,12.4c-3.079,7.2-5.994,14.482-8.741,21.841
							C166.073,371.203,165.347,373.183,164.636,375.166"/>
						<path fill="#891015" d="M175.552,347.383l-22.795-12.4c3.355-7.844,6.906-15.592,10.649-23.238l22.795,12.4
							C182.458,331.791,178.907,339.539,175.552,347.383"/>
						<path fill="#8E1116" d="M186.202,324.145l-22.795-12.4c3.37-6.883,6.897-13.685,10.579-20.4l22.795,12.4
							C193.099,310.46,189.572,317.261,186.202,324.145"/>
						<path fill="#931116" d="M196.78,303.744l-22.795-12.4c3.422-6.242,6.977-12.41,10.664-18.501l22.795,12.4
							C203.757,291.334,200.202,297.502,196.78,303.744"/>
						<path fill="#981217" d="M207.444,285.243l-22.795-12.4c3.492-5.768,7.102-11.467,10.828-17.095l22.795,12.4
							C214.546,273.776,210.936,279.475,207.444,285.243"/>
						<path fill="#9C1218" d="M218.273,268.148l-22.795-12.4c3.588-5.418,7.284-10.77,11.087-16.054l22.795,12.4
							C225.557,257.378,221.86,262.73,218.273,268.148"/>
						<path fill="#A11318" d="M229.36,252.094l-22.795-12.4c3.707-5.15,7.515-10.234,11.424-15.252l22.795,12.4
							C236.875,241.86,233.067,246.945,229.36,252.094"/>
						<path fill="#A61419" d="M240.784,236.843l-22.795-12.4c2.662-3.416,5.37-6.802,8.124-10.155
							c1.233-1.501,2.472-2.993,3.719-4.475l22.795,12.4c-1.247,1.483-2.486,2.975-3.719,4.475
							C246.154,230.041,243.446,233.427,240.784,236.843"/>
						<path fill="#AB141A" d="M252.627,222.212l-22.795-12.4c3.957-4.707,7.985-9.322,12.082-13.845l22.795,12.4
							C260.612,212.891,256.584,217.506,252.627,222.212"/>
						<path fill="#AF151B" d="M264.709,208.368l-22.795-12.4c4.043-4.463,8.153-8.836,12.33-13.118l22.795,12.4
							C272.862,199.532,268.752,203.905,264.709,208.368"/>
						<path fill="#B4151B" d="M277.038,195.25l-22.795-12.4c4.16-4.265,8.385-8.439,12.674-12.52l22.795,12.4
							C285.424,186.812,281.198,190.986,277.038,195.25"/>
						<path fill="#B9161C" d="M289.713,182.73l-22.795-12.4c4.312-4.103,8.688-8.114,13.127-12.03l22.795,12.4
							C298.4,174.616,294.024,178.627,289.713,182.73"/>
						<path fill="#BE161D" d="M302.84,170.7l-22.795-12.4c4.504-3.973,9.072-7.848,13.704-11.626l22.795,12.4
							C311.912,162.852,307.343,166.728,302.84,170.7"/>
						<path fill="#C2171E" d="M316.543,159.075l-22.795-12.4c4.749-3.872,9.564-7.642,14.443-11.306l22.795,12.4
							C326.107,151.433,321.292,155.202,316.543,159.075"/>
						<path fill="#C7181E" d="M330.987,147.769l-22.795-12.4c5.073-3.81,10.217-7.506,15.429-11.087l22.795,12.4
							C341.204,140.263,336.06,143.959,330.987,147.769"/>
						<path fill="#CC181F" d="M346.415,136.682l-22.795-12.4c5.481-3.766,11.037-7.405,16.666-10.914l22.795,12.4
							C357.452,129.278,351.896,132.916,346.415,136.682"/>
						<path fill="#D11920" d="M363.082,125.768l-22.795-12.4c2.445-1.524,4.904-3.024,7.376-4.5
							c3.612-2.156,7.242-4.252,10.887-6.288l22.795,12.4c-3.646,2.036-7.275,4.132-10.887,6.288
							C367.986,122.743,365.527,124.244,363.082,125.768"/>
						<path fill="#D51920" d="M381.346,114.98l-22.795-12.4c6.627-3.701,13.309-7.203,20.041-10.506l22.795,12.4
							C394.655,107.777,387.973,111.279,381.346,114.98"/>
						<path fill="#DA1A21" d="M401.387,104.475l-22.795-12.4c7.548-3.703,15.161-7.154,22.831-10.352l22.795,12.4
							C416.547,97.321,408.935,100.772,401.387,104.475"/>
						<path fill="#DF1A22" d="M424.218,94.123l-22.795-12.4c9.13-3.807,18.343-7.254,27.63-10.34l22.795,12.4
							C442.561,86.868,433.348,90.316,424.218,94.123"/>
						<path fill="#E41B23" d="M451.848,83.783l-22.795-12.4c12.866-4.275,25.874-7.855,39-10.731l22.795,12.4
							C477.722,75.928,464.714,79.508,451.848,83.783"/>
						<path fill="#E81B23" d="M490.847,73.052l-22.795-12.4c9.37-2.053,18.8-3.747,28.281-5.08
							c32.513-4.57,64.407-4.713,95.336-0.458l22.795,12.4c-30.929-4.255-62.823-4.112-95.336,0.458
							C509.647,69.305,500.217,70.999,490.847,73.052"/>
						<path fill="#E41B23" d="M614.464,67.514l-22.795-12.4c12.516,1.722,24.873,4.164,37.05,7.325l22.795,12.4
							C639.338,71.678,626.98,69.236,614.464,67.514"/>
						<path fill="#DF1A22" d="M651.515,74.839l-22.795-12.4c5.424,1.408,10.812,2.958,16.162,4.651
							c3.456,1.094,6.885,2.243,10.288,3.448l22.795,12.4c-3.402-1.205-6.831-2.354-10.288-3.448
							C662.327,77.798,656.939,76.247,651.515,74.839"/>
						<path fill="#DA1A21" d="M677.965,82.939l-22.795-12.4c7.291,2.582,14.456,5.418,21.491,8.506l22.795,12.4
							C692.421,88.357,685.256,85.521,677.965,82.939"/>
						<path fill="#D51920" d="M699.456,91.444l-22.795-12.4c6.236,2.737,12.368,5.671,18.395,8.8l22.795,12.4
							C711.824,97.115,705.691,94.181,699.456,91.444"/>
						<path fill="#D11920" d="M717.851,100.244l-22.795-12.4c1.774,0.921,3.54,1.86,5.296,2.815l22.795,12.4
							C721.391,102.104,719.625,101.166,717.851,100.244"/>
					</g>
				</g>
			</g>
		</g>
	</g>
	<g>
		<g>
			<g enable-background="new    ">
				<g>
					<polygon fill="#770E12" points="577.435,205.714 554.64,193.314 554.678,173.142 577.473,185.542 					"/>
				</g>
				<g enable-background="new    ">
					<defs>
						<path id="SVGID_27_" enable-background="new    " d="M504.906,260.574l-22.795-12.4c7.457,4.056,15.915,5.446,25.26,4.132
							c13.16-1.85,24.44-8.552,33.526-19.934c9.094-11.375,13.715-24.515,13.743-39.058l22.795,12.4
							c-0.027,14.543-4.649,27.683-13.743,39.058c-9.086,11.382-20.366,18.084-33.526,19.934
							C520.821,266.019,512.363,264.63,504.906,260.574z"/>
					</defs>
					<clipPath id="SVGID_28_">
						<use xlink:href="#SVGID_27_"  overflow="visible"/>
					</clipPath>
					<g clip-path="url(#SVGID_28_)" enable-background="new    ">
						<path fill="#D11920" d="M504.906,260.574l-22.795-12.4c0.217,0.118,0.436,0.234,0.655,0.348l22.795,12.4
							C505.342,260.808,505.124,260.692,504.906,260.574"/>
						<path fill="#D51920" d="M505.561,260.922l-22.795-12.4c0.733,0.38,1.475,0.735,2.227,1.065l22.795,12.4
							C507.036,261.657,506.294,261.302,505.561,260.922"/>
						<path fill="#DA1A21" d="M507.788,261.987l-22.795-12.4c0.831,0.365,1.674,0.698,2.528,1l22.795,12.4
							C509.462,262.684,508.619,262.351,507.788,261.987"/>
						<path fill="#DF1A22" d="M510.316,262.987l-22.795-12.4c1.011,0.358,2.038,0.672,3.081,0.943l22.795,12.4
							C512.354,263.659,511.327,263.345,510.316,262.987"/>
						<path fill="#E41B23" d="M513.396,263.93l-22.795-12.4c1.46,0.379,2.95,0.672,4.471,0.88l22.795,12.4
							C516.347,264.602,514.856,264.309,513.396,263.93"/>
						<path fill="#E81B23" d="M517.867,264.809l-22.795-12.4c3.905,0.533,8.009,0.5,12.299-0.104
							c1.296-0.182,2.573-0.411,3.832-0.687l22.795,12.4c-1.259,0.276-2.536,0.505-3.832,0.687
							C525.876,265.309,521.773,265.342,517.867,264.809"/>
						<path fill="#E41B23" d="M533.999,264.018l-22.795-12.4c1.68-0.368,3.327-0.82,4.94-1.355l22.795,12.4
							C537.326,263.198,535.679,263.65,533.999,264.018"/>
						<path fill="#DF1A22" d="M538.939,262.663l-22.795-12.4c1.137-0.377,2.258-0.795,3.361-1.255l22.795,12.4
							C541.196,261.868,540.076,262.286,538.939,262.663"/>
						<path fill="#DA1A21" d="M542.3,261.409l-22.795-12.4c0.913-0.38,1.814-0.788,2.704-1.225l22.795,12.4
							C544.114,260.62,543.213,261.028,542.3,261.409"/>
						<path fill="#D51920" d="M545.003,260.184l-22.795-12.4c0.771-0.378,1.534-0.778,2.288-1.199l22.795,12.4
							C546.538,259.406,545.775,259.805,545.003,260.184"/>
						<path fill="#D11920" d="M547.291,258.985l-22.795-12.4c0.692-0.386,1.377-0.791,2.055-1.213l22.795,12.4
							C548.669,258.194,547.984,258.599,547.291,258.985"/>
						<path fill="#CC181F" d="M549.346,257.772l-22.795-12.4c0.637-0.397,1.266-0.809,1.889-1.237l22.795,12.4
							C550.612,256.963,549.982,257.376,549.346,257.772"/>
						<path fill="#C7181E" d="M551.235,256.535l-22.795-12.4c0.597-0.41,1.187-0.834,1.771-1.272l22.795,12.4
							C552.422,255.701,551.832,256.126,551.235,256.535"/>
						<path fill="#C2171E" d="M553.006,255.263l-22.795-12.4c0.568-0.426,1.13-0.866,1.686-1.32l22.795,12.4
							C554.136,254.397,553.574,254.836,553.006,255.263"/>
						<path fill="#BE161D" d="M554.692,253.943l-22.795-12.4c0.548-0.447,1.091-0.907,1.627-1.381l22.795,12.4
							C555.783,253.036,555.241,253.496,554.692,253.943"/>
						<path fill="#B9161C" d="M556.32,252.563l-22.795-12.4c0.535-0.472,1.065-0.957,1.588-1.456l22.795,12.4
							C557.384,251.605,556.855,252.09,556.32,252.563"/>
						<path fill="#B4151B" d="M557.908,251.107l-22.795-12.4c0.528-0.503,1.051-1.019,1.567-1.548l22.795,12.4
							C558.958,250.088,558.436,250.604,557.908,251.107"/>
						<path fill="#AF151B" d="M559.475,249.559l-22.795-12.4c0.527-0.541,1.048-1.095,1.563-1.663l22.795,12.4
							C560.523,248.464,560.002,249.018,559.475,249.559"/>
						<path fill="#AB141A" d="M561.038,247.895l-22.795-12.4c0.531-0.586,1.055-1.187,1.573-1.803l22.795,12.4
							C562.093,246.708,561.569,247.309,561.038,247.895"/>
						<path fill="#A61419" d="M562.611,246.092l-22.795-12.4c0.364-0.433,0.725-0.873,1.082-1.321
							c0.174-0.218,0.346-0.436,0.517-0.655l22.795,12.4c-0.171,0.219-0.343,0.437-0.517,0.655
							C563.335,245.219,562.975,245.659,562.611,246.092"/>
						<path fill="#A11318" d="M564.21,244.117l-22.795-12.4c0.534-0.685,1.052-1.376,1.554-2.073l22.795,12.4
							C565.262,242.741,564.744,243.432,564.21,244.117"/>
						<path fill="#9C1218" d="M565.764,242.043l-22.795-12.4c0.5-0.695,0.984-1.395,1.452-2.102l22.795,12.4
							C566.748,240.648,566.264,241.349,565.764,242.043"/>
						<path fill="#981217" d="M567.216,239.941l-22.795-12.4c0.479-0.723,0.941-1.453,1.387-2.189l22.795,12.4
							C568.157,238.489,567.695,239.218,567.216,239.941"/>
						<path fill="#931116" d="M568.602,237.753l-22.795-12.4c0.466-0.77,0.914-1.546,1.343-2.33l22.795,12.4
							C569.516,236.207,569.068,236.983,568.602,237.753"/>
						<path fill="#8E1116" d="M569.945,235.423l-22.795-12.4c0.456-0.832,0.891-1.672,1.306-2.519l22.795,12.4
							C570.836,233.752,570.401,234.591,569.945,235.423"/>
						<path fill="#891015" d="M571.251,232.904l-22.795-12.4c0.453-0.926,0.881-1.861,1.285-2.805l22.795,12.4
							C572.132,231.044,571.704,231.979,571.251,232.904"/>
						<path fill="#851014" d="M572.536,230.1l-22.795-12.4c0.469-1.096,0.904-2.204,1.305-3.323l22.795,12.4
							C573.44,227.896,573.004,229.004,572.536,230.1"/>
						<path fill="#800F13" d="M573.841,226.777l-22.795-12.4c0.512-1.427,0.969-2.873,1.372-4.338l22.795,12.4
							C574.811,223.903,574.353,225.35,573.841,226.777"/>
						<path fill="#7B0F13" d="M575.214,222.438l-22.795-12.4c1.468-5.336,2.211-10.919,2.222-16.725l22.795,12.4
							C577.424,211.52,576.681,217.103,575.214,222.438"/>
					</g>
				</g>
				<g enable-background="new    ">
					<defs>
						<path id="SVGID_29_" enable-background="new    " d="M532.854,132.423l22.795,12.4c2.914,1.585,5.659,3.585,8.228,5.997
							c9.049,8.521,13.624,20.205,13.597,34.722l-22.795-12.4c0.027-14.517-4.548-26.201-13.597-34.722
							C538.513,136.008,535.768,134.008,532.854,132.423z"/>
					</defs>
					<clipPath id="SVGID_30_">
						<use xlink:href="#SVGID_29_"  overflow="visible"/>
					</clipPath>
					<g clip-path="url(#SVGID_30_)" enable-background="new    ">
						<path fill="#7B0F13" d="M577.473,185.542l-22.795-12.4c0.027-14.517-4.548-26.201-13.597-34.722
							c-2.569-2.412-5.314-4.411-8.228-5.997l22.795,12.4c2.914,1.585,5.659,3.585,8.228,5.997
							C572.926,159.341,577.5,171.025,577.473,185.542"/>
					</g>
				</g>
				<g enable-background="new    ">
					<defs>
						<path id="SVGID_31_" enable-background="new    " d="M504.428,261.46l-22.795-12.4c-3.111-1.693-6.052-3.841-8.814-6.445
							c-9.512-8.941-14.327-20.98-14.299-35.791l22.795,12.4c-0.028,14.811,4.786,26.85,14.299,35.791
							C498.376,257.618,501.316,259.767,504.428,261.46z"/>
					</defs>
					<clipPath id="SVGID_32_">
						<use xlink:href="#SVGID_31_"  overflow="visible"/>
					</clipPath>
					<g clip-path="url(#SVGID_32_)" enable-background="new    ">
						<path fill="#7B0F13" d="M504.428,261.46l-22.795-12.4c-3.111-1.693-6.052-3.841-8.814-6.445
							c-9.512-8.941-14.327-20.98-14.299-35.791l22.795,12.4c-0.028,14.811,4.786,26.85,14.299,35.791
							C498.376,257.618,501.316,259.767,504.428,261.46"/>
					</g>
				</g>
				<g>
					<polygon fill="#770E12" points="481.315,219.224 458.52,206.824 458.558,186.652 481.353,199.052 					"/>
				</g>
				<g enable-background="new    ">
					<defs>
						<path id="SVGID_33_" enable-background="new    " d="M533.332,131.537l22.795,12.4c-7.51-4.086-16.122-5.468-25.726-4.118
							c-13.409,1.885-25.049,8.733-34.609,20.372c-9.551,11.629-14.412,24.708-14.439,38.862l-22.795-12.4
							c0.027-14.154,4.888-27.233,14.439-38.862c9.559-11.638,21.199-18.487,34.609-20.372
							C517.209,126.069,525.821,127.451,533.332,131.537z"/>
					</defs>
					<clipPath id="SVGID_34_">
						<use xlink:href="#SVGID_33_"  overflow="visible"/>
					</clipPath>
					<g clip-path="url(#SVGID_34_)" enable-background="new    ">
						<path fill="#7B0F13" d="M481.353,199.052l-22.795-12.4c0.01-5.326,0.705-10.5,2.076-15.502l22.795,12.4
							C482.058,188.552,481.363,193.726,481.353,199.052"/>
						<path fill="#800F13" d="M483.429,183.551l-22.795-12.4c0.392-1.429,0.839-2.843,1.341-4.243l22.795,12.4
							C484.268,180.708,483.821,182.122,483.429,183.551"/>
						<path fill="#851014" d="M484.77,179.308l-22.795-12.4c0.395-1.101,0.823-2.192,1.286-3.275l22.795,12.4
							C485.593,177.115,485.164,178.207,484.77,179.308"/>
						<path fill="#891015" d="M486.056,176.033l-22.795-12.4c0.405-0.947,0.835-1.887,1.292-2.82l22.795,12.4
							C486.891,174.145,486.46,175.085,486.056,176.033"/>
						<path fill="#8E1116" d="M487.348,173.212l-22.795-12.4c0.418-0.854,0.858-1.702,1.319-2.544l22.795,12.4
							C488.206,171.51,487.766,172.358,487.348,173.212"/>
						<path fill="#931116" d="M488.667,170.668l-22.795-12.4c0.437-0.797,0.893-1.588,1.368-2.374l22.795,12.4
							C489.56,169.08,489.104,169.871,488.667,170.668"/>
						<path fill="#981217" d="M490.036,168.294l-22.795-12.4c0.46-0.761,0.939-1.516,1.436-2.266l22.795,12.4
							C490.975,166.778,490.496,167.534,490.036,168.294"/>
						<path fill="#9C1218" d="M491.471,166.028l-22.795-12.4c0.489-0.738,0.995-1.471,1.518-2.198l22.795,12.4
							C492.466,164.558,491.96,165.29,491.471,166.028"/>
						<path fill="#A11318" d="M492.99,163.83l-22.795-12.4c0.522-0.725,1.062-1.446,1.619-2.16l22.795,12.4
							C494.051,162.385,493.512,163.105,492.99,163.83"/>
						<path fill="#A61419" d="M494.608,161.67l-22.795-12.4c0.386-0.496,0.781-0.989,1.184-1.479
							c0.175-0.213,0.351-0.424,0.527-0.634l22.795,12.4c-0.176,0.21-0.352,0.421-0.527,0.634
							C495.389,160.681,494.994,161.174,494.608,161.67"/>
						<path fill="#AB141A" d="M496.319,159.556l-22.795-12.4c0.561-0.667,1.129-1.318,1.703-1.953l22.795,12.4
							C497.447,158.238,496.879,158.889,496.319,159.556"/>
						<path fill="#AF151B" d="M498.022,157.604l-22.795-12.4c0.556-0.614,1.119-1.213,1.688-1.797l22.795,12.4
							C499.141,156.39,498.578,156.989,498.022,157.604"/>
						<path fill="#B4151B" d="M499.711,155.807l-22.795-12.4c0.557-0.571,1.12-1.127,1.689-1.669l22.795,12.4
							C500.83,154.68,500.267,155.236,499.711,155.807"/>
						<path fill="#B9161C" d="M501.399,154.138l-22.795-12.4c0.562-0.535,1.131-1.056,1.705-1.563l22.795,12.4
							C502.53,153.082,501.962,153.603,501.399,154.138"/>
						<path fill="#BE161D" d="M503.104,152.575l-22.795-12.4c0.574-0.506,1.153-0.998,1.739-1.475l22.795,12.4
							C504.257,151.578,503.678,152.069,503.104,152.575"/>
						<path fill="#C2171E" d="M504.843,151.1l-22.795-12.4c0.592-0.483,1.19-0.951,1.794-1.404l22.795,12.4
							C506.032,150.149,505.435,150.617,504.843,151.1"/>
						<path fill="#C7181E" d="M506.636,149.696l-22.795-12.4c0.621-0.466,1.247-0.916,1.88-1.351l22.795,12.4
							C507.884,148.78,507.257,149.23,506.636,149.696"/>
						<path fill="#CC181F" d="M508.517,148.345l-22.795-12.4c0.66-0.453,1.327-0.89,2-1.31l22.795,12.4
							C509.843,147.455,509.177,147.891,508.517,148.345"/>
						<path fill="#D11920" d="M510.517,147.035l-22.795-12.4c0.715-0.445,1.437-0.872,2.167-1.279l22.795,12.4
							C511.954,146.163,511.232,146.59,510.517,147.035"/>
						<path fill="#D51920" d="M512.684,145.756l-22.795-12.4c0.791-0.442,1.591-0.861,2.4-1.258l22.795,12.4
							C514.275,144.895,513.475,145.314,512.684,145.756"/>
						<path fill="#DA1A21" d="M515.084,144.498l-22.795-12.4c0.928-0.455,1.868-0.881,2.819-1.277l22.795,12.4
							C516.952,143.617,516.012,144.043,515.084,144.498"/>
						<path fill="#DF1A22" d="M517.903,143.221l-22.795-12.4c1.147-0.477,2.31-0.912,3.489-1.303l22.795,12.4
							C520.212,142.31,519.049,142.744,517.903,143.221"/>
						<path fill="#E41B23" d="M521.392,141.919l-22.795-12.4c1.664-0.552,3.361-1.018,5.089-1.397l22.795,12.4
							C524.753,140.901,523.056,141.367,521.392,141.919"/>
						<path fill="#E81B23" d="M526.481,140.522l-22.795-12.4c1.289-0.283,2.596-0.517,3.92-0.703
							c4.462-0.627,8.711-0.665,12.734-0.115l22.795,12.4c-4.023-0.55-8.271-0.512-12.734,0.115
							C529.077,140.005,527.77,140.239,526.481,140.522"/>
						<path fill="#E41B23" d="M543.134,139.704l-22.795-12.4c1.537,0.21,3.04,0.505,4.511,0.886l22.795,12.4
							C546.174,140.209,544.671,139.914,543.134,139.704"/>
						<path fill="#DF1A22" d="M547.645,140.59l-22.795-12.4c1.056,0.274,2.095,0.591,3.116,0.953l22.795,12.4
							C549.739,141.182,548.701,140.864,547.645,140.59"/>
						<path fill="#DA1A21" d="M550.761,141.544l-22.795-12.4c0.849,0.301,1.686,0.632,2.511,0.994l22.795,12.4
							C552.447,142.176,551.61,141.844,550.761,141.544"/>
						<path fill="#D51920" d="M553.272,142.537l-22.795-12.4c0.748,0.328,1.485,0.681,2.213,1.058l22.795,12.4
							C554.757,143.218,554.02,142.865,553.272,142.537"/>
						<path fill="#D11920" d="M555.485,143.596l-22.795-12.4c0.215,0.112,0.429,0.225,0.642,0.341l22.795,12.4
							C555.914,143.821,555.7,143.707,555.485,143.596"/>
					</g>
				</g>
				<g>
					<path fill="#EA1C23" d="M564.511,150.047c9.217,8.688,13.879,20.593,13.852,35.369l-0.038,20.172
						c-0.028,14.802-4.737,28.18-13.992,39.759c-9.263,11.597-20.759,18.434-34.167,20.318c-13.425,1.887-25.046-1.692-34.55-10.651
						c-9.512-8.941-14.327-20.98-14.299-35.791l0.038-20.172c0.027-14.154,4.888-27.233,14.439-38.862
						c9.559-11.638,21.199-18.487,34.609-20.372C543.801,137.935,555.27,141.371,564.511,150.047z M577.435,205.714l0.038-20.172
						c0.027-14.517-4.548-26.201-13.597-34.722c-9.065-8.511-20.325-11.89-33.478-10.041c-13.16,1.85-24.593,8.574-33.975,19.997
						s-14.155,24.257-14.181,38.151l-0.038,20.172c-0.027,14.552,4.699,26.369,14.044,35.144
						c9.329,8.794,20.742,12.315,33.918,10.463c13.16-1.85,24.44-8.552,33.526-19.934
						C572.787,233.397,577.408,220.257,577.435,205.714"/>
				</g>
			</g>
			<g enable-background="new    ">
				<g enable-background="new    ">
					<defs>
						<path id="SVGID_35_" enable-background="new    " d="M503.872,808.172l-22.795-12.4c7.459,4.057,15.92,5.444,25.269,4.13
							c13.168-1.851,24.448-8.398,33.533-19.46c9.086-11.062,13.707-24.038,13.734-38.564l22.795,12.4
							c-0.027,14.526-4.648,27.502-13.734,38.564c-9.085,11.062-20.365,17.609-33.533,19.46
							C519.791,813.616,511.331,812.229,503.872,808.172z"/>
					</defs>
					<clipPath id="SVGID_36_">
						<use xlink:href="#SVGID_35_"  overflow="visible"/>
					</clipPath>
					<g clip-path="url(#SVGID_36_)" enable-background="new    ">
						<path fill="#D11920" d="M503.872,808.172l-22.795-12.4c0.217,0.118,0.435,0.234,0.654,0.348l22.795,12.4
							C504.307,808.406,504.089,808.29,503.872,808.172"/>
						<path fill="#D51920" d="M504.526,808.519l-22.795-12.4c0.732,0.38,1.474,0.735,2.226,1.064l22.795,12.4
							C506,809.254,505.258,808.9,504.526,808.519"/>
						<path fill="#DA1A21" d="M506.751,809.584l-22.795-12.4c0.831,0.364,1.673,0.697,2.526,1l22.795,12.4
							C508.424,810.281,507.582,809.948,506.751,809.584"/>
						<path fill="#DF1A22" d="M509.278,810.583l-22.795-12.4c1.011,0.358,2.038,0.672,3.081,0.943l22.795,12.4
							C511.316,811.256,510.289,810.941,509.278,810.583"/>
						<path fill="#E41B23" d="M512.359,811.526l-22.795-12.4c1.46,0.379,2.95,0.672,4.47,0.88l22.795,12.4
							C515.309,812.199,513.819,811.905,512.359,811.526"/>
						<path fill="#E81B23" d="M516.829,812.406l-22.795-12.4c3.909,0.533,8.016,0.5,12.311-0.104
							c1.337-0.188,2.654-0.424,3.951-0.709l22.795,12.4c-1.297,0.284-2.614,0.521-3.951,0.709
							C524.846,812.906,520.738,812.939,516.829,812.406"/>
						<path fill="#E41B23" d="M533.091,811.593l-22.795-12.4c1.731-0.379,3.426-0.845,5.086-1.395l22.795,12.4
							C536.517,810.749,534.822,811.214,533.091,811.593"/>
						<path fill="#DF1A22" d="M538.177,810.198l-22.795-12.4c1.164-0.386,2.31-0.814,3.438-1.284l22.795,12.4
							C540.487,809.384,539.341,809.812,538.177,810.198"/>
						<path fill="#DA1A21" d="M541.615,808.914l-22.795-12.4c0.929-0.387,1.845-0.802,2.749-1.245l22.795,12.4
							C543.46,808.113,542.544,808.528,541.615,808.914"/>
						<path fill="#D51920" d="M544.364,807.669l-22.795-12.4c0.79-0.387,1.57-0.796,2.341-1.226l22.795,12.4
							C545.934,806.873,545.154,807.282,544.364,807.669"/>
						<path fill="#D11920" d="M546.705,806.443l-22.795-12.4c0.707-0.394,1.406-0.807,2.097-1.238l22.795,12.4
							C548.111,805.636,547.412,806.049,546.705,806.443"/>
						<path fill="#CC181F" d="M548.802,805.205l-22.795-12.4c0.648-0.404,1.288-0.823,1.921-1.258l22.795,12.4
							C550.09,804.382,549.449,804.802,548.802,805.205"/>
						<path fill="#C7181E" d="M550.723,803.947l-22.795-12.4c0.603-0.415,1.2-0.843,1.79-1.287l22.795,12.4
							C551.923,803.104,551.326,803.533,550.723,803.947"/>
						<path fill="#C2171E" d="M552.513,802.661l-22.795-12.4c0.574-0.431,1.142-0.876,1.704-1.334l22.795,12.4
							C553.656,801.785,553.088,802.229,552.513,802.661"/>
						<path fill="#BE161D" d="M554.218,801.327l-22.795-12.4c0.554-0.452,1.102-0.916,1.643-1.394l22.795,12.4
							C555.319,800.41,554.771,800.875,554.218,801.327"/>
						<path fill="#B9161C" d="M555.861,799.932l-22.795-12.4c0.54-0.477,1.074-0.966,1.602-1.469l22.795,12.4
							C556.935,798.966,556.401,799.456,555.861,799.932"/>
						<path fill="#B4151B" d="M557.463,798.464l-22.795-12.4c0.532-0.507,1.059-1.027,1.579-1.56l22.795,12.4
							C558.522,797.437,557.996,797.957,557.463,798.464"/>
						<path fill="#AF151B" d="M559.042,796.904l-22.795-12.4c0.53-0.543,1.053-1.1,1.57-1.671l22.795,12.4
							C560.095,795.804,559.572,796.361,559.042,796.904"/>
						<path fill="#AB141A" d="M560.612,795.233l-22.795-12.4c0.532-0.587,1.057-1.189,1.575-1.806l22.795,12.4
							C561.669,794.044,561.144,794.646,560.612,795.233"/>
						<path fill="#A61419" d="M562.187,793.428l-22.795-12.4c0.163-0.194,0.325-0.389,0.487-0.586
							c0.357-0.434,0.706-0.871,1.049-1.311l22.795,12.4c-0.343,0.44-0.692,0.877-1.049,1.311
							C562.512,793.039,562.35,793.234,562.187,793.428"/>
						<path fill="#A11318" d="M563.723,791.531l-22.795-12.4c0.497-0.639,0.981-1.283,1.449-1.934l22.795,12.4
							C564.703,790.247,564.22,790.892,563.723,791.531"/>
						<path fill="#9C1218" d="M565.172,789.597l-22.795-12.4c0.474-0.658,0.933-1.323,1.377-1.994l22.795,12.4
							C566.105,788.274,565.646,788.938,565.172,789.597"/>
						<path fill="#981217" d="M566.549,787.603l-22.795-12.4c0.456-0.689,0.896-1.384,1.321-2.085l22.795,12.4
							C567.445,786.219,567.005,786.914,566.549,787.603"/>
						<path fill="#931116" d="M567.87,785.518l-22.795-12.4c0.443-0.733,0.87-1.472,1.279-2.219l22.795,12.4
							C568.739,784.045,568.313,784.785,567.87,785.518"/>
						<path fill="#8E1116" d="M569.148,783.299l-22.795-12.4c0.435-0.794,0.85-1.595,1.247-2.404l22.795,12.4
							C569.999,781.703,569.583,782.505,569.148,783.299"/>
						<path fill="#891015" d="M570.395,780.894l-22.795-12.4c0.437-0.894,0.851-1.797,1.241-2.71l22.795,12.4
							C571.246,779.097,570.832,780,570.395,780.894"/>
						<path fill="#851014" d="M571.636,778.184l-22.795-12.4c0.449-1.051,0.867-2.115,1.253-3.191l22.795,12.4
							C572.503,776.069,572.085,777.133,571.636,778.184"/>
						<path fill="#800F13" d="M572.889,774.993l-22.795-12.4c0.5-1.392,0.946-2.804,1.34-4.236l22.795,12.4
							C573.836,772.189,573.389,773.601,572.889,774.993"/>
						<path fill="#7B0F13" d="M574.229,770.757l-22.795-12.4c1.439-5.236,2.168-10.737,2.178-16.479l22.795,12.4
							C576.397,760.021,575.668,765.521,574.229,770.757"/>
					</g>
				</g>
				<g enable-background="new    ">
					<defs>
						<path id="SVGID_37_" enable-background="new    " d="M503.402,809.056l-22.795-12.4c-3.112-1.693-6.052-3.842-8.814-6.445
							c-9.512-8.932-14.327-20.651-14.301-34.822l22.795,12.4c-0.027,14.172,4.788,25.89,14.301,34.822
							C497.35,805.214,500.291,807.363,503.402,809.056z"/>
					</defs>
					<clipPath id="SVGID_38_">
						<use xlink:href="#SVGID_37_"  overflow="visible"/>
					</clipPath>
					<g clip-path="url(#SVGID_38_)" enable-background="new    ">
						<path fill="#7B0F13" d="M503.402,809.056l-22.795-12.4c-3.112-1.693-6.052-3.842-8.814-6.445
							c-9.512-8.932-14.327-20.651-14.301-34.822l22.795,12.4c-0.027,14.172,4.788,25.89,14.301,34.822
							C497.35,805.214,500.291,807.363,503.402,809.056"/>
					</g>
				</g>
				<g>
					<polygon fill="#770E12" points="576.408,754.278 553.613,741.878 554.315,367.208 577.11,379.608 					"/>
				</g>
				<g enable-background="new    ">
					<defs>
						<path id="SVGID_39_" enable-background="new    " d="M532.596,325.602l22.795,12.4c2.886,1.57,5.596,3.542,8.124,5.915
							c9.049,8.53,13.623,20.534,13.595,35.691l-22.795-12.4c0.028-15.157-4.546-27.16-13.595-35.691
							C538.192,329.144,535.482,327.172,532.596,325.602z"/>
					</defs>
					<clipPath id="SVGID_40_">
						<use xlink:href="#SVGID_39_"  overflow="visible"/>
					</clipPath>
					<g clip-path="url(#SVGID_40_)" enable-background="new    ">
						<path fill="#7B0F13" d="M577.11,379.608l-22.795-12.4c0.028-15.157-4.546-27.16-13.595-35.691
							c-2.528-2.373-5.238-4.346-8.124-5.916l22.795,12.4c2.886,1.57,5.596,3.542,8.124,5.915
							C572.564,352.448,577.138,364.451,577.11,379.608"/>
					</g>
				</g>
				<g enable-background="new    ">
					<defs>
						<path id="SVGID_41_" enable-background="new    " d="M533.077,324.721l22.795,12.4c-7.604-4.137-16.401-5.53-26.274-4.142
							l-22.795-12.4C516.676,319.191,525.472,320.584,533.077,324.721z"/>
					</defs>
					<clipPath id="SVGID_42_">
						<use xlink:href="#SVGID_41_"  overflow="visible"/>
					</clipPath>
					<g clip-path="url(#SVGID_42_)" enable-background="new    ">
						<path fill="#E81B23" d="M529.598,332.978l-22.795-12.4c4.625-0.65,9.014-0.69,13.154-0.123l22.795,12.4
							C538.611,332.289,534.223,332.328,529.598,332.978"/>
						<path fill="#E41B23" d="M542.752,332.855l-22.795-12.4c1.561,0.214,3.087,0.513,4.577,0.899l22.795,12.4
							C545.839,333.369,544.313,333.069,542.752,332.855"/>
						<path fill="#DF1A22" d="M547.329,333.754l-22.795-12.4c1.069,0.277,2.119,0.598,3.151,0.963l22.795,12.4
							C549.448,334.352,548.398,334.031,547.329,333.754"/>
						<path fill="#DA1A21" d="M550.48,334.718l-22.795-12.4c0.858,0.304,1.703,0.638,2.535,1.003l22.795,12.4
							C552.183,335.356,551.338,335.021,550.48,334.718"/>
						<path fill="#D51920" d="M553.015,335.72l-22.795-12.4c0.75,0.329,1.489,0.682,2.218,1.061l22.795,12.4
							C554.504,336.403,553.765,336.049,553.015,335.72"/>
						<path fill="#D11920" d="M555.232,336.781l-22.795-12.4c0.214,0.111,0.427,0.224,0.639,0.34l22.795,12.4
							C555.659,337.005,555.446,336.892,555.232,336.781"/>
					</g>
				</g>
				<g>
					<polygon fill="#770E12" points="480.288,767.789 457.493,755.389 458.195,380.719 480.99,393.119 					"/>
				</g>
				<g enable-background="new    ">
					<defs>
						<path id="SVGID_43_" enable-background="new    " d="M480.99,393.119l-22.795-12.4c0.029-15.434,4.739-28.975,14.001-40.252
							c9.254-11.268,20.902-17.962,34.607-19.888l22.795,12.4c-13.705,1.926-25.353,8.62-34.607,19.888
							C485.728,364.143,481.018,377.685,480.99,393.119z"/>
					</defs>
					<clipPath id="SVGID_44_">
						<use xlink:href="#SVGID_43_"  overflow="visible"/>
					</clipPath>
					<g clip-path="url(#SVGID_44_)" enable-background="new    ">
						<path fill="#7B0F13" d="M480.99,393.119l-22.795-12.4c0.012-6.256,0.792-12.2,2.334-17.81l22.795,12.4
							C481.782,380.918,481.001,386.863,480.99,393.119"/>
						<path fill="#800F13" d="M483.323,375.309l-22.795-12.4c0.411-1.497,0.877-2.969,1.396-4.418l22.795,12.4
							C484.2,372.34,483.734,373.813,483.323,375.309"/>
						<path fill="#851014" d="M484.719,370.892l-22.795-12.4c0.403-1.125,0.839-2.235,1.307-3.33l22.795,12.4
							C485.558,368.657,485.122,369.767,484.719,370.892"/>
						<path fill="#891015" d="M486.027,367.562l-22.795-12.4c0.397-0.929,0.818-1.847,1.262-2.755l22.795,12.4
							C486.845,365.714,486.424,366.633,486.027,367.562"/>
						<path fill="#8E1116" d="M487.289,364.807l-22.795-12.4c0.404-0.825,0.826-1.641,1.268-2.447l22.795,12.4
							C488.115,363.166,487.692,363.982,487.289,364.807"/>
						<path fill="#931116" d="M488.557,362.359l-22.795-12.4c0.413-0.754,0.843-1.5,1.29-2.238l22.795,12.4
							C489.4,360.86,488.97,361.605,488.557,362.359"/>
						<path fill="#981217" d="M489.847,360.122l-22.795-12.4c0.425-0.702,0.865-1.396,1.32-2.084l22.795,12.4
							C490.711,358.725,490.271,359.42,489.847,360.122"/>
						<path fill="#9C1218" d="M491.166,358.038l-22.795-12.4c0.441-0.666,0.896-1.325,1.366-1.978l22.795,12.4
							C492.063,356.713,491.608,357.372,491.166,358.038"/>
						<path fill="#A11318" d="M492.532,356.06l-22.795-12.4c0.463-0.643,0.939-1.279,1.429-1.908l22.795,12.4
							C493.471,354.782,492.995,355.418,492.532,356.06"/>
						<path fill="#A61419" d="M493.962,354.152l-22.795-12.4c0.336-0.432,0.679-0.861,1.029-1.286
							c0.161-0.196,0.323-0.391,0.486-0.585l22.795,12.4c-0.163,0.193-0.325,0.388-0.486,0.585
							C494.641,353.292,494.298,353.721,493.962,354.152"/>
						<path fill="#AB141A" d="M495.476,352.282l-22.795-12.4c0.517-0.615,1.042-1.217,1.573-1.804l22.795,12.4
							C496.518,351.065,495.993,351.667,495.476,352.282"/>
						<path fill="#AF151B" d="M497.05,350.478l-22.795-12.4c0.518-0.572,1.043-1.13,1.574-1.675l22.795,12.4
							C498.092,349.348,497.568,349.906,497.05,350.478"/>
						<path fill="#B4151B" d="M498.624,348.803l-22.795-12.4c0.523-0.536,1.053-1.06,1.589-1.57l22.795,12.4
							C499.677,347.743,499.147,348.267,498.624,348.803"/>
						<path fill="#B9161C" d="M500.213,347.233l-22.795-12.4c0.533-0.507,1.073-1.002,1.619-1.484l22.795,12.4
							C501.286,346.231,500.746,346.725,500.213,347.233"/>
						<path fill="#BE161D" d="M501.832,345.749l-22.795-12.4c0.549-0.484,1.104-0.956,1.666-1.414l22.795,12.4
							C502.936,344.793,502.381,345.265,501.832,345.749"/>
						<path fill="#C2171E" d="M503.498,344.335l-22.795-12.4c0.572-0.466,1.15-0.919,1.735-1.358l22.795,12.4
							C504.648,343.416,504.07,343.869,503.498,344.335"/>
						<path fill="#C7181E" d="M505.233,342.977l-22.795-12.4c0.603-0.453,1.213-0.891,1.829-1.314l22.795,12.4
							C506.446,342.086,505.836,342.525,505.233,342.977"/>
						<path fill="#CC181F" d="M507.063,341.663l-22.795-12.4c0.647-0.445,1.302-0.873,1.964-1.286l22.795,12.4
							C508.365,340.789,507.71,341.218,507.063,341.663"/>
						<path fill="#D11920" d="M509.027,340.376l-22.795-12.4c0.712-0.444,1.432-0.869,2.162-1.276l22.795,12.4
							C510.459,339.507,509.739,339.933,509.027,340.376"/>
						<path fill="#D51920" d="M511.189,339.1l-22.795-12.4c0.798-0.446,1.607-0.869,2.426-1.271l22.795,12.4
							C512.796,338.231,511.987,338.655,511.189,339.1"/>
						<path fill="#DA1A21" d="M513.615,337.83l-22.795-12.4c0.936-0.459,1.886-0.889,2.849-1.29l22.795,12.4
							C515.501,336.941,514.551,337.371,513.615,337.83"/>
						<path fill="#DF1A22" d="M516.464,336.54l-22.795-12.4c1.176-0.49,2.373-0.937,3.588-1.34l22.795,12.4
							C518.836,335.603,517.64,336.05,516.464,336.54"/>
						<path fill="#E41B23" d="M520.052,335.199l-22.795-12.4c1.748-0.58,3.537-1.071,5.365-1.472l22.795,12.4
							C523.589,334.128,521.8,334.619,520.052,335.199"/>
						<path fill="#E81B23" d="M525.418,333.728l-22.795-12.4c1.371-0.3,2.765-0.55,4.18-0.749l22.795,12.4
							C528.182,333.177,526.789,333.427,525.418,333.728"/>
					</g>
				</g>
				<g>
					<path fill="#EA1C23" d="M529.598,332.978c13.689-1.924,25.31,1.499,34.551,10.167c9.217,8.697,13.879,20.921,13.85,36.338
						l-0.702,374.67c-0.028,14.794-4.737,28.007-13.992,39.283c-9.262,11.277-20.758,17.941-34.167,19.826
						c-13.425,1.887-25.046-1.692-34.55-10.651c-9.512-8.932-14.327-20.651-14.301-34.822l0.702-374.67
						c0.029-15.434,4.739-28.975,14.001-40.252C504.245,341.599,515.893,334.905,529.598,332.978z M576.408,754.278l0.702-374.67
						c0.028-15.157-4.546-27.16-13.595-35.691c-9.065-8.511-20.478-11.869-33.919-9.979c-13.465,1.893-24.896,8.461-33.982,19.524
						c-9.086,11.062-13.707,24.358-13.735,39.532l-0.702,374.67c-0.026,13.904,4.701,25.41,14.046,34.184
						c9.329,8.794,20.742,12.307,33.918,10.455c13.168-1.851,24.448-8.398,33.533-19.46
						C571.759,781.78,576.38,768.804,576.408,754.278"/>
				</g>
			</g>
		</g>
	</g>
</g>
</svg>
