<?xml version="1.0" encoding="utf-8"?>
<!-- Generator: Adobe Illustrator 17.0.0, SVG Export Plug-In . SVG Version: 6.00 Build 0)  -->
<!DOCTYPE svg PUBLIC "-//W3C//DTD SVG 1.1//EN" "http://www.w3.org/Graphics/SVG/1.1/DTD/svg11.dtd">
<svg version="1.1" id="Layer_1" xmlns="http://www.w3.org/2000/svg" xmlns:xlink="http://www.w3.org/1999/xlink" x="0px" y="0px"
	 width="1000px" height="1000px" viewBox="0 0 1000 1000" enable-background="new 0 0 1000 1000" xml:space="preserve">
<g>
	<g>
		<g enable-background="new    ">
			<g enable-background="new    ">
				<defs>
					<path id="SVGID_1_" enable-background="new    " d="M646.197,379.64l22.795,12.4c7.875,4.284,13.102,13.048,13.081,23.846
						c-0.031,16.766-12.688,32.176-28.22,34.359l-22.795-12.4c15.532-2.183,28.189-17.593,28.22-34.359
						C659.299,392.688,654.072,383.924,646.197,379.64z"/>
				</defs>
				<clipPath id="SVGID_2_">
					<use xlink:href="#SVGID_1_"  overflow="visible"/>
				</clipPath>
				<g clip-path="url(#SVGID_2_)" enable-background="new    ">
					<path fill="#D42229" d="M653.853,450.245l-22.795-12.4c0.675-0.095,1.344-0.215,2.008-0.359l22.795,12.4
						C655.198,450.031,654.528,450.15,653.853,450.245"/>
					<path fill="#CF2228" d="M655.861,449.887l-22.795-12.4c0.982-0.213,1.95-0.478,2.902-0.793l22.795,12.4
						C657.811,449.408,656.843,449.674,655.861,449.887"/>
					<path fill="#CB2127" d="M658.763,449.093l-22.795-12.4c0.699-0.231,1.389-0.489,2.069-0.772l22.795,12.4
						C660.151,448.604,659.461,448.862,658.763,449.093"/>
					<path fill="#C72027" d="M660.831,448.321l-22.795-12.4c0.57-0.237,1.133-0.492,1.689-0.765l22.795,12.4
						C661.965,447.829,661.401,448.084,660.831,448.321"/>
					<path fill="#C22026" d="M662.52,447.557l-22.795-12.4c0.492-0.241,0.979-0.496,1.459-0.764l22.795,12.4
						C663.5,447.061,663.013,447.315,662.52,447.557"/>
					<path fill="#BE1F25" d="M663.98,446.793l-22.795-12.4c0.452-0.252,0.899-0.515,1.34-0.79l22.795,12.4
						C664.879,446.277,664.432,446.541,663.98,446.793"/>
					<path fill="#BA1E24" d="M665.32,446.003l-22.795-12.4c0.415-0.258,0.825-0.526,1.229-0.804l22.795,12.4
						C666.144,445.477,665.735,445.745,665.32,446.003"/>
					<path fill="#B51D23" d="M666.548,445.199l-22.795-12.4c0.383-0.263,0.762-0.535,1.135-0.815l22.795,12.4
						C667.31,444.664,666.932,444.936,666.548,445.199"/>
					<path fill="#B11D22" d="M667.684,444.384l-22.795-12.4c0.367-0.275,0.729-0.559,1.086-0.849l22.795,12.4
						C668.412,443.825,668.051,444.109,667.684,444.384"/>
					<path fill="#AD1C22" d="M668.769,443.535l-22.795-12.4c0.344-0.281,0.684-0.569,1.018-0.864l22.795,12.4
						C669.453,442.966,669.114,443.254,668.769,443.535"/>
					<path fill="#A81B21" d="M669.787,442.671l-22.795-12.4c0.333-0.294,0.661-0.594,0.983-0.901l22.795,12.4
						C670.448,442.077,670.12,442.377,669.787,442.671"/>
					<path fill="#A41B20" d="M670.771,441.77l-22.795-12.4c0.319-0.304,0.634-0.614,0.942-0.931l22.795,12.4
						C671.404,441.156,671.09,441.466,670.771,441.77"/>
					<path fill="#A01A1F" d="M671.713,440.839l-22.795-12.4c0.31-0.318,0.615-0.642,0.913-0.972l22.795,12.4
						C672.328,440.197,672.023,440.521,671.713,440.839"/>
					<path fill="#9C191E" d="M672.626,439.867l-22.795-12.4c0.3-0.331,0.595-0.669,0.883-1.012l22.795,12.4
						C673.221,439.198,672.927,439.536,672.626,439.867"/>
					<path fill="#97191D" d="M673.509,438.855l-22.795-12.4c0.294-0.35,0.583-0.706,0.864-1.068l22.795,12.4
						C674.092,438.149,673.804,438.505,673.509,438.855"/>
					<path fill="#93181D" d="M674.374,437.787l-22.795-12.4c0.284-0.365,0.562-0.736,0.833-1.113l22.795,12.4
						C674.936,437.051,674.658,437.422,674.374,437.787"/>
					<path fill="#8F171C" d="M675.207,436.674l-22.795-12.4c0.284-0.395,0.561-0.796,0.831-1.203l22.795,12.4
						C675.768,435.878,675.492,436.279,675.207,436.674"/>
					<path fill="#8A161B" d="M676.038,435.471l-22.795-12.4c0.276-0.418,0.544-0.841,0.804-1.271l22.795,12.4
						C676.582,434.629,676.314,435.053,676.038,435.471"/>
					<path fill="#86161A" d="M676.842,434.2l-22.795-12.4c0.274-0.454,0.539-0.914,0.794-1.38l22.795,12.4
						C677.381,433.286,677.116,433.746,676.842,434.2"/>
					<path fill="#821519" d="M677.636,432.82l-22.795-12.4c0.277-0.506,0.543-1.02,0.797-1.539l22.795,12.4
						C678.18,431.801,677.914,432.314,677.636,432.82"/>
					<path fill="#7D1418" d="M678.433,431.281l-22.795-12.4c0.276-0.566,0.539-1.14,0.786-1.721l22.795,12.4
						C678.972,430.141,678.71,430.715,678.433,431.281"/>
					<path fill="#791418" d="M679.22,429.56l-22.795-12.4c0.284-0.665,0.548-1.34,0.792-2.023l22.795,12.4
						C679.768,428.22,679.503,428.895,679.22,429.56"/>
					<path fill="#751317" d="M680.012,427.537l-22.795-12.4c0.314-0.877,0.594-1.767,0.839-2.669l22.795,12.4
						C680.606,425.77,680.326,426.66,680.012,427.537"/>
					<path fill="#701216" d="M680.851,424.868l-22.795-12.4c0.789-2.9,1.216-5.918,1.222-8.982
						c0.02-10.798-5.206-19.562-13.081-23.846l22.795,12.4c7.875,4.284,13.102,13.048,13.081,23.846
						C682.068,418.95,681.64,421.968,680.851,424.868"/>
				</g>
			</g>
			<g enable-background="new    ">
				<defs>
					<path id="SVGID_3_" enable-background="new    " d="M646.67,378.753l22.795,12.4c-4.484-2.439-9.799-3.47-15.496-2.67
						l-22.795-12.4C636.87,375.283,642.186,376.314,646.67,378.753z"/>
				</defs>
				<clipPath id="SVGID_4_">
					<use xlink:href="#SVGID_3_"  overflow="visible"/>
				</clipPath>
				<g clip-path="url(#SVGID_4_)" enable-background="new    ">
					<path fill="#D42229" d="M653.969,388.484l-22.795-12.4c2.486-0.349,4.9-0.35,7.203-0.037l22.795,12.4
						C658.869,388.134,656.455,388.134,653.969,388.484"/>
					<path fill="#CF2228" d="M661.172,388.447l-22.795-12.4c0.952,0.129,1.885,0.312,2.797,0.547l22.795,12.4
						C663.058,388.759,662.124,388.576,661.172,388.447"/>
					<path fill="#CB2127" d="M663.969,388.993l-22.795-12.4c0.683,0.175,1.355,0.38,2.013,0.611l22.795,12.4
						C665.324,389.373,664.653,389.169,663.969,388.993"/>
					<path fill="#C72027" d="M665.982,389.605l-22.795-12.4c0.56,0.197,1.11,0.414,1.65,0.651l22.795,12.4
						C667.093,390.019,666.542,389.802,665.982,389.605"/>
					<path fill="#C22026" d="M667.633,390.256l-22.795-12.4c0.48,0.21,0.952,0.436,1.416,0.676l22.795,12.4
						C668.585,390.692,668.113,390.466,667.633,390.256"/>
					<path fill="#BE1F25" d="M669.049,390.932l-22.795-12.4c0.139,0.072,0.278,0.146,0.416,0.221l22.795,12.4
						C669.327,391.078,669.188,391.005,669.049,390.932"/>
				</g>
			</g>
			<g enable-background="new    ">
				<defs>
					<path id="SVGID_5_" enable-background="new    " d="M393.194,596.99l-22.795-12.4c42.031-46.681,79.995-78.883,119.475-101.355
						c40.652-23.141,85.506-37.563,141.184-45.389l22.795,12.4c-55.678,7.826-100.532,22.249-141.184,45.389
						C473.189,518.107,435.225,550.309,393.194,596.99z"/>
				</defs>
				<clipPath id="SVGID_6_">
					<use xlink:href="#SVGID_5_"  overflow="visible"/>
				</clipPath>
				<g clip-path="url(#SVGID_6_)" enable-background="new    ">
					<path fill="#9C191E" d="M393.194,596.99l-22.795-12.4c0.584-0.648,1.167-1.294,1.749-1.936l22.795,12.4
						C394.36,595.696,393.777,596.341,393.194,596.99"/>
					<path fill="#A01A1F" d="M394.942,595.053l-22.795-12.4c6.649-7.34,13.197-14.318,19.667-20.952l22.795,12.4
						C408.139,580.735,401.591,587.713,394.942,595.053"/>
					<path fill="#A41B20" d="M414.609,574.102l-22.795-12.4c5.695-5.839,11.33-11.412,16.919-16.732l22.795,12.4
						C425.939,562.689,420.305,568.262,414.609,574.102"/>
					<path fill="#A81B21" d="M431.528,557.369l-22.795-12.4c5.087-4.842,10.137-9.474,15.16-13.906l22.795,12.4
						C441.665,547.895,436.616,552.527,431.528,557.369"/>
					<path fill="#AD1C22" d="M446.689,543.463l-22.795-12.4c4.708-4.154,9.394-8.132,14.065-11.942l22.795,12.4
						C456.082,535.332,451.397,539.31,446.689,543.463"/>
					<path fill="#B11D22" d="M460.754,531.521l-22.795-12.4c4.492-3.663,8.971-7.172,13.446-10.532l22.795,12.4
						C469.725,524.35,465.246,527.858,460.754,531.521"/>
					<path fill="#B51D23" d="M474.201,520.989l-22.795-12.4c4.417-3.317,8.83-6.489,13.247-9.524l22.795,12.4
						C483.03,514.5,478.617,517.673,474.201,520.989"/>
					<path fill="#BA1E24" d="M487.447,511.465l-22.795-12.4c4.474-3.074,8.952-6.008,13.443-8.808l22.795,12.4
						C496.399,505.457,491.921,508.391,487.447,511.465"/>
					<path fill="#BE1F25" d="M500.89,502.657l-22.795-12.4c3.915-2.441,7.84-4.78,11.779-7.023c0.807-0.459,1.615-0.915,2.426-1.368
						l22.795,12.4c-0.81,0.452-1.619,0.908-2.426,1.368C508.73,497.877,504.805,500.216,500.89,502.657"/>
					<path fill="#C22026" d="M515.095,494.267l-22.795-12.4c5.198-2.903,10.467-5.665,15.819-8.29l22.795,12.4
						C525.562,488.602,520.293,491.364,515.095,494.267"/>
					<path fill="#C72027" d="M530.914,485.976l-22.795-12.4c6.128-3.006,12.367-5.834,18.736-8.49l22.795,12.4
						C543.28,480.142,537.042,482.97,530.914,485.976"/>
					<path fill="#CB2127" d="M549.649,477.487l-22.795-12.4c7.981-3.328,16.166-6.385,24.597-9.185l22.795,12.4
						C565.816,471.102,557.63,474.159,549.649,477.487"/>
					<path fill="#CF2228" d="M574.247,468.301l-22.795-12.4c13.029-4.327,26.643-8.04,40.993-11.186l22.795,12.4
						C600.89,460.262,587.275,463.974,574.247,468.301"/>
					<path fill="#D42229" d="M615.24,457.116l-22.795-12.4c12.3-2.697,25.14-4.977,38.614-6.871l22.795,12.4
						C640.379,452.139,627.539,454.419,615.24,457.116"/>
				</g>
			</g>
			<g enable-background="new    ">
				<defs>
					<path id="SVGID_7_" enable-background="new    " d="M295.199,681.191l-22.795-12.4c4.347,2.364,9.5,3.364,15.024,2.587
						c7.33-1.03,13.629-4.786,19.825-11.826c12.34-13.663,24.172-28.085,35.609-42.036c8.911-10.857,18.132-22.096,27.538-32.926
						l22.795,12.4c-9.406,10.83-18.627,22.069-27.538,32.926c-11.436,13.951-23.269,28.373-35.609,42.036
						c-6.195,7.041-12.495,10.796-19.825,11.826C304.699,684.555,299.545,683.555,295.199,681.191z"/>
				</defs>
				<clipPath id="SVGID_8_">
					<use xlink:href="#SVGID_7_"  overflow="visible"/>
				</clipPath>
				<g clip-path="url(#SVGID_8_)" enable-background="new    ">
					<path fill="#BE1F25" d="M295.199,681.191l-22.795-12.4c0.134,0.073,0.268,0.144,0.403,0.214l22.795,12.4
						C295.467,681.335,295.332,681.264,295.199,681.191"/>
					<path fill="#C22026" d="M295.602,681.405l-22.795-12.4c0.449,0.233,0.907,0.452,1.372,0.656l22.795,12.4
						C296.509,681.857,296.051,681.638,295.602,681.405"/>
					<path fill="#C72027" d="M296.974,682.061l-22.795-12.4c0.524,0.229,1.057,0.44,1.6,0.631l22.795,12.4
						C298.031,682.501,297.498,682.29,296.974,682.061"/>
					<path fill="#CB2127" d="M298.574,682.692l-22.795-12.4c0.638,0.225,1.289,0.423,1.951,0.593l22.795,12.4
						C299.863,683.114,299.212,682.916,298.574,682.692"/>
					<path fill="#CF2228" d="M300.525,683.284l-22.795-12.4c0.884,0.227,1.789,0.404,2.712,0.53l22.795,12.4
						C302.314,683.689,301.409,683.511,300.525,683.284"/>
					<path fill="#D42229" d="M303.237,683.814l-22.795-12.4c2.234,0.304,4.574,0.303,6.985-0.036c0.711-0.1,1.412-0.225,2.104-0.377
						l22.795,12.4c-0.692,0.152-1.393,0.277-2.104,0.377C307.811,684.117,305.471,684.118,303.237,683.814"/>
					<path fill="#CF2228" d="M312.327,683.401l-22.795-12.4c0.922-0.202,1.828-0.45,2.721-0.746l22.795,12.4
						C314.155,682.951,313.249,683.199,312.327,683.401"/>
					<path fill="#CB2127" d="M315.047,682.655l-22.795-12.4c0.634-0.21,1.261-0.444,1.881-0.703l22.795,12.4
						C316.308,682.211,315.681,682.445,315.047,682.655"/>
					<path fill="#C72027" d="M316.929,681.952l-22.795-12.4c0.518-0.216,1.032-0.449,1.542-0.699l22.795,12.4
						C317.961,681.504,317.447,681.737,316.929,681.952"/>
					<path fill="#C22026" d="M318.471,681.254l-22.795-12.4c0.454-0.222,0.904-0.459,1.352-0.709l22.795,12.4
						C319.375,680.795,318.924,681.031,318.471,681.254"/>
					<path fill="#BE1F25" d="M319.823,680.545l-22.795-12.4c0.418-0.233,0.834-0.479,1.248-0.737l22.795,12.4
						C320.657,680.066,320.241,680.312,319.823,680.545"/>
					<path fill="#BA1E24" d="M321.07,679.808l-22.795-12.4c0.398-0.248,0.794-0.507,1.188-0.778l22.795,12.4
						C321.864,679.301,321.468,679.56,321.07,679.808"/>
					<path fill="#B51D23" d="M322.258,679.03l-22.795-12.4c0.387-0.266,0.772-0.543,1.156-0.831l22.795,12.4
						C323.031,678.487,322.645,678.764,322.258,679.03"/>
					<path fill="#B11D22" d="M323.415,678.199l-22.795-12.4c0.384-0.288,0.767-0.588,1.148-0.899l22.795,12.4
						C324.181,677.611,323.799,677.91,323.415,678.199"/>
					<path fill="#AD1C22" d="M324.563,677.3l-22.795-12.4c0.389-0.317,0.776-0.646,1.163-0.987l22.795,12.4
						C325.339,676.654,324.951,676.983,324.563,677.3"/>
					<path fill="#A81B21" d="M325.725,676.313l-22.795-12.4c0.4-0.352,0.798-0.718,1.195-1.096l22.795,12.4
						C326.523,675.595,326.125,675.96,325.725,676.313"/>
					<path fill="#A41B20" d="M326.92,675.217l-22.795-12.4c0.416-0.396,0.832-0.807,1.246-1.232l22.795,12.4
						C327.751,674.41,327.336,674.821,326.92,675.217"/>
					<path fill="#A01A1F" d="M328.166,673.986l-22.795-12.4c0.447-0.458,0.892-0.933,1.337-1.424l22.795,12.4
						C329.058,673.053,328.613,673.528,328.166,673.986"/>
					<path fill="#9C191E" d="M329.503,672.562l-22.795-12.4c0.181-0.2,0.363-0.404,0.544-0.61
						c6.098-6.752,12.072-13.689,17.935-20.663l22.795,12.4c-5.863,6.974-11.837,13.911-17.935,20.663
						C329.866,672.158,329.685,672.361,329.503,672.562"/>
					<path fill="#97191D" d="M347.982,651.289l-22.795-12.4c6.002-7.139,11.889-14.316,17.674-21.374
						c5.843-7.119,11.818-14.401,17.892-21.625l22.795,12.4c-6.074,7.224-12.05,14.507-17.892,21.625
						C359.871,636.973,353.985,644.151,347.982,651.289"/>
					<path fill="#9C191E" d="M383.548,608.291l-22.795-12.4c3.19-3.794,6.407-7.572,9.645-11.301l22.795,12.4
						C389.955,600.719,386.738,604.497,383.548,608.291"/>
				</g>
			</g>
			<g enable-background="new    ">
				<defs>
					<path id="SVGID_9_" enable-background="new    " d="M294.725,682.07l-22.795-12.4c-8.126-4.42-13.52-13.464-13.499-24.608
						c0.015-8.162,2.759-15.547,8.653-23.249c56.613-75.25,107.919-128.045,161.469-166.118
						c60.293-42.878,126.572-68.922,202.621-79.611l22.795,12.4c-76.049,10.69-142.328,36.733-202.621,79.611
						c-53.55,38.073-104.857,90.868-161.469,166.118c-5.894,7.701-8.638,15.087-8.653,23.249
						C281.205,668.605,286.599,677.649,294.725,682.07z"/>
				</defs>
				<clipPath id="SVGID_10_">
					<use xlink:href="#SVGID_9_"  overflow="visible"/>
				</clipPath>
				<g clip-path="url(#SVGID_10_)" enable-background="new    ">
					<path fill="#701216" d="M294.725,682.07l-22.795-12.4c-8.126-4.42-13.52-13.464-13.499-24.608
						c0.006-3.06,0.395-6.012,1.19-8.911l22.795,12.4c-0.795,2.9-1.184,5.851-1.19,8.911
						C281.205,668.605,286.599,677.649,294.725,682.07"/>
					<path fill="#751317" d="M282.416,648.55l-22.795-12.4c0.229-0.836,0.492-1.667,0.789-2.495l22.795,12.4
						C282.908,646.884,282.646,647.715,282.416,648.55"/>
					<path fill="#791418" d="M283.205,646.055l-22.795-12.4c0.239-0.666,0.5-1.331,0.783-1.994l22.795,12.4
						C283.705,644.725,283.444,645.389,283.205,646.055"/>
					<path fill="#7D1418" d="M283.989,644.062l-22.795-12.4c0.255-0.596,0.527-1.191,0.818-1.785l22.795,12.4
						C284.516,642.871,284.243,643.466,283.989,644.062"/>
					<path fill="#821519" d="M284.807,642.277l-22.795-12.4c0.274-0.56,0.564-1.119,0.871-1.678l22.795,12.4
						C285.372,641.158,285.081,641.717,284.807,642.277"/>
					<path fill="#86161A" d="M285.678,640.598l-22.795-12.4c0.301-0.549,0.618-1.098,0.95-1.648l22.795,12.4
						C286.296,639.5,285.979,640.049,285.678,640.598"/>
					<path fill="#8A161B" d="M286.629,638.951l-22.795-12.4c0.334-0.552,0.685-1.105,1.052-1.659l22.795,12.4
						C287.313,637.846,286.963,638.398,286.629,638.951"/>
					<path fill="#8F171C" d="M287.68,637.292l-22.795-12.4c0.376-0.568,0.769-1.136,1.179-1.706l22.795,12.4
						C288.449,636.156,288.056,636.724,287.68,637.292"/>
					<path fill="#93181D" d="M288.859,635.586l-22.795-12.4c0.329-0.457,0.669-0.914,1.02-1.373
						c4.635-6.161,9.234-12.171,13.802-18.035l22.795,12.4c-4.568,5.864-9.167,11.874-13.802,18.035
						C289.528,634.672,289.188,635.129,288.859,635.586"/>
					<path fill="#97191D" d="M303.681,616.178l-22.795-12.4c8.978-11.525,17.834-22.485,26.601-32.912l22.795,12.4
						C321.515,593.693,312.659,604.653,303.681,616.178"/>
					<path fill="#9C191E" d="M330.282,583.266l-22.795-12.4c7.551-8.981,15.035-17.567,22.472-25.778l22.795,12.4
						C345.316,565.699,337.832,574.285,330.282,583.266"/>
					<path fill="#A01A1F" d="M352.754,557.488l-22.795-12.4c6.668-7.362,13.299-14.423,19.907-21.198l22.795,12.4
						C366.053,543.064,359.422,550.125,352.754,557.488"/>
					<path fill="#A41B20" d="M372.661,536.29l-22.795-12.4c6.074-6.227,12.128-12.212,18.175-17.967l22.795,12.4
						C384.789,524.077,378.735,530.062,372.661,536.29"/>
					<path fill="#A81B21" d="M390.836,518.322l-22.795-12.4c5.716-5.441,11.425-10.676,17.137-15.714l22.795,12.4
						C402.261,507.647,396.552,512.881,390.836,518.322"/>
					<path fill="#AD1C22" d="M407.972,502.608l-22.795-12.4c5.516-4.867,11.035-9.55,16.564-14.06l22.795,12.4
						C419.007,493.058,413.489,497.741,407.972,502.608"/>
					<path fill="#B11D22" d="M424.536,488.548l-22.795-12.4c5.462-4.455,10.935-8.74,16.427-12.863l22.795,12.4
						C435.472,479.808,429.999,484.093,424.536,488.548"/>
					<path fill="#B51D23" d="M440.963,475.685l-22.795-12.4c3.454-2.593,6.915-5.123,10.385-7.59
						c2.079-1.478,4.165-2.937,6.258-4.375l22.795,12.4c-2.093,1.438-4.179,2.897-6.258,4.375
						C447.878,470.562,444.417,473.092,440.963,475.685"/>
					<path fill="#BA1E24" d="M457.606,463.72l-22.795-12.4c5.699-3.916,11.453-7.685,17.263-11.307l22.795,12.4
						C469.059,456.035,463.305,459.803,457.606,463.72"/>
					<path fill="#BE1F25" d="M474.869,452.413l-22.795-12.4c6.136-3.825,12.336-7.487,18.604-10.986l22.795,12.4
						C487.205,444.926,481.005,448.588,474.869,452.413"/>
					<path fill="#C22026" d="M493.473,441.427l-22.795-12.4c6.826-3.811,13.732-7.43,20.723-10.859l22.795,12.4
						C507.205,433.996,500.299,437.615,493.473,441.427"/>
					<path fill="#C72027" d="M514.195,430.568l-22.795-12.4c7.953-3.901,16.016-7.555,24.196-10.965l22.795,12.4
						C530.212,423.013,522.149,426.667,514.195,430.568"/>
					<path fill="#CB2127" d="M538.391,419.603l-22.795-12.4c10.041-4.186,20.258-8.005,30.664-11.462l22.795,12.4
						C558.65,411.597,548.433,415.416,538.391,419.603"/>
					<path fill="#CF2228" d="M569.055,408.141l-22.795-12.4c15.246-5.064,30.896-9.35,46.992-12.875l22.795,12.4
						C599.951,398.79,584.301,403.077,569.055,408.141"/>
					<path fill="#D42229" d="M616.047,395.266l-22.795-12.4c12.371-2.709,25.005-4.967,37.922-6.783l22.795,12.4
						C641.053,390.299,628.418,392.558,616.047,395.266"/>
				</g>
			</g>
			<g enable-background="new    ">
				<defs>
					<path id="SVGID_11_" enable-background="new    " d="M139.46,886.066l-22.795-12.4c6.452,3.51,14.624,4.883,26.032,3.28
						c21.876-3.075,39.888-36.983,55.782-66.904c12.112-22.813,22.573-42.513,32.466-43.903
						c10.926-1.536,30.706,6.714,49.838,14.693c12.362,5.158,24.044,10.024,32.472,11.875c40.271,9.157,84.415,10.782,127.655,4.704
						c65.312-9.18,132.975-36.686,195.677-79.549c136.699-92.37,216.062-206.14,242.618-347.796l22.795,12.4
						C875.444,524.121,796.081,637.891,659.383,730.26c-62.702,42.863-130.365,70.369-195.677,79.549
						c-43.24,6.078-87.383,4.453-127.655-4.704c-8.428-1.85-20.11-6.716-32.472-11.875c-19.133-7.979-38.913-16.229-49.839-14.693
						c-9.893,1.391-20.355,21.09-32.466,43.903c-15.894,29.922-33.906,63.83-55.782,66.904
						C154.084,890.95,145.913,889.576,139.46,886.066z"/>
				</defs>
				<clipPath id="SVGID_12_">
					<use xlink:href="#SVGID_11_"  overflow="visible"/>
				</clipPath>
				<g clip-path="url(#SVGID_12_)" enable-background="new    ">
					<path fill="#BE1F25" d="M139.46,886.066l-22.795-12.4c0.173,0.094,0.348,0.187,0.523,0.278l22.795,12.4
						C139.808,886.253,139.634,886.161,139.46,886.066"/>
					<path fill="#C22026" d="M139.984,886.344l-22.795-12.4c0.576,0.299,1.165,0.58,1.769,0.845l22.795,12.4
						C141.149,886.925,140.56,886.643,139.984,886.344"/>
					<path fill="#C72027" d="M141.753,887.19l-22.795-12.4c0.684,0.3,1.387,0.577,2.111,0.832l22.795,12.4
						C143.14,887.767,142.437,887.489,141.753,887.19"/>
					<path fill="#CB2127" d="M143.864,888.021l-22.795-12.4c0.864,0.304,1.757,0.575,2.682,0.812l22.795,12.4
						C145.621,888.597,144.728,888.326,143.864,888.021"/>
					<path fill="#CF2228" d="M146.546,888.834l-22.795-12.4c1.283,0.329,2.627,0.592,4.038,0.785l22.795,12.4
						C149.172,889.426,147.829,889.163,146.546,888.834"/>
					<path fill="#D42229" d="M150.584,889.619l-22.795-12.4c4.284,0.587,9.189,0.531,14.909-0.273
						c0.497-0.07,0.992-0.156,1.486-0.257l22.795,12.4c-0.493,0.101-0.988,0.187-1.486,0.257
						C159.773,890.15,154.867,890.206,150.584,889.619"/>
					<path fill="#CF2228" d="M166.978,889.089l-22.795-12.4c0.939-0.193,1.87-0.442,2.795-0.744l22.795,12.4
						C168.848,888.647,167.917,888.896,166.978,889.089"/>
					<path fill="#CB2127" d="M169.773,888.345l-22.795-12.4c0.691-0.226,1.379-0.482,2.062-0.767l22.795,12.4
						C171.152,887.862,170.464,888.118,169.773,888.345"/>
					<path fill="#C72027" d="M171.835,887.578l-22.795-12.4c0.56-0.233,1.117-0.485,1.671-0.756l22.795,12.4
						C172.952,887.092,172.395,887.345,171.835,887.578"/>
					<path fill="#C22026" d="M173.506,886.821l-22.795-12.4c0.547-0.267,1.091-0.552,1.632-0.855l22.795,12.4
						C174.597,886.269,174.053,886.554,173.506,886.821"/>
					<path fill="#BE1F25" d="M175.139,885.967l-22.795-12.4c0.51-0.285,1.018-0.585,1.523-0.9l22.795,12.4
						C176.156,885.382,175.649,885.682,175.139,885.967"/>
					<path fill="#BA1E24" d="M176.662,885.067l-22.795-12.4c0.506-0.315,1.009-0.645,1.51-0.99l22.795,12.4
						C177.671,884.421,177.168,884.752,176.662,885.067"/>
					<path fill="#B51D23" d="M178.172,884.077l-22.795-12.4c0.517-0.355,1.032-0.726,1.544-1.111l22.795,12.4
						C179.204,883.351,178.69,883.722,178.172,884.077"/>
					<path fill="#B11D22" d="M179.717,882.966l-22.795-12.4c0.514-0.387,1.026-0.788,1.535-1.203l22.795,12.4
						C180.743,882.178,180.231,882.579,179.717,882.966"/>
					<path fill="#AD1C22" d="M181.252,881.762l-22.795-12.4c0.557-0.454,1.111-0.926,1.663-1.413l22.795,12.4
						C182.363,880.837,181.809,881.308,181.252,881.762"/>
					<path fill="#A81B21" d="M182.915,880.349l-22.795-12.4c0.569-0.503,1.136-1.024,1.7-1.561l22.795,12.4
						C184.051,879.325,183.484,879.846,182.915,880.349"/>
					<path fill="#A41B20" d="M184.615,878.788l-22.795-12.4c0.623-0.593,1.242-1.207,1.859-1.84l22.795,12.4
						C185.857,877.581,185.238,878.194,184.615,878.788"/>
					<path fill="#A01A1F" d="M186.474,876.948l-22.795-12.4c0.684-0.702,1.363-1.427,2.039-2.175l22.795,12.4
						C187.837,875.521,187.157,876.246,186.474,876.948"/>
					<path fill="#9C191E" d="M188.513,874.773l-22.795-12.4c0.751-0.831,1.497-1.689,2.239-2.572l22.795,12.4
						C190.01,873.084,189.264,873.942,188.513,874.773"/>
					<path fill="#97191D" d="M190.751,872.201l-22.795-12.4c0.859-1.023,1.711-2.08,2.557-3.167l22.795,12.4
						C192.463,870.122,191.61,871.178,190.751,872.201"/>
					<path fill="#93181D" d="M193.309,869.034l-22.795-12.4c1.024-1.315,2.038-2.675,3.044-4.074l22.795,12.4
						C195.347,866.359,194.332,867.719,193.309,869.034"/>
					<path fill="#8F171C" d="M196.353,864.961l-22.795-12.4c1.263-1.757,2.512-3.575,3.748-5.443l22.795,12.4
						C198.865,861.386,197.616,863.204,196.353,864.961"/>
					<path fill="#8A161B" d="M200.101,859.517l-22.795-12.4c1.695-2.563,3.366-5.221,5.012-7.943l22.795,12.4
						C203.466,854.297,201.796,856.954,200.101,859.517"/>
					<path fill="#86161A" d="M205.113,851.574l-22.795-12.4c2.882-4.765,5.69-9.729,8.433-14.735l22.795,12.4
						C210.803,841.845,207.994,846.809,205.113,851.574"/>
					<path fill="#821519" d="M213.546,836.839l-22.795-12.4c2.634-4.807,5.208-9.652,7.728-14.397
						c2.409-4.538,4.753-8.952,7.04-13.124l22.795,12.4c-2.287,4.172-4.631,8.586-7.04,13.124
						C218.754,827.187,216.18,832.032,213.546,836.839"/>
					<path fill="#86161A" d="M228.314,809.318l-22.795-12.4c2.118-3.864,4.187-7.519,6.215-10.871l22.795,12.4
						C232.502,801.799,230.432,805.454,228.314,809.318"/>
					<path fill="#8A161B" d="M234.529,798.447l-22.795-12.4c1.084-1.793,2.157-3.499,3.218-5.104l22.795,12.4
						C236.686,794.948,235.613,796.654,234.529,798.447"/>
					<path fill="#8F171C" d="M237.747,793.343l-22.795-12.4c0.753-1.138,1.5-2.225,2.241-3.256l22.795,12.4
						C239.247,791.118,238.5,792.205,237.747,793.343"/>
					<path fill="#93181D" d="M239.989,790.087l-22.795-12.4c0.56-0.778,1.117-1.524,1.671-2.236l22.795,12.4
						C241.106,788.563,240.549,789.309,239.989,790.087"/>
					<path fill="#97191D" d="M241.66,787.851l-22.795-12.4c0.456-0.586,0.91-1.148,1.362-1.686l22.795,12.4
						C242.57,786.703,242.116,787.265,241.66,787.851"/>
					<path fill="#9C191E" d="M243.022,786.165l-22.795-12.4c0.371-0.442,0.741-0.867,1.11-1.275l22.795,12.4
						C243.763,785.298,243.393,785.723,243.022,786.165"/>
					<path fill="#A01A1F" d="M244.132,784.89l-22.795-12.4c0.33-0.365,0.659-0.717,0.987-1.054l22.795,12.4
						C244.791,784.173,244.462,784.524,244.132,784.89"/>
					<path fill="#A41B20" d="M245.12,783.836l-22.795-12.4c0.297-0.305,0.593-0.599,0.889-0.881l22.795,12.4
						C245.713,783.237,245.417,783.53,245.12,783.836"/>
					<path fill="#A81B21" d="M246.009,782.955l-22.795-12.4c0.259-0.246,0.517-0.484,0.774-0.712l22.795,12.4
						C246.525,782.471,246.267,782.708,246.009,782.955"/>
					<path fill="#AD1C22" d="M246.783,782.243l-22.795-12.4c0.248-0.219,0.495-0.429,0.741-0.631l22.795,12.4
						C247.277,781.814,247.03,782.024,246.783,782.243"/>
					<path fill="#B11D22" d="M247.524,781.612l-22.795-12.4c0.226-0.184,0.451-0.361,0.676-0.531l22.795,12.4
						C247.975,781.251,247.75,781.428,247.524,781.612"/>
					<path fill="#B51D23" d="M248.201,781.082l-22.795-12.4c0.217-0.163,0.434-0.32,0.651-0.469l22.795,12.4
						C248.635,780.762,248.418,780.918,248.201,781.082"/>
					<path fill="#BA1E24" d="M248.851,780.613l-22.795-12.4c0.214-0.147,0.427-0.287,0.64-0.42l22.795,12.4
						C249.278,780.326,249.065,780.466,248.851,780.613"/>
					<path fill="#BE1F25" d="M249.492,780.193l-22.795-12.4c0.209-0.13,0.418-0.254,0.626-0.37l22.795,12.4
						C249.909,779.939,249.701,780.062,249.492,780.193"/>
					<path fill="#C22026" d="M250.118,779.823l-22.795-12.4c0.208-0.116,0.416-0.225,0.624-0.327l22.795,12.4
						C250.534,779.598,250.326,779.707,250.118,779.823"/>
					<path fill="#C72027" d="M250.742,779.496l-22.795-12.4c0.237-0.116,0.473-0.223,0.709-0.32l22.795,12.4
						C251.215,779.273,250.979,779.38,250.742,779.496"/>
					<path fill="#CB2127" d="M251.451,779.176l-22.795-12.4c0.237-0.097,0.473-0.185,0.709-0.263l22.795,12.4
						C251.924,778.99,251.687,779.078,251.451,779.176"/>
					<path fill="#CF2228" d="M252.159,778.912l-22.795-12.4c0.366-0.121,0.731-0.218,1.096-0.291l22.795,12.4
						C252.891,778.694,252.526,778.791,252.159,778.912"/>
					<path fill="#D42229" d="M253.255,778.621l-22.795-12.4c0.162-0.032,0.324-0.06,0.485-0.083
						c2.157-0.303,4.659-0.225,7.434,0.157l22.795,12.4c-2.774-0.382-5.277-0.461-7.434-0.157
						C253.579,778.561,253.417,778.589,253.255,778.621"/>
					<path fill="#CF2228" d="M261.174,778.695l-22.795-12.4c2.24,0.309,4.656,0.815,7.212,1.479l22.795,12.4
						C265.831,779.511,263.414,779.004,261.174,778.695"/>
					<path fill="#CB2127" d="M268.386,780.175l-22.795-12.4c3.436,0.893,7.122,2.07,10.966,3.433l22.795,12.4
						C275.508,782.245,271.822,781.068,268.386,780.175"/>
					<path fill="#C72027" d="M279.352,783.608l-22.795-12.4c7.695,2.728,16.021,6.201,24.227,9.623
						c7.751,3.235,15.236,6.354,21.818,8.687l22.795,12.4c-6.582-2.333-14.067-5.453-21.818-8.688
						C295.372,789.809,287.047,786.336,279.352,783.608"/>
					<path fill="#CB2127" d="M325.397,801.919l-22.795-12.4c3.059,1.084,5.923,1.999,8.529,2.676l22.795,12.4
						C331.32,803.917,328.456,803.003,325.397,801.919"/>
					<path fill="#CF2228" d="M333.926,804.595l-22.795-12.4c0.729,0.189,1.438,0.36,2.125,0.511
						c9.083,2.065,18.362,3.747,27.784,5.044l22.795,12.4c-9.422-1.297-18.701-2.979-27.784-5.044
						C335.364,804.955,334.655,804.784,333.926,804.595"/>
					<path fill="#D42229" d="M363.835,810.15l-22.795-12.4c32.353,4.454,66.383,4.367,99.871-0.34
						c9.474-1.332,18.997-3.049,28.548-5.143l22.795,12.4c-9.551,2.094-19.074,3.811-28.548,5.143
						C430.218,814.517,396.188,814.604,363.835,810.15"/>
					<path fill="#CF2228" d="M492.254,804.667l-22.795-12.4c14.069-3.084,28.198-6.986,42.314-11.676l22.795,12.4
						C520.452,797.681,506.323,801.583,492.254,804.667"/>
					<path fill="#CB2127" d="M534.568,792.991l-22.795-12.4c10.628-3.531,21.249-7.509,31.833-11.921l22.795,12.4
						C555.817,785.482,545.196,789.46,534.568,792.991"/>
					<path fill="#C72027" d="M566.401,781.07l-22.795-12.4c9.087-3.788,18.147-7.897,27.159-12.318l22.795,12.4
						C584.547,773.172,575.488,777.281,566.401,781.07"/>
					<path fill="#C22026" d="M593.56,768.751l-22.795-12.4c8.106-3.976,16.173-8.205,24.189-12.681l22.795,12.4
						C609.733,760.546,601.666,764.775,593.56,768.751"/>
					<path fill="#BE1F25" d="M617.749,756.07l-22.795-12.4c7.442-4.156,14.839-8.524,22.179-13.101l22.795,12.4
						C632.588,747.546,625.191,751.914,617.749,756.07"/>
					<path fill="#BA1E24" d="M639.929,742.969l-22.795-12.4c6.532-4.072,13.019-8.31,19.454-12.709
						c0.645-0.436,1.289-0.872,1.932-1.309l22.795,12.4c-0.643,0.437-1.286,0.873-1.932,1.309
						C652.948,734.659,646.46,738.897,639.929,742.969"/>
					<path fill="#B51D23" d="M661.314,728.951l-22.795-12.4c10.124-6.883,19.931-13.885,29.424-21.008l22.795,12.4
						C681.246,715.066,671.438,722.068,661.314,728.951"/>
					<path fill="#B11D22" d="M690.738,707.943l-22.795-12.4c7.718-5.791,15.227-11.663,22.529-17.616l22.795,12.4
						C705.965,696.281,698.455,702.152,690.738,707.943"/>
					<path fill="#AD1C22" d="M713.267,690.328l-22.795-12.4c6.729-5.486,13.283-11.041,19.661-16.667l22.795,12.4
						C726.55,679.286,719.996,684.842,713.267,690.328"/>
					<path fill="#A81B21" d="M732.928,673.661l-22.795-12.4c5.967-5.263,11.78-10.587,17.441-15.974l22.795,12.4
						C744.708,663.074,738.895,668.398,732.928,673.661"/>
					<path fill="#A41B20" d="M750.369,657.687l-22.795-12.4c5.373-5.113,10.608-10.281,15.706-15.507l22.795,12.4
						C760.977,647.406,755.742,652.575,750.369,657.687"/>
					<path fill="#A01A1F" d="M766.075,642.18l-22.795-12.4c4.906-5.029,9.685-10.111,14.338-15.247l22.795,12.4
						C775.76,632.069,770.981,637.151,766.075,642.18"/>
					<path fill="#9C191E" d="M780.413,626.933l-22.795-12.4c4.536-5.007,8.952-10.065,13.249-15.174l22.795,12.4
						C789.365,616.868,784.949,621.926,780.413,626.933"/>
					<path fill="#97191D" d="M793.661,611.759l-22.795-12.4c4.241-5.043,8.365-10.136,12.372-15.281l22.795,12.4
						C802.026,601.623,797.902,606.716,793.661,611.759"/>
					<path fill="#93181D" d="M806.034,596.479l-22.795-12.4c4.004-5.14,7.893-10.33,11.666-15.572l22.795,12.4
						C813.927,586.148,810.038,591.339,806.034,596.479"/>
					<path fill="#8F171C" d="M817.7,580.906l-22.795-12.4c3.816-5.302,7.515-10.657,11.095-16.066l22.795,12.4
						C825.214,570.249,821.516,575.604,817.7,580.906"/>
					<path fill="#8A161B" d="M828.795,564.841L806,552.441c3.681-5.56,7.237-11.176,10.67-16.849l22.795,12.4
						C836.032,553.665,832.476,559.281,828.795,564.841"/>
					<path fill="#86161A" d="M839.465,547.992l-22.795-12.4c3.594-5.941,7.053-11.944,10.376-18.01l22.795,12.4
						C846.518,536.048,843.059,542.051,839.465,547.992"/>
					<path fill="#821519" d="M849.841,529.981l-22.795-12.4c3.56-6.499,6.964-13.07,10.214-19.715l22.795,12.4
						C856.805,516.912,853.4,523.483,849.841,529.981"/>
					<path fill="#7D1418" d="M860.055,510.267l-22.795-12.4c3.592-7.345,6.995-14.779,10.21-22.305l22.795,12.4
						C867.05,495.487,863.647,502.922,860.055,510.267"/>
					<path fill="#791418" d="M870.265,487.962l-22.795-12.4c3.766-8.816,7.274-17.757,10.526-26.825l22.795,12.4
						C877.539,470.205,874.031,479.146,870.265,487.962"/>
					<path fill="#751317" d="M880.79,461.137l-22.795-12.4c4.239-11.823,8.043-23.863,11.413-36.124l22.795,12.4
						C888.833,437.274,885.03,449.313,880.79,461.137"/>
					<path fill="#701216" d="M892.204,425.013l-22.795-12.4c3.82-13.896,7.084-28.077,9.797-42.549l22.795,12.4
						C899.288,396.936,896.024,411.116,892.204,425.013"/>
				</g>
			</g>
			<g>
				<path fill="#D52229" d="M844.846,114.688c51.328-7.215,67.223,133.047,67.148,173.373c-0.057,30.297-3.127,62.089-9.121,94.472
					C876.252,524.511,796.739,638.517,659.78,731.061c-62.82,42.945-130.629,70.51-196.076,79.709
					c-43.336,6.091-87.576,4.461-127.936-4.718c-8.492-1.857-20.206-6.745-32.6-11.91c-19.037-7.939-38.721-16.141-49.429-14.635
					c-9.395,1.321-19.738,20.789-31.714,43.341c-16.015,30.143-34.159,64.322-56.534,67.467
					c-28.772,4.044-37.272-10.439-49.029-30.493c-0.887-1.689-1.742-3.144-2.49-4.421c-2.732-4.649-4.701-8.003-4.686-16.034
					c0.054-28.956,28.777-57.792,54.118-83.233c18.56-18.637,34.581-34.727,34.603-46.459c0.004-1.998-2.738-8.778-5.64-15.95
					c-3.164-7.838-6.759-16.718-7.686-21.636c-2.646-15.983-3.968-32.705-3.936-49.705c0.069-37.014,6.762-73.852,19.887-109.478
					c12.245-33.239,30.083-65.447,53.01-95.724c42.098-55.615,101.768-104.387,168.021-137.35
					c37.801-18.84,91.969-27.914,149.312-37.515c80.026-13.408,162.771-27.271,199.282-69.745
					c4.637-5.285,8.803-10.408,12.831-15.357C800.467,135.863,814.19,118.997,844.846,114.688z M902.001,382.464
					c5.986-32.321,9.05-64.043,9.106-94.278c0.036-19.333-3.829-64.784-14.365-104.391c-15.992-60.108-37.05-70.237-51.899-68.15
					c-30.278,4.256-43.891,20.987-61.124,42.157c-4.038,4.959-8.212,10.09-12.856,15.388
					c-36.756,42.758-119.673,56.642-199.866,70.084c-57.283,9.592-111.384,18.657-149.056,37.429
					c-66.111,32.889-125.652,81.559-167.647,137.032c-22.856,30.194-40.637,62.298-52.846,95.424
					c-13.078,35.508-19.746,72.216-19.815,109.099c-0.032,16.939,1.289,33.607,3.925,49.534c0.906,4.806,4.477,13.651,7.633,21.451
					c3.061,7.576,5.714,14.118,5.71,16.305c-0.023,12.201-16.204,28.444-34.946,47.26c-25.185,25.277-53.733,53.935-53.786,82.433
					c-0.015,7.774,1.805,10.872,4.562,15.567c0.756,1.285,1.618,2.746,2.504,4.435c11.598,19.784,19.999,34.074,48.254,30.102
					c21.876-3.075,39.888-36.983,55.782-66.904c12.112-22.813,22.573-42.513,32.466-43.903c10.926-1.536,30.706,6.714,49.839,14.693
					c12.362,5.158,24.044,10.024,32.472,11.875c40.271,9.157,84.415,10.782,127.655,4.704
					c65.312-9.18,132.975-36.686,195.677-79.549C796.081,637.891,875.444,524.121,902.001,382.464"/>
			</g>
			<g enable-background="new    ">
				<defs>
					<path id="SVGID_13_" enable-background="new    " d="M837.857,106.24l22.795,12.4c12.01,6.533,25.221,24.299,36.091,65.155
						c10.535,39.607,14.401,85.058,14.365,104.391c-0.057,30.235-3.12,61.957-9.106,94.278l-22.795-12.4
						c5.986-32.321,9.05-64.043,9.106-94.278c0.036-19.333-3.829-64.784-14.365-104.391
						C863.077,130.539,849.867,112.773,837.857,106.24z"/>
				</defs>
				<clipPath id="SVGID_14_">
					<use xlink:href="#SVGID_13_"  overflow="visible"/>
				</clipPath>
				<g clip-path="url(#SVGID_14_)" enable-background="new    ">
					<path fill="#701216" d="M902.001,382.464l-22.795-12.4c5.986-32.321,9.05-64.043,9.106-94.278
						c0.036-19.333-3.829-64.784-14.365-104.391c-10.87-40.857-24.081-58.622-36.091-65.155l22.795,12.4
						c12.01,6.533,25.221,24.299,36.091,65.155c10.535,39.607,14.401,85.058,14.365,104.391
						C911.05,318.421,907.987,350.143,902.001,382.464"/>
				</g>
			</g>
			<g enable-background="new    ">
				<defs>
					<path id="SVGID_15_" enable-background="new    " d="M838.475,105.324l22.795,12.4c-5.021-2.731-10.486-3.871-16.425-3.036
						l-22.795-12.4C827.99,101.453,833.455,102.593,838.475,105.324z"/>
				</defs>
				<clipPath id="SVGID_16_">
					<use xlink:href="#SVGID_15_"  overflow="visible"/>
				</clipPath>
				<g clip-path="url(#SVGID_16_)" enable-background="new    ">
					<path fill="#D42229" d="M844.846,114.688l-22.795-12.4c2.324-0.327,4.575-0.351,6.756-0.096l22.795,12.4
						C849.421,114.337,847.17,114.362,844.846,114.688"/>
					<path fill="#CF2228" d="M851.601,114.592l-22.795-12.4c0.985,0.115,1.956,0.287,2.912,0.515l22.795,12.4
						C853.557,114.88,852.586,114.708,851.601,114.592"/>
					<path fill="#CB2127" d="M854.513,115.107l-22.795-12.4c0.769,0.183,1.529,0.401,2.28,0.654l22.795,12.4
						C856.043,115.508,855.283,115.29,854.513,115.107"/>
					<path fill="#C72027" d="M856.794,115.76l-22.795-12.4c0.751,0.253,1.493,0.54,2.225,0.86l22.795,12.4
						C858.286,116.3,857.545,116.013,856.794,115.76"/>
					<path fill="#C22026" d="M859.019,116.621l-22.795-12.4c0.573,0.251,1.141,0.522,1.704,0.813l22.795,12.4
						C860.16,117.143,859.592,116.871,859.019,116.621"/>
					<path fill="#BE1F25" d="M860.723,117.434l-22.795-12.4c0.183,0.095,0.366,0.192,0.548,0.291l22.795,12.4
						C861.088,117.625,860.906,117.528,860.723,117.434"/>
				</g>
			</g>
			<g>
				<path fill="#D52229" d="M653.969,388.484c16.02-2.252,29.027,9.985,28.994,27.277c-0.032,17.293-13.092,33.193-29.112,35.445
					c-55.557,7.809-100.315,22.199-140.856,45.27c-39.377,22.42-77.248,54.555-119.201,101.14
					c-9.391,10.809-18.605,22.039-27.506,32.891c-11.454,13.954-23.294,28.388-35.641,42.075
					c-6.374,7.223-12.865,11.094-20.427,12.157c-16.02,2.252-29.027-9.985-28.994-27.277c0.015-8.162,2.759-15.547,8.653-23.249
					c56.613-75.25,107.919-128.045,161.469-166.118C511.641,425.217,577.92,399.173,653.969,388.484z M653.853,450.245
					c15.532-2.183,28.189-17.593,28.22-34.359c0.031-16.758-12.574-28.617-28.106-26.434c-75.903,10.669-142.04,36.65-202.204,79.43
					c-53.45,38.009-104.682,90.724-161.23,165.888c-5.73,7.486-8.402,14.654-8.417,22.566
					c-0.031,16.766,12.574,28.625,28.106,26.442c7.33-1.03,13.629-4.786,19.825-11.826c12.34-13.663,24.172-28.085,35.609-42.036
					c8.911-10.857,18.132-22.096,27.538-32.926c42.031-46.681,79.995-78.883,119.475-101.355
					C553.321,472.494,598.175,458.072,653.853,450.245"/>
			</g>
			<g enable-background="new    ">
				<defs>
					<path id="SVGID_17_" enable-background="new    " d="M138.969,886.985l-22.795-12.4c-9.66-5.255-15.507-15.222-22.508-27.164
						l22.795,12.4C123.463,871.764,129.309,881.73,138.969,886.985z"/>
				</defs>
				<clipPath id="SVGID_18_">
					<use xlink:href="#SVGID_17_"  overflow="visible"/>
				</clipPath>
				<g clip-path="url(#SVGID_18_)" enable-background="new    ">
					<path fill="#701216" d="M138.969,886.985l-22.795-12.4c-9.66-5.255-15.507-15.222-22.508-27.164l22.795,12.4
						C123.463,871.764,129.309,881.73,138.969,886.985"/>
				</g>
			</g>
			<g enable-background="new    ">
				<defs>
					<path id="SVGID_19_" enable-background="new    " d="M116.461,859.822l-22.795-12.4c-0.887-1.689-1.742-3.144-2.49-4.422
						c-2.732-4.649-4.701-8.002-4.686-16.034c0.054-28.956,28.777-57.792,54.118-83.233c18.56-18.637,34.581-34.727,34.603-46.459
						c0.004-1.998-2.738-8.778-5.64-15.95c-3.164-7.838-6.759-16.718-7.686-21.636l22.795,12.4
						c0.927,4.918,4.523,13.798,7.686,21.636c2.901,7.172,5.643,13.952,5.64,15.95c-0.022,11.732-16.043,27.822-34.603,46.459
						c-25.342,25.441-54.064,54.277-54.118,83.233c-0.015,8.031,1.954,11.385,4.686,16.034
						C114.72,856.678,115.575,858.133,116.461,859.822z"/>
				</defs>
				<clipPath id="SVGID_20_">
					<use xlink:href="#SVGID_19_"  overflow="visible"/>
				</clipPath>
				<g clip-path="url(#SVGID_20_)" enable-background="new    ">
					<path fill="#701216" d="M116.461,859.822l-22.795-12.4c-0.887-1.689-1.742-3.144-2.49-4.422
						c-2.732-4.649-4.701-8.002-4.686-16.034c0.008-4.345,0.662-8.687,1.852-13.015l22.795,12.4
						c-1.191,4.328-1.844,8.67-1.852,13.015c-0.015,8.031,1.954,11.385,4.686,16.034
						C114.72,856.678,115.575,858.133,116.461,859.822"/>
					<path fill="#751317" d="M111.138,826.351l-22.795-12.4c0.412-1.498,0.889-2.995,1.425-4.489l22.795,12.4
						C112.026,823.357,111.55,824.853,111.138,826.351"/>
					<path fill="#791418" d="M112.563,821.862l-22.795-12.4c0.467-1.302,0.98-2.602,1.535-3.901l22.795,12.4
						C113.543,819.26,113.03,820.561,112.563,821.862"/>
					<path fill="#7D1418" d="M114.098,817.962l-22.795-12.4c0.532-1.243,1.102-2.485,1.709-3.725l22.795,12.4
						C115.2,815.477,114.63,816.719,114.098,817.962"/>
					<path fill="#821519" d="M115.807,814.237l-22.795-12.4c0.612-1.25,1.261-2.498,1.944-3.744l22.795,12.4
						C117.068,811.739,116.419,812.987,115.807,814.237"/>
					<path fill="#86161A" d="M117.752,810.493l-22.795-12.4c0.71-1.295,1.458-2.587,2.239-3.877l22.795,12.4
						C119.209,807.906,118.462,809.198,117.752,810.493"/>
					<path fill="#8A161B" d="M119.991,806.616l-22.795-12.4c0.835-1.377,1.708-2.752,2.617-4.122l22.795,12.4
						C121.699,803.865,120.825,805.239,119.991,806.616"/>
					<path fill="#8F171C" d="M122.607,802.494l-22.795-12.4c1-1.508,2.042-3.012,3.122-4.511l22.795,12.4
						C124.649,799.482,123.607,800.986,122.607,802.494"/>
					<path fill="#93181D" d="M125.729,797.983l-22.795-12.4c1.226-1.701,2.5-3.396,3.816-5.084l22.795,12.4
						C128.229,794.587,126.955,796.282,125.729,797.983"/>
					<path fill="#97191D" d="M129.545,792.899l-22.795-12.4c1.586-2.034,3.231-4.058,4.925-6.071l22.795,12.4
						C132.776,788.841,131.131,790.865,129.545,792.899"/>
					<path fill="#9C191E" d="M134.47,786.829l-22.795-12.4c2.179-2.589,4.436-5.16,6.747-7.709l22.795,12.4
						C138.906,781.669,136.649,784.239,134.47,786.829"/>
					<path fill="#A01A1F" d="M141.216,779.12l-22.795-12.4c3.822-4.217,7.788-8.376,11.777-12.463l22.795,12.4
						C149.005,770.744,145.039,774.902,141.216,779.12"/>
					<path fill="#A41B20" d="M152.994,766.656l-22.795-12.4c3.479-3.565,6.975-7.075,10.41-10.523
						c3.227-3.241,6.378-6.404,9.38-9.481l22.795,12.4c-3.003,3.077-6.153,6.241-9.38,9.481
						C159.969,759.582,156.473,763.092,152.994,766.656"/>
					<path fill="#A01A1F" d="M172.784,746.653l-22.795-12.4c3.162-3.24,6.161-6.385,8.914-9.422l22.795,12.4
						C178.945,740.268,175.946,743.412,172.784,746.653"/>
					<path fill="#9C191E" d="M181.698,737.23l-22.795-12.4c1.536-1.695,2.996-3.357,4.365-4.984l22.795,12.4
						C184.694,733.873,183.234,735.535,181.698,737.23"/>
					<path fill="#97191D" d="M186.062,732.246l-22.795-12.4c1.001-1.19,1.954-2.362,2.852-3.513l22.795,12.4
						C188.016,729.885,187.064,731.056,186.062,732.246"/>
					<path fill="#93181D" d="M188.914,728.733l-22.795-12.4c0.729-0.935,1.423-1.858,2.078-2.767l22.795,12.4
						C190.337,726.875,189.644,727.798,188.914,728.733"/>
					<path fill="#8F171C" d="M190.992,725.966l-22.795-12.4c0.55-0.764,1.073-1.519,1.567-2.264l22.795,12.4
						C192.065,724.447,191.542,725.202,190.992,725.966"/>
					<path fill="#8A161B" d="M192.559,723.702l-22.795-12.4c0.431-0.651,0.84-1.294,1.225-1.93l22.795,12.4
						C193.399,722.409,192.99,723.052,192.559,723.702"/>
					<path fill="#86161A" d="M193.784,721.773l-22.795-12.4c0.351-0.579,0.682-1.152,0.993-1.718l22.795,12.4
						C194.466,720.621,194.135,721.194,193.784,721.773"/>
					<path fill="#821519" d="M194.777,720.055l-22.795-12.4c0.294-0.535,0.569-1.064,0.826-1.588l22.795,12.4
						C195.346,718.99,195.071,719.52,194.777,720.055"/>
					<path fill="#7D1418" d="M195.603,718.467l-22.795-12.4c0.249-0.509,0.481-1.012,0.693-1.509l22.795,12.4
						C196.083,717.455,195.852,717.958,195.603,718.467"/>
					<path fill="#791418" d="M196.296,716.958l-22.795-12.4c0.215-0.503,0.411-1,0.587-1.491l22.795,12.4
						C196.707,715.958,196.511,716.455,196.296,716.958"/>
					<path fill="#751317" d="M196.883,715.466l-22.795-12.4c0.202-0.564,0.379-1.121,0.528-1.67l22.795,12.4
						C197.262,714.345,197.085,714.902,196.883,715.466"/>
					<path fill="#701216" d="M197.411,713.796l-22.795-12.4c0.388-1.427,0.593-2.802,0.596-4.122
						c0.004-1.998-2.738-8.778-5.64-15.95c-3.164-7.838-6.759-16.718-7.686-21.636l22.795,12.4
						c0.927,4.918,4.523,13.798,7.686,21.636c2.901,7.172,5.643,13.952,5.64,15.95C198.004,710.994,197.799,712.369,197.411,713.796
						"/>
				</g>
			</g>
			<g enable-background="new    ">
				<defs>
					<path id="SVGID_21_" enable-background="new    " d="M184.681,672.089l-22.795-12.4c-2.646-15.982-3.968-32.705-3.936-49.705
						c0.069-37.014,6.762-73.852,19.887-109.478c12.245-33.239,30.083-65.447,53.01-95.724
						c42.098-55.615,101.768-104.387,168.021-137.35c37.801-18.84,91.969-27.914,149.312-37.515
						c80.026-13.408,162.771-27.271,199.282-69.745c4.637-5.285,8.803-10.408,12.831-15.357
						c17.38-21.352,31.103-38.218,61.758-42.527l22.795,12.4c-30.655,4.309-44.378,21.175-61.758,42.527
						c-4.027,4.95-8.194,10.072-12.831,15.357c-36.51,42.474-119.256,56.337-199.282,69.745
						c-57.344,9.601-111.512,18.675-149.312,37.515c-66.253,32.963-125.923,81.735-168.021,137.35
						c-22.927,30.277-40.765,62.485-53.01,95.724c-13.125,35.626-19.817,72.464-19.887,109.478
						C180.713,639.384,182.034,656.106,184.681,672.089z"/>
				</defs>
				<clipPath id="SVGID_22_">
					<use xlink:href="#SVGID_21_"  overflow="visible"/>
				</clipPath>
				<g clip-path="url(#SVGID_22_)" enable-background="new    ">
					<path fill="#701216" d="M184.681,672.089l-22.795-12.4c-2.646-15.982-3.968-32.705-3.936-49.705
						c0.052-27.901,3.868-55.703,11.366-82.961l22.795,12.4c-7.498,27.258-11.313,55.06-11.366,82.961
						C180.713,639.384,182.034,656.106,184.681,672.089"/>
					<path fill="#751317" d="M192.11,539.423l-22.795-12.4c2.205-8.015,4.728-15.983,7.567-23.893l22.795,12.4
						C196.838,523.44,194.315,531.408,192.11,539.423"/>
					<path fill="#791418" d="M199.677,515.53l-22.795-12.4c0.314-0.875,0.632-1.75,0.954-2.624
						c2.003-5.437,4.155-10.846,6.455-16.223l22.795,12.4c-2.3,5.377-4.452,10.786-6.455,16.223
						C200.31,513.78,199.992,514.655,199.677,515.53"/>
					<path fill="#7D1418" d="M207.087,496.683l-22.795-12.4c2.353-5.503,4.861-10.972,7.521-16.405l22.795,12.4
						C211.948,485.711,209.44,491.18,207.087,496.683"/>
					<path fill="#821519" d="M214.607,480.278l-22.795-12.4c2.456-5.017,5.042-10.002,7.756-14.952l22.795,12.4
						C219.649,470.276,217.064,475.261,214.607,480.278"/>
					<path fill="#86161A" d="M222.363,465.326l-22.795-12.4c2.574-4.696,5.264-9.36,8.067-13.99l22.795,12.4
						C227.627,455.966,224.937,460.63,222.363,465.326"/>
					<path fill="#8A161B" d="M230.43,451.336l-22.795-12.4c2.707-4.473,5.521-8.913,8.439-13.319l22.795,12.4
						C235.95,442.423,233.137,446.863,230.43,451.336"/>
					<path fill="#8F171C" d="M238.868,438.017l-22.795-12.4c2.858-4.315,5.815-8.597,8.872-12.843l22.795,12.4
						C244.683,429.42,241.726,433.702,238.868,438.017"/>
					<path fill="#93181D" d="M247.74,425.174l-22.795-12.4c1.928-2.679,3.896-5.343,5.902-7.992
						c1.129-1.492,2.272-2.979,3.426-4.461l22.795,12.4c-1.155,1.482-2.297,2.969-3.426,4.461
						C251.635,419.832,249.668,422.496,247.74,425.174"/>
					<path fill="#97191D" d="M257.068,412.721l-22.795-12.4c3.179-4.081,6.452-8.123,9.816-12.123l22.795,12.4
						C263.52,404.597,260.247,408.64,257.068,412.721"/>
					<path fill="#9C191E" d="M266.883,400.597l-22.795-12.4c3.437-4.087,6.967-8.131,10.587-12.126l22.795,12.4
						C273.851,392.467,270.32,396.51,266.883,400.597"/>
					<path fill="#A01A1F" d="M277.47,388.471l-22.795-12.4c3.71-4.095,7.514-8.14,11.407-12.131l22.795,12.4
						C284.984,380.331,281.18,384.376,277.47,388.471"/>
					<path fill="#A41B20" d="M288.877,376.341l-22.795-12.4c4.025-4.126,8.144-8.193,12.352-12.198l22.795,12.4
						C297.021,368.148,292.901,372.215,288.877,376.341"/>
					<path fill="#A81B21" d="M301.229,364.143l-22.795-12.4c4.357-4.146,8.81-8.225,13.352-12.232l22.795,12.4
						C310.039,355.918,305.586,359.997,301.229,364.143"/>
					<path fill="#AD1C22" d="M314.581,351.912l-22.795-12.4c4.723-4.166,9.542-8.253,14.451-12.256l22.795,12.4
						C324.123,343.658,319.304,347.746,314.581,351.912"/>
					<path fill="#B11D22" d="M329.032,339.655l-22.795-12.4c5.144-4.195,10.386-8.297,15.718-12.301l22.795,12.4
						C339.417,331.358,334.175,335.46,329.032,339.655"/>
					<path fill="#B51D23" d="M344.749,327.355l-22.795-12.4c5.606-4.209,11.313-8.309,17.109-12.292l22.795,12.4
						C356.062,319.046,350.356,323.145,344.749,327.355"/>
					<path fill="#BA1E24" d="M361.858,315.063l-22.795-12.4c6.137-4.217,12.374-8.302,18.702-12.246l22.795,12.4
						C374.233,306.761,367.995,310.846,361.858,315.063"/>
					<path fill="#BE1F25" d="M380.56,302.816l-22.795-12.4c6.762-4.215,13.626-8.27,20.58-12.153l22.795,12.4
						C394.186,294.546,387.322,298.601,380.56,302.816"/>
					<path fill="#C22026" d="M401.14,290.663l-22.795-12.4c6.761-3.776,13.606-7.389,20.523-10.831
						c0.306-0.153,0.613-0.305,0.922-0.456l22.795,12.4c-0.308,0.151-0.616,0.303-0.922,0.456
						C414.746,283.274,407.901,286.887,401.14,290.663"/>
					<path fill="#C72027" d="M422.584,279.377l-22.795-12.4c3.399-1.668,6.927-3.259,10.576-4.78l22.795,12.4
						C429.512,276.117,425.983,277.708,422.584,279.377"/>
					<path fill="#CB2127" d="M433.16,274.596l-22.795-12.4c5.563-2.319,11.405-4.476,17.494-6.496l22.795,12.4
						C444.566,270.12,438.723,272.277,433.16,274.596"/>
					<path fill="#CF2228" d="M450.654,268.1l-22.795-12.4c13.628-4.522,28.489-8.36,44.21-11.806l22.795,12.4
						C479.143,259.74,464.282,263.578,450.654,268.1"/>
					<path fill="#D42229" d="M494.865,256.294l-22.795-12.4c23.827-5.222,49.63-9.544,76.111-13.977
						c26.296-4.406,52.886-8.861,78.033-14.364l22.795,12.4c-25.147,5.503-51.736,9.958-78.033,14.364
						C544.495,246.751,518.691,251.072,494.865,256.294"/>
					<path fill="#CF2228" d="M649.008,227.954l-22.795-12.4c17.29-3.784,33.897-8.063,49.258-13.162l22.795,12.4
						C682.905,219.891,666.297,224.17,649.008,227.954"/>
					<path fill="#CB2127" d="M698.265,214.792l-22.795-12.4c6.811-2.261,13.377-4.683,19.649-7.295l22.795,12.4
						C711.642,210.108,705.076,212.531,698.265,214.792"/>
					<path fill="#C72027" d="M717.914,207.496l-22.795-12.4c4.055-1.689,7.987-3.457,11.782-5.312l22.795,12.4
						C725.9,204.04,721.968,205.808,717.914,207.496"/>
					<path fill="#C22026" d="M729.696,202.185l-22.795-12.4c2.891-1.413,5.703-2.876,8.43-4.394l22.795,12.4
						C735.399,199.309,732.587,200.772,729.696,202.185"/>
					<path fill="#BE1F25" d="M738.126,197.791l-22.795-12.4c2.226-1.238,4.395-2.513,6.505-3.825l22.795,12.4
						C742.522,195.279,740.352,196.553,738.126,197.791"/>
					<path fill="#BA1E24" d="M744.631,193.967l-22.795-12.4c1.77-1.101,3.497-2.228,5.181-3.383l22.795,12.4
						C748.129,191.739,746.401,192.866,744.631,193.967"/>
					<path fill="#B51D23" d="M749.812,190.584l-22.795-12.4c1.431-0.981,2.829-1.982,4.195-3.004l22.795,12.4
						C752.642,188.602,751.243,189.603,749.812,190.584"/>
					<path fill="#B11D22" d="M754.008,187.58l-22.795-12.4c1.301-0.973,2.573-1.966,3.813-2.977l22.795,12.4
						C756.58,185.614,755.309,186.606,754.008,187.58"/>
					<path fill="#AD1C22" d="M757.821,184.603l-22.795-12.4c1.047-0.853,2.071-1.72,3.073-2.601l22.795,12.4
						C759.892,182.882,758.868,183.749,757.821,184.603"/>
					<path fill="#A81B21" d="M760.894,182.001l-22.795-12.4c0.995-0.874,1.967-1.763,2.916-2.665l22.795,12.4
						C762.861,180.238,761.889,181.127,760.894,182.001"/>
					<path fill="#A41B20" d="M763.81,179.336l-22.795-12.4c0.86-0.818,1.702-1.647,2.524-2.488l22.795,12.4
						C765.512,177.689,764.671,178.518,763.81,179.336"/>
					<path fill="#A01A1F" d="M766.335,176.847l-22.795-12.4c0.798-0.816,1.578-1.644,2.339-2.483l22.795,12.4
						C767.912,175.204,767.132,176.031,766.335,176.847"/>
					<path fill="#9C191E" d="M768.674,174.364l-22.795-12.4c0.537-0.592,1.065-1.189,1.583-1.792
						c1.637-1.865,3.215-3.711,4.749-5.535l22.795,12.4c-1.534,1.824-3.112,3.67-4.749,5.535
						C769.738,173.176,769.211,173.773,768.674,174.364"/>
					<path fill="#97191D" d="M775.005,167.038l-22.795-12.4c2.812-3.345,5.476-6.62,8.082-9.822
						c2.413-2.965,4.756-5.843,7.084-8.614l22.795,12.4c-2.327,2.77-4.67,5.649-7.084,8.614
						C780.481,160.418,777.817,163.693,775.005,167.038"/>
					<path fill="#9C191E" d="M790.171,148.602l-22.795-12.4c1.879-2.236,3.747-4.402,5.635-6.485l22.795,12.4
						C793.918,144.2,792.049,146.366,790.171,148.602"/>
					<path fill="#A01A1F" d="M795.805,142.116l-22.795-12.4c1.208-1.334,2.425-2.635,3.656-3.899l22.795,12.4
						C798.23,139.482,797.014,140.782,795.805,142.116"/>
					<path fill="#A41B20" d="M799.462,138.218l-22.795-12.4c1.01-1.037,2.031-2.049,3.066-3.035l22.795,12.4
						C801.492,136.169,800.472,137.181,799.462,138.218"/>
					<path fill="#A81B21" d="M802.527,135.183l-22.795-12.4c0.903-0.86,1.817-1.7,2.745-2.52l22.795,12.4
						C804.344,133.482,803.43,134.323,802.527,135.183"/>
					<path fill="#AD1C22" d="M805.272,132.663l-22.795-12.4c0.849-0.75,1.709-1.481,2.584-2.195l22.795,12.4
						C806.981,131.182,806.121,131.914,805.272,132.663"/>
					<path fill="#B11D22" d="M807.856,130.468l-22.795-12.4c0.83-0.677,1.672-1.338,2.528-1.981l22.795,12.4
						C809.528,129.131,808.685,129.791,807.856,130.468"/>
					<path fill="#B51D23" d="M810.384,128.487l-22.795-12.4c0.837-0.629,1.687-1.241,2.553-1.835l22.795,12.4
						C812.071,127.247,811.221,127.859,810.384,128.487"/>
					<path fill="#BA1E24" d="M812.937,126.652l-22.795-12.4c0.868-0.597,1.752-1.176,2.652-1.737l22.795,12.4
						C814.688,125.476,813.805,126.056,812.937,126.652"/>
					<path fill="#BE1F25" d="M815.589,124.915l-22.795-12.4c0.93-0.579,1.877-1.139,2.845-1.68l22.795,12.4
						C817.466,123.776,816.518,124.336,815.589,124.915"/>
					<path fill="#C22026" d="M818.434,123.236l-22.795-12.4c1.038-0.58,2.1-1.136,3.187-1.669l22.795,12.4
						C820.534,122.099,819.472,122.656,818.434,123.236"/>
					<path fill="#C72027" d="M821.621,121.567l-22.795-12.4c1.232-0.604,2.498-1.178,3.799-1.719l22.795,12.4
						C824.118,120.389,822.853,120.962,821.621,121.567"/>
					<path fill="#CB2127" d="M825.419,119.847l-22.795-12.4c1.594-0.664,3.243-1.279,4.952-1.844l22.795,12.4
						C828.663,118.568,827.014,119.184,825.419,119.847"/>
					<path fill="#CF2228" d="M830.372,118.003l-22.795-12.4c2.501-0.827,5.132-1.546,7.912-2.149l22.795,12.4
						C835.504,116.457,832.873,117.176,830.372,118.003"/>
					<path fill="#D42229" d="M838.284,115.854l-22.795-12.4c2.099-0.456,4.284-0.845,6.562-1.165l22.795,12.4
						C842.568,115.009,840.383,115.398,838.284,115.854"/>
				</g>
			</g>
		</g>
	</g>
</g>
</svg>
