<?xml version="1.0" encoding="utf-8"?>
<!-- Generator: Adobe Illustrator 17.0.0, SVG Export Plug-In . SVG Version: 6.00 Build 0)  -->
<!DOCTYPE svg PUBLIC "-//W3C//DTD SVG 1.1//EN" "http://www.w3.org/Graphics/SVG/1.1/DTD/svg11.dtd">
<svg version="1.1" id="Layer_1" xmlns="http://www.w3.org/2000/svg" xmlns:xlink="http://www.w3.org/1999/xlink" x="0px" y="0px"
	 width="1000px" height="1000px" viewBox="0 0 1000 1000" enable-background="new 0 0 1000 1000" xml:space="preserve">
<g>
	<g>
		<g enable-background="new    ">
			<g>
				<polygon fill="#90171C" points="917.483,503.576 894.688,491.176 928.997,442.269 951.792,454.669 				"/>
			</g>
			<g enable-background="new    ">
				<defs>
					<path id="SVGID_1_" enable-background="new    " d="M951.792,454.669l-22.795-12.4c5.893-8.331,4.908-20.399-2.105-25.837
						l22.795,12.4C956.7,434.27,957.685,446.338,951.792,454.669z"/>
				</defs>
				<clipPath id="SVGID_2_">
					<use xlink:href="#SVGID_1_"  overflow="visible"/>
				</clipPath>
				<g clip-path="url(#SVGID_2_)" enable-background="new    ">
					<path fill="#8F171C" d="M951.792,454.669l-22.795-12.4c0.123-0.174,0.243-0.35,0.36-0.527l22.795,12.4
						C952.035,454.319,951.915,454.495,951.792,454.669"/>
					<path fill="#8A161B" d="M952.152,454.142l-22.795-12.4c0.149-0.226,0.293-0.454,0.433-0.684l22.795,12.4
						C952.445,453.688,952.301,453.916,952.152,454.142"/>
					<path fill="#86161A" d="M952.585,453.458l-22.795-12.4c0.156-0.258,0.306-0.519,0.45-0.783l22.795,12.4
						C952.891,452.938,952.741,453.199,952.585,453.458"/>
					<path fill="#821519" d="M953.035,452.675l-22.795-12.4c0.152-0.279,0.298-0.56,0.436-0.844l22.795,12.4
						C953.333,452.115,953.188,452.396,953.035,452.675"/>
					<path fill="#7D1418" d="M953.472,451.831l-22.795-12.4c0.157-0.321,0.305-0.646,0.445-0.973l22.795,12.4
						C953.777,451.185,953.629,451.51,953.472,451.831"/>
					<path fill="#791418" d="M953.917,450.857l-22.795-12.4c0.169-0.395,0.325-0.795,0.469-1.198l22.795,12.4
						C954.242,450.062,954.086,450.462,953.917,450.857"/>
					<path fill="#751317" d="M954.386,449.66l-22.795-12.4c0.185-0.517,0.349-1.04,0.493-1.566l22.795,12.4
						C954.735,448.62,954.57,449.143,954.386,449.66"/>
					<path fill="#701216" d="M954.878,448.094l-22.795-12.4c1.974-7.221,0.12-15.143-5.192-19.262l22.795,12.4
						C954.998,432.951,956.852,440.873,954.878,448.094"/>
				</g>
			</g>
			<g enable-background="new    ">
				<defs>
					<path id="SVGID_3_" enable-background="new    " d="M904.558,511.771l-22.795-12.4c6.064-1.448,10.29-4.429,12.925-8.195
						l22.795,12.4C914.849,507.342,910.622,510.323,904.558,511.771z"/>
				</defs>
				<clipPath id="SVGID_4_">
					<use xlink:href="#SVGID_3_"  overflow="visible"/>
				</clipPath>
				<g clip-path="url(#SVGID_4_)" enable-background="new    ">
					<path fill="#CF2228" d="M904.558,511.771l-22.795-12.4c0.819-0.196,1.605-0.419,2.357-0.669l22.795,12.4
						C906.163,511.352,905.378,511.575,904.558,511.771"/>
					<path fill="#CB2127" d="M906.916,511.102l-22.795-12.4c0.618-0.205,1.214-0.428,1.788-0.667l22.795,12.4
						C908.13,510.674,907.534,510.897,906.916,511.102"/>
					<path fill="#C72027" d="M908.704,510.435l-22.795-12.4c0.449-0.187,0.885-0.385,1.308-0.592l22.795,12.4
						C909.589,510.05,909.153,510.248,908.704,510.435"/>
					<path fill="#C22026" d="M910.012,509.843l-22.795-12.4c0.362-0.177,0.714-0.362,1.057-0.553l22.795,12.4
						C910.726,509.481,910.374,509.666,910.012,509.843"/>
					<path fill="#BE1F25" d="M911.069,509.29l-22.795-12.4c0.301-0.168,0.595-0.342,0.882-0.52l22.795,12.4
						C911.664,508.948,911.37,509.122,911.069,509.29"/>
					<path fill="#BA1E24" d="M911.951,508.77l-22.795-12.4c0.262-0.163,0.519-0.331,0.769-0.503l22.795,12.4
						C912.469,508.438,912.213,508.606,911.951,508.77"/>
					<path fill="#B51D23" d="M912.719,508.267l-22.795-12.4c0.233-0.16,0.461-0.323,0.683-0.49l22.795,12.4
						C913.18,507.943,912.952,508.107,912.719,508.267"/>
					<path fill="#B11D22" d="M913.402,507.776l-22.795-12.4c0.21-0.158,0.416-0.319,0.617-0.483l22.795,12.4
						C913.818,507.458,913.612,507.619,913.402,507.776"/>
					<path fill="#AD1C22" d="M914.019,507.294l-22.795-12.4c0.193-0.157,0.381-0.317,0.565-0.479l22.795,12.4
						C914.4,506.977,914.211,507.137,914.019,507.294"/>
					<path fill="#A81B21" d="M914.584,506.815l-22.795-12.4c0.179-0.158,0.353-0.318,0.524-0.48l22.795,12.4
						C914.937,506.497,914.763,506.657,914.584,506.815"/>
					<path fill="#A41B20" d="M915.108,506.334l-22.795-12.4c0.168-0.16,0.331-0.321,0.491-0.485l22.795,12.4
						C915.439,506.013,915.276,506.175,915.108,506.334"/>
					<path fill="#A01A1F" d="M915.599,505.849l-22.795-12.4c0.159-0.163,0.313-0.327,0.465-0.494l22.795,12.4
						C915.913,505.522,915.758,505.687,915.599,505.849"/>
					<path fill="#9C191E" d="M916.064,505.355l-22.795-12.4c0.151-0.167,0.299-0.336,0.443-0.508l22.795,12.4
						C916.363,505.019,916.215,505.188,916.064,505.355"/>
					<path fill="#97191D" d="M916.507,504.847l-22.795-12.4c0.146-0.173,0.287-0.348,0.425-0.526l22.795,12.4
						C916.794,504.499,916.653,504.674,916.507,504.847"/>
					<path fill="#93181D" d="M916.932,504.322l-22.795-12.4c0.141-0.181,0.278-0.364,0.411-0.549l22.795,12.4
						C917.211,503.957,917.074,504.141,916.932,504.322"/>
					<path fill="#8F171C" d="M917.344,503.772l-22.795-12.4c0.047-0.065,0.093-0.131,0.139-0.196l22.795,12.4
						C917.437,503.642,917.391,503.707,917.344,503.772"/>
				</g>
			</g>
			<g enable-background="new    ">
				<defs>
					<path id="SVGID_5_" enable-background="new    " d="M894.916,510.375l-22.795-12.4c2.697,1.467,5.87,1.927,9.643,1.397
						l22.795,12.4C900.786,512.301,897.613,511.842,894.916,510.375z"/>
				</defs>
				<clipPath id="SVGID_6_">
					<use xlink:href="#SVGID_5_"  overflow="visible"/>
				</clipPath>
				<g clip-path="url(#SVGID_6_)" enable-background="new    ">
					<path fill="#BE1F25" d="M894.916,510.375l-22.795-12.4c0.072,0.039,0.144,0.077,0.216,0.115l22.795,12.4
						C895.059,510.452,894.987,510.414,894.916,510.375"/>
					<path fill="#C22026" d="M895.132,510.489l-22.795-12.4c0.246,0.128,0.495,0.247,0.749,0.358l22.795,12.4
						C895.627,510.736,895.377,510.617,895.132,510.489"/>
					<path fill="#C72027" d="M895.88,510.847l-22.795-12.4c0.282,0.124,0.569,0.237,0.862,0.341l22.795,12.4
						C896.45,511.085,896.163,510.971,895.88,510.847"/>
					<path fill="#CB2127" d="M896.742,511.188l-22.795-12.4c0.353,0.125,0.713,0.235,1.081,0.331l22.795,12.4
						C897.455,511.423,897.095,511.313,896.742,511.188"/>
					<path fill="#CF2228" d="M897.823,511.519l-22.795-12.4c0.523,0.136,1.061,0.242,1.615,0.318l22.795,12.4
						C898.884,511.76,898.346,511.655,897.823,511.519"/>
					<path fill="#D42229" d="M899.438,511.837l-22.795-12.4c1.573,0.216,3.275,0.194,5.121-0.066l22.795,12.4
						C902.713,512.031,901.011,512.053,899.438,511.837"/>
				</g>
			</g>
			<g enable-background="new    ">
				<defs>
					<path id="SVGID_7_" enable-background="new    " d="M894.379,511.215l-22.795-12.4c-0.588-0.32-1.146-0.685-1.685-1.095
						l22.795,12.4C893.232,510.53,893.791,510.896,894.379,511.215z"/>
				</defs>
				<clipPath id="SVGID_8_">
					<use xlink:href="#SVGID_7_"  overflow="visible"/>
				</clipPath>
				<g clip-path="url(#SVGID_8_)" enable-background="new    ">
					<path fill="#701216" d="M894.379,511.215l-22.795-12.4c-0.588-0.32-1.146-0.685-1.685-1.095l22.795,12.4
						C893.232,510.53,893.791,510.896,894.379,511.215"/>
				</g>
			</g>
			<g>
				<polygon fill="#6D1215" points="949.686,428.832 926.891,416.432 806.039,324.861 828.834,337.261 				"/>
			</g>
			<g>
				<polygon fill="#6C1215" points="828.834,337.261 806.039,324.861 806.495,81.518 829.29,93.918 				"/>
			</g>
			<g enable-background="new    ">
				<defs>
					<path id="SVGID_9_" enable-background="new    " d="M798.635,66.922l22.795,12.4c4.772,2.596,7.872,7.914,7.859,14.596
						l-22.795-12.4C806.508,74.836,803.408,69.518,798.635,66.922z"/>
				</defs>
				<clipPath id="SVGID_10_">
					<use xlink:href="#SVGID_9_"  overflow="visible"/>
				</clipPath>
				<g clip-path="url(#SVGID_10_)" enable-background="new    ">
					<path fill="#701216" d="M829.29,93.918l-22.795-12.4c0.013-6.683-3.087-12-7.859-14.596l22.795,12.4
						C826.203,81.918,829.302,87.236,829.29,93.918"/>
				</g>
			</g>
			<g enable-background="new    ">
				<defs>
					<path id="SVGID_11_" enable-background="new    " d="M799.118,66.046l22.795,12.4c-2.806-1.526-6.161-2.158-9.8-1.647
						l-22.795-12.4C792.957,63.887,796.312,64.519,799.118,66.046z"/>
				</defs>
				<clipPath id="SVGID_12_">
					<use xlink:href="#SVGID_11_"  overflow="visible"/>
				</clipPath>
				<g clip-path="url(#SVGID_12_)" enable-background="new    ">
					<path fill="#D42229" d="M812.113,76.799l-22.795-12.4c1.608-0.226,3.16-0.229,4.634-0.03l22.795,12.4
						C815.273,76.57,813.721,76.573,812.113,76.799"/>
					<path fill="#CF2228" d="M816.747,76.769l-22.795-12.4c0.604,0.082,1.195,0.197,1.771,0.345l22.795,12.4
						C817.942,76.966,817.351,76.85,816.747,76.769"/>
					<path fill="#CB2127" d="M818.518,77.114l-22.795-12.4c0.425,0.109,0.843,0.236,1.251,0.38l22.795,12.4
						C819.361,77.35,818.944,77.223,818.518,77.114"/>
					<path fill="#C72027" d="M819.77,77.493l-22.795-12.4c0.345,0.121,0.684,0.255,1.017,0.401l22.795,12.4
						C820.454,77.748,820.115,77.615,819.77,77.493"/>
					<path fill="#C22026" d="M820.787,77.894l-22.795-12.4c0.297,0.13,0.59,0.27,0.876,0.418l22.795,12.4
						C821.376,78.164,821.084,78.024,820.787,77.894"/>
					<path fill="#BE1F25" d="M821.663,78.312l-22.795-12.4c0.084,0.044,0.167,0.088,0.251,0.133l22.795,12.4
						C821.83,78.4,821.747,78.356,821.663,78.312"/>
				</g>
			</g>
			<g>
				<polygon fill="#D42229" points="706.124,91.697 683.329,79.297 789.318,64.399 812.113,76.799 				"/>
			</g>
			<g>
				<polygon fill="#6C1215" points="687.763,228.949 664.968,216.549 665.184,101.381 687.979,113.781 				"/>
			</g>
			<g enable-background="new    ">
				<defs>
					<path id="SVGID_13_" enable-background="new    " d="M687.979,113.781l-22.795-12.4c0.021-10.955,7.989-20.657,18.146-22.084
						l22.795,12.4C695.968,93.124,687.999,102.826,687.979,113.781z"/>
				</defs>
				<clipPath id="SVGID_14_">
					<use xlink:href="#SVGID_13_"  overflow="visible"/>
				</clipPath>
				<g clip-path="url(#SVGID_14_)" enable-background="new    ">
					<path fill="#701216" d="M687.979,113.781l-22.795-12.4c0.004-2.048,0.285-4.052,0.807-5.967l22.795,12.4
						C688.264,109.729,687.983,111.733,687.979,113.781"/>
					<path fill="#751317" d="M688.786,107.815l-22.795-12.4c0.159-0.583,0.34-1.158,0.542-1.723l22.795,12.4
						C689.126,106.657,688.945,107.232,688.786,107.815"/>
					<path fill="#791418" d="M689.328,106.092l-22.795-12.4c0.156-0.434,0.324-0.863,0.504-1.286l22.795,12.4
						C689.652,105.229,689.484,105.657,689.328,106.092"/>
					<path fill="#7D1418" d="M689.832,104.806l-22.795-12.4c0.157-0.367,0.322-0.73,0.497-1.087l22.795,12.4
						C690.155,104.076,689.989,104.439,689.832,104.806"/>
					<path fill="#821519" d="M690.329,103.719l-22.795-12.4c0.16-0.328,0.327-0.651,0.502-0.97l22.795,12.4
						C690.656,103.068,690.489,103.391,690.329,103.719"/>
					<path fill="#86161A" d="M690.831,102.749l-22.795-12.4c0.161-0.294,0.328-0.585,0.502-0.871l22.795,12.4
						C691.16,102.164,690.992,102.455,690.831,102.749"/>
					<path fill="#8A161B" d="M691.333,101.878l-22.795-12.4c0.162-0.268,0.33-0.533,0.503-0.794l22.795,12.4
						C691.663,101.345,691.495,101.609,691.333,101.878"/>
					<path fill="#8F171C" d="M691.835,101.084l-22.795-12.4c0.169-0.255,0.342-0.506,0.52-0.753l22.795,12.4
						C692.177,100.578,692.004,100.829,691.835,101.084"/>
					<path fill="#93181D" d="M692.355,100.331l-22.795-12.4c0.169-0.235,0.343-0.467,0.521-0.695l22.795,12.4
						C692.698,99.864,692.524,100.095,692.355,100.331"/>
					<path fill="#97191D" d="M692.875,99.635l-22.795-12.4c0.176-0.226,0.356-0.449,0.54-0.667l22.795,12.4
						C693.231,99.187,693.051,99.409,692.875,99.635"/>
					<path fill="#9C191E" d="M693.415,98.968l-22.795-12.4c0.18-0.214,0.364-0.425,0.551-0.632l22.795,12.4
						C693.779,98.543,693.595,98.754,693.415,98.968"/>
					<path fill="#A01A1F" d="M693.967,98.336l-22.795-12.4c0.187-0.206,0.377-0.409,0.571-0.608l22.795,12.4
						C694.344,97.927,694.153,98.13,693.967,98.336"/>
					<path fill="#A41B20" d="M694.538,97.729l-22.795-12.4c0.193-0.198,0.39-0.392,0.59-0.583l22.795,12.4
						C694.928,97.336,694.731,97.531,694.538,97.729"/>
					<path fill="#A81B21" d="M695.128,97.146l-22.795-12.4c0.202-0.193,0.408-0.381,0.617-0.565l22.795,12.4
						C695.536,96.765,695.33,96.953,695.128,97.146"/>
					<path fill="#AD1C22" d="M695.745,96.581l-22.795-12.4c0.21-0.186,0.424-0.367,0.641-0.544l22.795,12.4
						C696.169,96.214,695.955,96.395,695.745,96.581"/>
					<path fill="#B11D22" d="M696.386,96.037l-22.795-12.4c0.225-0.184,0.454-0.362,0.686-0.536l22.795,12.4
						C696.84,95.674,696.611,95.853,696.386,96.037"/>
					<path fill="#B51D23" d="M697.072,95.5l-22.795-12.4c0.235-0.176,0.474-0.348,0.716-0.514l22.795,12.4
						C697.546,95.153,697.307,95.324,697.072,95.5"/>
					<path fill="#BA1E24" d="M697.788,94.986l-22.795-12.4c0.259-0.178,0.523-0.35,0.789-0.516l22.795,12.4
						C698.31,94.636,698.047,94.808,697.788,94.986"/>
					<path fill="#BE1F25" d="M698.577,94.47l-22.795-12.4c0.281-0.175,0.566-0.343,0.855-0.504l22.795,12.4
						C699.143,94.127,698.858,94.295,698.577,94.47"/>
					<path fill="#C22026" d="M699.432,93.966l-22.795-12.4c0.307-0.171,0.619-0.334,0.935-0.489l22.795,12.4
						C700.051,93.631,699.739,93.795,699.432,93.966"/>
					<path fill="#C72027" d="M700.367,93.477l-22.795-12.4c0.366-0.18,0.738-0.348,1.115-0.505l22.795,12.4
						C701.105,93.128,700.733,93.297,700.367,93.477"/>
					<path fill="#CB2127" d="M701.482,92.972l-22.795-12.4c0.446-0.186,0.9-0.355,1.36-0.507l22.795,12.4
						C702.382,92.617,701.928,92.786,701.482,92.972"/>
					<path fill="#CF2228" d="M702.841,92.465l-22.795-12.4c0.626-0.207,1.265-0.382,1.914-0.523l22.795,12.4
						C704.106,92.083,703.468,92.258,702.841,92.465"/>
					<path fill="#D42229" d="M704.755,91.942l-22.795-12.4c0.452-0.098,0.908-0.18,1.369-0.245l22.795,12.4
						C705.663,91.762,705.207,91.843,704.755,91.942"/>
				</g>
			</g>
			<g>
				<polygon fill="#6D1215" points="892.694,510.12 869.899,497.72 488.834,207.813 511.629,220.213 				"/>
			</g>
			<g>
				<polygon fill="#6D1215" points="688.647,230.884 665.852,218.484 530.657,115.305 553.452,127.705 				"/>
			</g>
			<g enable-background="new    ">
				<defs>
					<path id="SVGID_15_" enable-background="new    " d="M524.562,111.365l22.795,12.4c2.133,1.16,4.169,2.475,6.095,3.94
						l-22.795-12.4C528.731,113.84,526.695,112.525,524.562,111.365z"/>
				</defs>
				<clipPath id="SVGID_16_">
					<use xlink:href="#SVGID_15_"  overflow="visible"/>
				</clipPath>
				<g clip-path="url(#SVGID_16_)" enable-background="new    ">
					<path fill="#701216" d="M553.452,127.705l-22.795-12.4c-1.926-1.465-3.962-2.78-6.095-3.94l22.795,12.4
						C549.49,124.925,551.526,126.24,553.452,127.705"/>
				</g>
			</g>
			<g enable-background="new    ">
				<defs>
					<path id="SVGID_17_" enable-background="new    " d="M525.067,110.495l22.795,12.4c-10.32-5.614-22.856-7.678-36.039-5.825
						c-15.949,2.242-30.962,9.945-42.276,21.682l-22.795-12.4c11.314-11.737,26.326-19.441,42.276-21.682
						C502.211,102.817,514.747,104.881,525.067,110.495z"/>
				</defs>
				<clipPath id="SVGID_18_">
					<use xlink:href="#SVGID_17_"  overflow="visible"/>
				</clipPath>
				<g clip-path="url(#SVGID_18_)" enable-background="new    ">
					<path fill="#A01A1F" d="M469.547,138.753l-22.795-12.4c0.1-0.104,0.201-0.208,0.302-0.312l22.795,12.4
						C469.748,138.545,469.647,138.649,469.547,138.753"/>
					<path fill="#A41B20" d="M469.849,138.441l-22.795-12.4c0.634-0.65,1.28-1.288,1.937-1.913l22.795,12.4
						C471.129,137.153,470.483,137.791,469.849,138.441"/>
					<path fill="#A81B21" d="M471.786,136.528l-22.795-12.4c0.67-0.638,1.352-1.263,2.045-1.874l22.795,12.4
						C473.138,135.266,472.456,135.89,471.786,136.528"/>
					<path fill="#AD1C22" d="M473.831,134.655l-22.795-12.4c0.713-0.629,1.437-1.243,2.173-1.843l22.795,12.4
						C475.268,133.412,474.544,134.026,473.831,134.655"/>
					<path fill="#B11D22" d="M476.004,132.812l-22.795-12.4c0.763-0.622,1.538-1.229,2.324-1.819l22.795,12.4
						C477.542,131.583,476.767,132.19,476.004,132.812"/>
					<path fill="#B51D23" d="M478.328,130.993l-22.795-12.4c0.826-0.62,1.664-1.222,2.514-1.806l22.795,12.4
						C479.992,129.771,479.154,130.373,478.328,130.993"/>
					<path fill="#BA1E24" d="M480.842,129.187l-22.795-12.4c0.908-0.624,1.829-1.226,2.762-1.808l22.795,12.4
						C482.671,127.961,481.75,128.563,480.842,129.187"/>
					<path fill="#BE1F25" d="M483.604,127.379l-22.795-12.4c1.002-0.625,2.019-1.225,3.049-1.8l22.795,12.4
						C485.623,126.154,484.606,126.754,483.604,127.379"/>
					<path fill="#C22026" d="M486.653,125.579l-22.795-12.4c1.146-0.64,2.309-1.249,3.487-1.827l22.795,12.4
						C488.962,124.33,487.799,124.939,486.653,125.579"/>
					<path fill="#C72027" d="M490.14,123.752l-22.795-12.4c1.34-0.657,2.698-1.272,4.074-1.845l22.795,12.4
						C492.838,122.48,491.479,123.096,490.14,123.752"/>
					<path fill="#CB2127" d="M494.214,121.907l-22.795-12.4c1.665-0.694,3.354-1.325,5.065-1.893l22.795,12.4
						C497.568,120.582,495.879,121.213,494.214,121.907"/>
					<path fill="#CF2228" d="M499.279,120.014l-22.795-12.4c2.386-0.792,4.814-1.46,7.272-1.997l22.795,12.4
						C504.093,118.554,501.666,119.222,499.279,120.014"/>
					<path fill="#D42229" d="M506.551,118.017l-22.795-12.4c1.743-0.381,3.502-0.697,5.272-0.946
						c6.074-0.854,12.01-0.876,17.656-0.103l22.795,12.4c-5.646-0.773-11.582-0.751-17.656,0.103
						C510.053,117.319,508.294,117.635,506.551,118.017"/>
					<path fill="#CF2228" d="M529.478,116.968l-22.795-12.4c2.233,0.306,4.421,0.736,6.554,1.289l22.795,12.4
						C533.899,117.704,531.712,117.273,529.478,116.968"/>
					<path fill="#CB2127" d="M536.032,118.256l-22.795-12.4c1.517,0.393,3.007,0.848,4.465,1.364l22.795,12.4
						C539.039,119.105,537.549,118.65,536.032,118.256"/>
					<path fill="#C72027" d="M540.497,119.621l-22.795-12.4c1.197,0.424,2.374,0.889,3.527,1.394l22.795,12.4
						C542.871,120.509,541.694,120.044,540.497,119.621"/>
					<path fill="#C22026" d="M544.024,121.015l-22.795-12.4c1.015,0.445,2.012,0.921,2.99,1.429l22.795,12.4
						C546.036,121.937,545.039,121.46,544.024,121.015"/>
					<path fill="#BE1F25" d="M547.014,122.444l-22.795-12.4c0.284,0.148,0.567,0.298,0.848,0.451l22.795,12.4
						C547.581,122.742,547.298,122.592,547.014,122.444"/>
				</g>
			</g>
			<g>
				<polygon fill="#A01A1F" points="128.735,616.743 105.94,604.343 488.837,206.567 511.632,218.967 				"/>
			</g>
			<g enable-background="new    ">
				<defs>
					<path id="SVGID_19_" enable-background="new    " d="M115.791,622.642l-22.795-12.4c5.57-0.673,9.324-2.607,12.944-5.898
						l22.795,12.4C125.115,620.035,121.361,621.969,115.791,622.642z"/>
				</defs>
				<clipPath id="SVGID_20_">
					<use xlink:href="#SVGID_19_"  overflow="visible"/>
				</clipPath>
				<g clip-path="url(#SVGID_20_)" enable-background="new    ">
					<path fill="#D42229" d="M115.791,622.642l-22.795-12.4c0.928-0.112,1.805-0.259,2.639-0.441l22.795,12.4
						C117.595,622.383,116.718,622.53,115.791,622.642"/>
					<path fill="#CF2228" d="M118.43,622.2l-22.795-12.4c0.812-0.177,1.584-0.389,2.322-0.633l22.795,12.4
						C120.014,621.812,119.242,622.023,118.43,622.2"/>
					<path fill="#CB2127" d="M120.752,621.567l-22.795-12.4c0.494-0.164,0.973-0.343,1.44-0.537l22.795,12.4
						C121.725,621.224,121.246,621.403,120.752,621.567"/>
					<path fill="#C72027" d="M122.192,621.03l-22.795-12.4c0.378-0.158,0.748-0.325,1.111-0.503l22.795,12.4
						C122.94,620.704,122.57,620.872,122.192,621.03"/>
					<path fill="#C22026" d="M123.303,620.526l-22.795-12.4c0.323-0.158,0.64-0.325,0.952-0.499l22.795,12.4
						C123.943,620.202,123.626,620.368,123.303,620.526"/>
					<path fill="#BE1F25" d="M124.255,620.027l-22.795-12.4c0.29-0.162,0.575-0.331,0.857-0.506l22.795,12.4
						C124.83,619.697,124.545,619.866,124.255,620.027"/>
					<path fill="#BA1E24" d="M125.112,619.521l-22.795-12.4c0.274-0.171,0.545-0.348,0.813-0.533l22.795,12.4
						C125.657,619.173,125.387,619.35,125.112,619.521"/>
					<path fill="#B51D23" d="M125.925,618.988l-22.795-12.4c0.269-0.185,0.534-0.376,0.798-0.574l22.795,12.4
						C126.46,618.613,126.194,618.804,125.925,618.988"/>
					<path fill="#B11D22" d="M126.723,618.415l-22.795-12.4c0.272-0.204,0.541-0.415,0.808-0.633l22.795,12.4
						C127.264,618,126.995,618.211,126.723,618.415"/>
					<path fill="#AD1C22" d="M127.532,617.781l-22.795-12.4c0.286-0.233,0.57-0.474,0.852-0.724l22.795,12.4
						C128.101,617.307,127.817,617.548,127.532,617.781"/>
					<path fill="#A81B21" d="M128.384,617.058l-22.795-12.4c0.117-0.103,0.234-0.208,0.351-0.314l22.795,12.4
						C128.618,616.849,128.501,616.954,128.384,617.058"/>
				</g>
			</g>
			<g enable-background="new    ">
				<defs>
					<path id="SVGID_21_" enable-background="new    " d="M108.163,620.77l-22.795-12.4c2.244,1.221,4.892,1.89,7.628,1.872
						l22.795,12.4C113.055,622.66,110.406,621.991,108.163,620.77z"/>
				</defs>
				<clipPath id="SVGID_22_">
					<use xlink:href="#SVGID_21_"  overflow="visible"/>
				</clipPath>
				<g clip-path="url(#SVGID_22_)" enable-background="new    ">
					<path fill="#BE1F25" d="M108.163,620.77l-22.795-12.4c0.082,0.045,0.165,0.089,0.249,0.132l22.795,12.4
						C108.328,620.859,108.245,620.815,108.163,620.77"/>
					<path fill="#C22026" d="M108.411,620.902l-22.795-12.4c0.286,0.148,0.577,0.288,0.875,0.418l22.795,12.4
						C108.989,621.19,108.697,621.051,108.411,620.902"/>
					<path fill="#C72027" d="M109.286,621.321l-22.795-12.4c0.339,0.149,0.686,0.286,1.039,0.411l22.795,12.4
						C109.972,621.606,109.625,621.469,109.286,621.321"/>
					<path fill="#CB2127" d="M110.325,621.731l-22.795-12.4c0.423,0.15,0.856,0.282,1.296,0.396l22.795,12.4
						C111.181,622.013,110.748,621.881,110.325,621.731"/>
					<path fill="#CF2228" d="M111.621,622.127l-22.795-12.4c0.604,0.156,1.222,0.279,1.85,0.365l22.795,12.4
						C112.843,622.406,112.225,622.284,111.621,622.127"/>
					<path fill="#D42229" d="M113.471,622.492l-22.795-12.4c0.761,0.104,1.537,0.155,2.32,0.15l22.795,12.4
						C115.008,622.647,114.232,622.596,113.471,622.492"/>
				</g>
			</g>
			<g enable-background="new    ">
				<defs>
					<path id="SVGID_23_" enable-background="new    " d="M107.372,621.414l-22.795-12.4c-1.41-0.767-2.59-1.73-3.562-2.854
						l22.795,12.4C104.781,619.684,105.961,620.647,107.372,621.414z"/>
				</defs>
				<clipPath id="SVGID_24_">
					<use xlink:href="#SVGID_23_"  overflow="visible"/>
				</clipPath>
				<g clip-path="url(#SVGID_24_)" enable-background="new    ">
					<path fill="#701216" d="M107.372,621.414l-22.795-12.4c-1.41-0.767-2.59-1.73-3.562-2.854l22.795,12.4
						C104.781,619.684,105.961,620.647,107.372,621.414"/>
				</g>
			</g>
			<g>
				<polygon fill="#6D1215" points="103.81,618.56 81.015,606.16 46.869,566.884 69.664,579.284 				"/>
			</g>
			<g>
				<polygon fill="#A01A1F" points="71.983,551.469 49.188,539.069 446.752,126.353 469.547,138.753 				"/>
			</g>
			<g>
				<path fill="#D52229" d="M950.256,428.018c7.382,5.714,8.416,18.413,2.208,27.178l-34.3,48.897
					c-2.771,3.969-7.213,7.107-11.891,8.397c-6.505,0.914-10.387,0.059-13.578-2.371L511.629,220.213L129.278,617.427
					c-3.804,3.456-7.707,5.473-11.649,6.027c-6.621,0.188-11.061-1.702-13.819-4.894l-34.146-39.276
					c-6.165-7.026-5.084-20.023,2.318-27.814l397.564-412.717c11.314-11.737,26.326-19.441,42.276-21.682
					c15.939-2.24,30.933,1.245,42.206,9.807l133.734,102.072l0.216-115.168c0.021-10.955,7.989-20.657,18.146-22.084l105.989-14.898
					c10.149-1.427,18.088,6.039,18.067,16.994l-0.455,242.893L950.256,428.018z M951.792,454.669
					c5.893-8.331,4.908-20.399-2.105-25.837l-120.852-91.572l0.456-243.342c0.02-10.418-7.525-17.518-17.179-16.161L706.123,92.655
					c-9.659,1.358-17.237,10.584-17.256,21.002l-0.22,117.228l-135.195-103.18c-11.106-8.45-25.899-11.885-41.631-9.674
					c-15.74,2.212-30.553,9.809-41.697,21.386L72.552,552.124c-7.035,7.413-8.066,19.764-2.195,26.441l34.135,39.286
					c2.622,3.027,6.845,4.82,11.299,4.79c5.57-0.673,9.324-2.607,12.944-5.899l382.897-397.776l381.631,290.339
					c3.031,2.297,6.722,3.109,11.295,2.466c6.064-1.448,10.29-4.429,12.925-8.195L951.792,454.669"/>
			</g>
			<g enable-background="new    ">
				<defs>
					<path id="SVGID_25_" enable-background="new    " d="M69.664,579.284l-22.795-12.4c-6.165-7.026-5.084-20.023,2.318-27.814
						l22.795,12.4C64.58,559.261,63.499,572.258,69.664,579.284z"/>
				</defs>
				<clipPath id="SVGID_26_">
					<use xlink:href="#SVGID_25_"  overflow="visible"/>
				</clipPath>
				<g clip-path="url(#SVGID_26_)" enable-background="new    ">
					<path fill="#701216" d="M69.664,579.284l-22.795-12.4c-3.958-4.511-4.93-11.483-3.159-17.959l22.795,12.4
						C64.735,567.801,65.706,574.773,69.664,579.284"/>
					<path fill="#751317" d="M66.506,561.325l-22.795-12.4c0.165-0.604,0.354-1.204,0.567-1.797l22.795,12.4
						C66.86,560.121,66.671,560.721,66.506,561.325"/>
					<path fill="#791418" d="M67.073,559.528l-22.795-12.4c0.161-0.449,0.336-0.895,0.524-1.335l22.795,12.4
						C67.409,558.633,67.234,559.078,67.073,559.528"/>
					<path fill="#7D1418" d="M67.597,558.193l-22.795-12.4c0.157-0.368,0.324-0.732,0.5-1.092l22.795,12.4
						C67.921,557.46,67.754,557.825,67.597,558.193"/>
					<path fill="#821519" d="M68.097,557.1l-22.795-12.4c0.159-0.325,0.325-0.648,0.5-0.966l22.795,12.4
						C68.422,556.453,68.256,556.775,68.097,557.1"/>
					<path fill="#86161A" d="M68.596,556.134l-22.795-12.4c0.163-0.297,0.332-0.592,0.508-0.882l22.795,12.4
						C68.928,555.543,68.759,555.837,68.596,556.134"/>
					<path fill="#8A161B" d="M69.104,555.252l-22.795-12.4c0.157-0.259,0.319-0.516,0.486-0.769l22.795,12.4
						C69.423,554.737,69.261,554.993,69.104,555.252"/>
					<path fill="#8F171C" d="M69.59,554.483l-22.795-12.4c0.163-0.247,0.331-0.491,0.505-0.732l22.795,12.4
						C69.922,553.992,69.754,554.236,69.59,554.483"/>
					<path fill="#93181D" d="M70.095,553.752l-22.795-12.4c0.163-0.226,0.33-0.45,0.501-0.67l22.795,12.4
						C70.425,553.302,70.258,553.525,70.095,553.752"/>
					<path fill="#97191D" d="M70.596,553.082l-22.795-12.4c0.168-0.216,0.34-0.429,0.516-0.638l22.795,12.4
						C70.936,552.653,70.764,552.866,70.596,553.082"/>
					<path fill="#9C191E" d="M71.113,552.443l-22.795-12.4c0.17-0.203,0.344-0.402,0.522-0.599l22.795,12.4
						C71.457,552.041,71.283,552.241,71.113,552.443"/>
					<path fill="#A01A1F" d="M71.635,551.845l-22.795-12.4c0.114-0.126,0.23-0.251,0.348-0.375l22.795,12.4
						C71.865,551.593,71.749,551.718,71.635,551.845"/>
				</g>
			</g>
		</g>
	</g>
</g>
<g>
	<g>
		<g enable-background="new    ">
			<g enable-background="new    ">
				<defs>
					<path id="SVGID_27_" enable-background="new    " d="M793.453,851.568l-22.795-12.4c19.24-2.704,34.914-21.788,34.953-42.557
						l22.795,12.4C828.367,829.78,812.694,848.864,793.453,851.568z"/>
				</defs>
				<clipPath id="SVGID_28_">
					<use xlink:href="#SVGID_27_"  overflow="visible"/>
				</clipPath>
				<g clip-path="url(#SVGID_28_)" enable-background="new    ">
					<path fill="#D42229" d="M793.453,851.568l-22.795-12.4c0.836-0.118,1.666-0.266,2.488-0.444l22.795,12.4
						C795.119,851.302,794.29,851.451,793.453,851.568"/>
					<path fill="#CF2228" d="M795.941,851.124l-22.795-12.4c1.216-0.264,2.415-0.593,3.595-0.983l22.795,12.4
						C798.357,850.531,797.157,850.86,795.941,851.124"/>
					<path fill="#CB2127" d="M799.536,850.141l-22.795-12.4c0.866-0.286,1.72-0.606,2.563-0.956l22.795,12.4
						C801.256,849.536,800.401,849.855,799.536,850.141"/>
					<path fill="#C72027" d="M802.098,849.185l-22.795-12.4c0.706-0.294,1.404-0.61,2.092-0.947l22.795,12.4
						C803.502,848.575,802.805,848.891,802.098,849.185"/>
					<path fill="#C22026" d="M804.191,848.237l-22.795-12.4c0.61-0.299,1.213-0.614,1.808-0.946l22.795,12.4
						C805.403,847.623,804.801,847.939,804.191,848.237"/>
					<path fill="#BE1F25" d="M805.998,847.292l-22.795-12.4c0.56-0.312,1.114-0.638,1.659-0.978l22.795,12.4
						C807.112,846.653,806.559,846.98,805.998,847.292"/>
					<path fill="#BA1E24" d="M807.658,846.313l-22.795-12.4c0.514-0.32,1.021-0.652,1.522-0.996l22.795,12.4
						C808.679,845.661,808.172,845.993,807.658,846.313"/>
					<path fill="#B51D23" d="M809.18,845.318l-22.795-12.4c0.475-0.326,0.944-0.663,1.406-1.009l22.795,12.4
						C810.123,844.655,809.654,844.991,809.18,845.318"/>
					<path fill="#B11D22" d="M810.585,844.308l-22.795-12.4c0.455-0.341,0.903-0.692,1.344-1.052l22.795,12.4
						C811.488,843.616,811.04,843.967,810.585,844.308"/>
					<path fill="#AD1C22" d="M811.93,843.256l-22.795-12.4c0.427-0.348,0.847-0.704,1.261-1.069l22.795,12.4
						C812.777,842.552,812.356,842.908,811.93,843.256"/>
					<path fill="#A81B21" d="M813.191,842.187l-22.795-12.4c0.412-0.364,0.818-0.736,1.218-1.116l22.795,12.4
						C814.009,841.451,813.603,841.823,813.191,842.187"/>
					<path fill="#A41B20" d="M814.408,841.071l-22.795-12.4c0.396-0.376,0.785-0.761,1.167-1.153l22.795,12.4
						C815.193,840.31,814.804,840.695,814.408,841.071"/>
					<path fill="#A01A1F" d="M815.575,839.918l-22.795-12.4c0.384-0.394,0.761-0.795,1.131-1.203l22.795,12.4
						C816.336,839.123,815.959,839.525,815.575,839.918"/>
					<path fill="#9C191E" d="M816.707,838.715l-22.795-12.4c0.372-0.41,0.736-0.828,1.094-1.253l22.795,12.4
						C817.443,837.887,817.078,838.304,816.707,838.715"/>
					<path fill="#97191D" d="M817.8,837.462l-22.795-12.4c0.365-0.434,0.721-0.875,1.07-1.323l22.795,12.4
						C818.521,836.587,818.165,837.028,817.8,837.462"/>
					<path fill="#93181D" d="M818.87,836.139l-22.795-12.4c0.352-0.452,0.696-0.912,1.032-1.378l22.795,12.4
						C819.567,835.227,819.223,835.686,818.87,836.139"/>
					<path fill="#8F171C" d="M819.902,834.761l-22.795-12.4c0.352-0.489,0.695-0.986,1.029-1.49l22.795,12.4
						C820.597,833.774,820.254,834.271,819.902,834.761"/>
					<path fill="#8A161B" d="M820.931,833.27l-22.795-12.4c0.342-0.517,0.674-1.042,0.996-1.574l22.795,12.4
						C821.605,832.228,821.273,832.753,820.931,833.27"/>
					<path fill="#86161A" d="M821.927,831.696l-22.795-12.4c0.34-0.562,0.668-1.131,0.984-1.708l22.795,12.4
						C822.595,830.565,822.267,831.135,821.927,831.696"/>
					<path fill="#821519" d="M822.911,829.988l-22.795-12.4c0.343-0.627,0.673-1.263,0.987-1.906l22.795,12.4
						C823.583,828.725,823.254,829.361,822.911,829.988"/>
					<path fill="#7D1418" d="M823.898,828.082l-22.795-12.4c0.342-0.701,0.667-1.412,0.974-2.131l22.795,12.4
						C824.565,826.67,824.24,827.38,823.898,828.082"/>
					<path fill="#791418" d="M824.872,825.95l-22.795-12.4c0.351-0.824,0.679-1.66,0.981-2.505l22.795,12.4
						C825.55,824.291,825.223,825.126,824.872,825.95"/>
					<path fill="#751317" d="M825.853,823.445l-22.795-12.4c0.388-1.086,0.736-2.189,1.04-3.306l22.795,12.4
						C826.588,821.256,826.241,822.359,825.853,823.445"/>
					<path fill="#701216" d="M826.892,820.139l-22.795-12.4c0.978-3.593,1.507-7.332,1.514-11.127l22.795,12.4
						C828.399,812.807,827.87,816.546,826.892,820.139"/>
				</g>
			</g>
			<g>
				<polygon fill="#6C1215" points="828.406,809.012 805.611,796.612 806.147,510.6 828.942,523 				"/>
			</g>
			<g enable-background="new    ">
				<defs>
					<path id="SVGID_29_" enable-background="new    " d="M828.942,523l-22.795-12.4c0.002-1.13,0.004-2.212-0.458-3.203
						l22.795,12.4C828.946,520.788,828.944,521.869,828.942,523z"/>
				</defs>
				<clipPath id="SVGID_30_">
					<use xlink:href="#SVGID_29_"  overflow="visible"/>
				</clipPath>
				<g clip-path="url(#SVGID_30_)" enable-background="new    ">
					<path fill="#701216" d="M828.942,523l-22.795-12.4c0.002-1.13,0.004-2.212-0.458-3.203l22.795,12.4
						C828.946,520.788,828.944,521.869,828.942,523"/>
				</g>
			</g>
			<g>
				<polygon fill="#D42229" points="581.925,881.301 559.13,868.901 770.658,839.168 793.453,851.568 				"/>
			</g>
			<g>
				<polygon fill="#6C1215" points="581.036,882.395 558.241,869.995 558.669,641.179 581.464,653.579 				"/>
			</g>
			<g>
				<polygon fill="#6C1215" points="439.723,901.289 416.928,888.889 417.356,660.084 440.151,672.484 				"/>
			</g>
			<g>
				<polygon fill="#D42229" points="440.151,672.484 417.356,660.084 559.559,640.096 582.354,652.496 				"/>
			</g>
			<g>
				<polygon fill="#D42229" points="228.197,931.022 205.402,918.622 416.928,888.889 439.723,901.289 				"/>
			</g>
			<g enable-background="new    ">
				<defs>
					<path id="SVGID_31_" enable-background="new    " d="M209.585,927.817l-22.795-12.4c5.384,2.929,11.769,4.167,18.612,3.205
						l22.795,12.4C221.354,931.984,214.97,930.746,209.585,927.817z"/>
				</defs>
				<clipPath id="SVGID_32_">
					<use xlink:href="#SVGID_31_"  overflow="visible"/>
				</clipPath>
				<g clip-path="url(#SVGID_32_)" enable-background="new    ">
					<path fill="#BE1F25" d="M209.585,927.817l-22.795-12.4c0.165,0.09,0.332,0.178,0.499,0.265l22.795,12.4
						C209.917,927.995,209.751,927.907,209.585,927.817"/>
					<path fill="#C22026" d="M210.084,928.082l-22.795-12.4c0.557,0.289,1.123,0.56,1.7,0.812l22.795,12.4
						C211.208,928.642,210.641,928.371,210.084,928.082"/>
					<path fill="#C72027" d="M211.785,928.894l-22.795-12.4c0.648,0.284,1.309,0.545,1.981,0.781l22.795,12.4
						C213.094,929.439,212.433,929.178,211.785,928.894"/>
					<path fill="#CB2127" d="M213.766,929.676l-22.795-12.4c0.79,0.278,1.596,0.523,2.417,0.734l22.795,12.4
						C215.362,930.199,214.556,929.954,213.766,929.676"/>
					<path fill="#CF2228" d="M216.183,930.41l-22.795-12.4c1.095,0.281,2.216,0.501,3.36,0.656l22.795,12.4
						C218.399,930.911,217.278,930.691,216.183,930.41"/>
					<path fill="#D42229" d="M219.543,931.066l-22.795-12.4c2.767,0.376,5.667,0.375,8.654-0.044l22.795,12.4
						C225.21,931.442,222.31,931.442,219.543,931.066"/>
				</g>
			</g>
			<g enable-background="new    ">
				<defs>
					<path id="SVGID_33_" enable-background="new    " d="M209.115,928.704l-22.795-12.4c-10.007-5.443-16.648-16.582-16.622-30.307
						l22.795,12.4C192.467,912.122,199.108,923.261,209.115,928.704z"/>
				</defs>
				<clipPath id="SVGID_34_">
					<use xlink:href="#SVGID_33_"  overflow="visible"/>
				</clipPath>
				<g clip-path="url(#SVGID_34_)" enable-background="new    ">
					<path fill="#701216" d="M209.115,928.704l-22.795-12.4c-10.007-5.443-16.648-16.582-16.622-30.307l22.795,12.4
						C192.467,912.122,199.108,923.261,209.115,928.704"/>
				</g>
			</g>
			<g>
				<polygon fill="#6D1215" points="828.484,519.797 805.689,507.397 489.175,269.833 511.97,282.233 				"/>
			</g>
			<g>
				<polygon fill="#A01A1F" points="193.028,612.385 170.233,599.985 489.177,268.596 511.972,280.996 				"/>
			</g>
			<g>
				<path fill="#D52229" d="M829.198,519.084c0.639,1.292,0.637,2.565,0.634,3.791l-0.536,286.012
					c-0.04,21.297-16.115,40.877-35.845,43.651l-212.416,29.858l0.429-228.816L441.04,673.317l-0.429,228.816l-212.416,29.858
					c-19.73,2.773-35.742-12.297-35.703-33.594l0.536-286.012l318.944-331.389L829.198,519.084z M828.406,809.012L828.942,523
					c0.002-1.13,0.004-2.212-0.458-3.203L511.97,282.233l-317.5,326.606l-1.087,289.433c-0.039,20.769,15.574,35.454,34.814,32.75
					l211.526-29.732l0.429-228.805l142.202-19.988l-0.429,228.805l211.528-29.733C812.694,848.864,828.367,829.78,828.406,809.012"
					/>
			</g>
			<g>
				<polygon fill="#6C1215" points="192.492,898.397 169.697,885.997 170.233,599.985 193.028,612.385 				"/>
			</g>
		</g>
	</g>
</g>
</svg>
