<?xml version="1.0" encoding="utf-8"?>
<!-- Generator: Adobe Illustrator 17.0.0, SVG Export Plug-In . SVG Version: 6.00 Build 0)  -->
<!DOCTYPE svg PUBLIC "-//W3C//DTD SVG 1.1//EN" "http://www.w3.org/Graphics/SVG/1.1/DTD/svg11.dtd">
<svg version="1.1" id="Layer_1" xmlns="http://www.w3.org/2000/svg" xmlns:xlink="http://www.w3.org/1999/xlink" x="0px" y="0px"
	 width="1000px" height="1000px" viewBox="0 0 1000 1000" enable-background="new 0 0 1000 1000" xml:space="preserve">
<g>
	<g>
		<g enable-background="new    ">
			<g enable-background="new    ">
				<defs>
					<path id="SVGID_1_" enable-background="new    " d="M868.999,825.588l-22.795-12.4c39.193-5.509,71.136-44.414,71.215-86.711
						l22.795,12.4C940.134,781.174,908.192,820.079,868.999,825.588z"/>
				</defs>
				<clipPath id="SVGID_2_">
					<use xlink:href="#SVGID_1_"  overflow="visible"/>
				</clipPath>
				<g clip-path="url(#SVGID_2_)" enable-background="new    ">
					<path fill="#D42229" d="M868.999,825.588l-22.795-12.4c1.702-0.239,3.39-0.541,5.063-0.904l22.795,12.4
						C872.389,825.046,870.701,825.348,868.999,825.588"/>
					<path fill="#CF2228" d="M874.061,824.684l-22.795-12.4c2.477-0.537,4.919-1.207,7.32-2.001l22.795,12.4
						C878.98,823.477,876.538,824.146,874.061,824.684"/>
					<path fill="#CB2127" d="M881.382,822.682l-22.795-12.4c1.763-0.583,3.503-1.234,5.219-1.948l22.795,12.4
						C884.885,821.449,883.144,822.099,881.382,822.682"/>
					<path fill="#C72027" d="M886.6,820.734l-22.795-12.4c1.438-0.599,2.858-1.242,4.26-1.929l22.795,12.4
						C889.459,819.492,888.038,820.136,886.6,820.734"/>
					<path fill="#C22026" d="M890.86,818.805l-22.795-12.4c1.243-0.609,2.471-1.252,3.683-1.927l22.795,12.4
						C893.331,817.554,892.103,818.197,890.86,818.805"/>
					<path fill="#BE1F25" d="M894.544,816.878l-22.795-12.4c1.141-0.636,2.269-1.301,3.381-1.994l22.795,12.4
						C896.812,815.578,895.685,816.243,894.544,816.878"/>
					<path fill="#BA1E24" d="M897.925,814.885l-22.795-12.4c1.047-0.652,2.081-1.328,3.1-2.029l22.795,12.4
						C900.005,813.557,898.972,814.233,897.925,814.885"/>
					<path fill="#B51D23" d="M901.025,812.856l-22.795-12.4c0.968-0.665,1.923-1.351,2.865-2.057l22.795,12.4
						C902.948,811.506,901.993,812.192,901.025,812.856"/>
					<path fill="#B11D22" d="M903.89,810.799l-22.795-12.4c0.926-0.695,1.84-1.41,2.74-2.144l22.795,12.4
						C905.73,809.389,904.817,810.104,903.89,810.799"/>
					<path fill="#AD1C22" d="M906.63,808.655l-22.795-12.4c0.869-0.709,1.726-1.436,2.57-2.18l22.795,12.4
						C908.357,807.219,907.5,807.946,906.63,808.655"/>
					<path fill="#A81B21" d="M909.2,806.475l-22.795-12.4c0.841-0.741,1.668-1.499,2.482-2.274l22.795,12.4
						C910.868,804.976,910.041,805.734,909.2,806.475"/>
					<path fill="#A41B20" d="M911.682,804.201l-22.795-12.4c0.806-0.767,1.599-1.551,2.379-2.35l22.795,12.4
						C913.282,802.65,912.489,803.434,911.682,804.201"/>
					<path fill="#A01A1F" d="M914.061,801.851l-22.795-12.4c0.783-0.802,1.551-1.62,2.306-2.453l22.795,12.4
						C915.613,800.231,914.844,801.049,914.061,801.851"/>
					<path fill="#9C191E" d="M916.367,799.398l-22.795-12.4c0.758-0.837,1.501-1.688,2.229-2.555l22.795,12.4
						C917.868,797.71,917.125,798.561,916.367,799.398"/>
					<path fill="#97191D" d="M918.596,796.843l-22.795-12.4c0.743-0.884,1.471-1.784,2.182-2.697l22.795,12.4
						C920.067,795.06,919.34,795.959,918.596,796.843"/>
					<path fill="#93181D" d="M920.779,794.146l-22.795-12.4c0.718-0.922,1.419-1.859,2.104-2.81l22.795,12.4
						C922.198,792.287,921.497,793.224,920.779,794.146"/>
					<path fill="#8F171C" d="M922.882,791.336l-22.795-12.4c0.718-0.998,1.417-2.01,2.097-3.038l22.795,12.4
						C924.299,789.326,923.6,790.339,922.882,791.336"/>
					<path fill="#8A161B" d="M924.979,788.298l-22.795-12.4c0.698-1.055,1.375-2.124,2.03-3.209l22.795,12.4
						C926.354,786.174,925.677,787.244,924.979,788.298"/>
					<path fill="#86161A" d="M927.01,785.09l-22.795-12.4c0.693-1.145,1.361-2.306,2.006-3.483l22.795,12.4
						C928.371,782.783,927.702,783.945,927.01,785.09"/>
					<path fill="#821519" d="M929.015,781.607l-22.795-12.4c0.7-1.278,1.371-2.574,2.012-3.886l22.795,12.4
						C930.386,779.033,929.715,780.329,929.015,781.607"/>
					<path fill="#7D1418" d="M931.027,777.721l-22.795-12.4c0.698-1.429,1.36-2.878,1.985-4.344l22.795,12.4
						C932.387,774.843,931.725,776.292,931.027,777.721"/>
					<path fill="#791418" d="M933.012,773.377l-22.795-12.4c0.716-1.68,1.383-3.383,2-5.106l22.795,12.4
						C934.395,769.994,933.728,771.697,933.012,773.377"/>
					<path fill="#751317" d="M935.012,768.271l-22.795-12.4c0.791-2.213,1.499-4.46,2.118-6.736l22.795,12.4
						C936.511,763.811,935.803,766.058,935.012,768.271"/>
					<path fill="#701216" d="M937.13,761.535l-22.795-12.4c1.991-7.318,3.069-14.931,3.083-22.658l22.795,12.4
						C940.199,746.603,939.121,754.217,937.13,761.535"/>
				</g>
			</g>
			<g enable-background="new    ">
				<defs>
					<path id="SVGID_3_" enable-background="new    " d="M869.114,763.825l-22.795-12.4c7.386-1.038,13.87-8.942,13.885-16.906
						l22.795,12.4C882.985,754.882,876.501,762.786,869.114,763.825z"/>
				</defs>
				<clipPath id="SVGID_4_">
					<use xlink:href="#SVGID_3_"  overflow="visible"/>
				</clipPath>
				<g clip-path="url(#SVGID_4_)" enable-background="new    ">
					<path fill="#D42229" d="M869.114,763.825l-22.795-12.4c0.294-0.041,0.586-0.093,0.876-0.156l22.795,12.4
						C869.7,763.731,869.408,763.783,869.114,763.825"/>
					<path fill="#CF2228" d="M869.991,763.669l-22.795-12.4c0.456-0.098,0.909-0.222,1.355-0.37l22.795,12.4
						C870.899,763.446,870.447,763.57,869.991,763.669"/>
					<path fill="#CB2127" d="M871.345,763.298l-22.795-12.4c0.324-0.107,0.644-0.228,0.962-0.36l22.795,12.4
						C871.99,763.071,871.669,763.191,871.345,763.298"/>
					<path fill="#C72027" d="M872.307,762.938l-22.795-12.4c0.268-0.112,0.535-0.232,0.798-0.361l22.795,12.4
						C872.841,762.706,872.575,762.827,872.307,762.938"/>
					<path fill="#C22026" d="M873.105,762.577l-22.795-12.4c0.242-0.118,0.482-0.244,0.718-0.376l22.795,12.4
						C873.586,762.334,873.347,762.459,873.105,762.577"/>
					<path fill="#BE1F25" d="M873.823,762.202l-22.795-12.4c0.224-0.125,0.445-0.255,0.664-0.392l22.795,12.4
						C874.268,761.946,874.047,762.077,873.823,762.202"/>
					<path fill="#BA1E24" d="M874.487,761.81l-22.795-12.4c0.205-0.127,0.407-0.26,0.607-0.397l22.795,12.4
						C874.894,761.55,874.692,761.682,874.487,761.81"/>
					<path fill="#B51D23" d="M875.094,761.413l-22.795-12.4c0.195-0.134,0.387-0.272,0.577-0.415l22.795,12.4
						C875.481,761.141,875.288,761.279,875.094,761.413"/>
					<path fill="#B11D22" d="M875.671,760.998l-22.795-12.4c0.186-0.139,0.369-0.283,0.55-0.431l22.795,12.4
						C876.04,760.715,875.857,760.859,875.671,760.998"/>
					<path fill="#AD1C22" d="M876.221,760.568l-22.795-12.4c0.177-0.145,0.352-0.293,0.525-0.445l22.795,12.4
						C876.573,760.275,876.398,760.423,876.221,760.568"/>
					<path fill="#A81B21" d="M876.746,760.122l-22.795-12.4c0.172-0.151,0.341-0.306,0.507-0.465l22.795,12.4
						C877.087,759.816,876.917,759.971,876.746,760.122"/>
					<path fill="#A41B20" d="M877.253,759.658l-22.795-12.4c0.166-0.158,0.329-0.319,0.49-0.484l22.795,12.4
						C877.582,759.338,877.419,759.5,877.253,759.658"/>
					<path fill="#A01A1F" d="M877.743,759.174l-22.795-12.4c0.161-0.165,0.32-0.334,0.475-0.506l22.795,12.4
						C878.063,758.84,877.904,759.008,877.743,759.174"/>
					<path fill="#9C191E" d="M878.218,758.668l-22.795-12.4c0.157-0.173,0.311-0.349,0.461-0.529l22.795,12.4
						C878.529,758.318,878.375,758.495,878.218,758.668"/>
					<path fill="#97191D" d="M878.68,758.139l-22.795-12.4c0.154-0.183,0.304-0.369,0.451-0.558l22.795,12.4
						C878.984,757.77,878.833,757.956,878.68,758.139"/>
					<path fill="#93181D" d="M879.131,757.581l-22.795-12.4c0.149-0.191,0.294-0.385,0.435-0.581l22.795,12.4
						C879.425,757.197,879.28,757.391,879.131,757.581"/>
					<path fill="#8F171C" d="M879.566,757l-22.795-12.4c0.148-0.205,0.292-0.414,0.431-0.625l22.795,12.4
						C879.858,756.586,879.714,756.795,879.566,757"/>
					<path fill="#8A161B" d="M879.998,756.375l-22.795-12.4c0.144-0.217,0.284-0.438,0.419-0.661l22.795,12.4
						C880.281,755.937,880.142,756.158,879.998,756.375"/>
					<path fill="#86161A" d="M880.416,755.714l-22.795-12.4c0.14-0.232,0.275-0.467,0.406-0.704l22.795,12.4
						C880.692,755.247,880.556,755.482,880.416,755.714"/>
					<path fill="#821519" d="M880.822,755.01l-22.795-12.4c0.142-0.259,0.278-0.521,0.407-0.786l22.795,12.4
						C881.1,754.489,880.964,754.751,880.822,755.01"/>
					<path fill="#7D1418" d="M881.229,754.224l-22.795-12.4c0.141-0.287,0.274-0.578,0.399-0.872l22.795,12.4
						C881.503,753.646,881.37,753.936,881.229,754.224"/>
					<path fill="#791418" d="M881.628,753.352l-22.795-12.4c0.142-0.333,0.274-0.671,0.396-1.011l22.795,12.4
						C881.902,752.681,881.77,753.018,881.628,753.352"/>
					<path fill="#751317" d="M882.024,752.34l-22.795-12.4c0.152-0.427,0.288-0.859,0.407-1.294l22.795,12.4
						C882.312,751.482,882.176,751.914,882.024,752.34"/>
					<path fill="#701216" d="M882.431,751.046l-22.795-12.4c0.367-1.35,0.567-2.738,0.569-4.127l22.795,12.4
						C882.997,748.308,882.798,749.696,882.431,751.046"/>
				</g>
			</g>
			<g>
				<polygon fill="#6C1215" points="825.874,708.16 803.079,695.76 803.482,480.285 826.278,492.685 				"/>
			</g>
			<g>
				<polygon fill="#6C1215" points="940.214,738.876 917.418,726.476 918.518,139.767 941.313,152.167 				"/>
			</g>
			<g>
				<polygon fill="#6C1215" points="883,746.919 860.205,734.518 861.304,147.809 884.099,160.209 				"/>
			</g>
			<g enable-background="new    ">
				<defs>
					<path id="SVGID_5_" enable-background="new    " d="M885.498,79.565l22.795,12.4c19.878,10.813,33.071,32.938,33.02,60.202
						l-22.795-12.4C918.569,112.504,905.376,90.379,885.498,79.565z"/>
				</defs>
				<clipPath id="SVGID_6_">
					<use xlink:href="#SVGID_5_"  overflow="visible"/>
				</clipPath>
				<g clip-path="url(#SVGID_6_)" enable-background="new    ">
					<path fill="#701216" d="M941.313,152.167l-22.795-12.4c0.051-27.263-13.142-49.389-33.02-60.202l22.795,12.4
						C928.171,102.779,941.364,124.904,941.313,152.167"/>
				</g>
			</g>
			<g enable-background="new    ">
				<defs>
					<path id="SVGID_7_" enable-background="new    " d="M854.642,136.094l22.795,12.4c3.943,2.145,6.672,6.528,6.663,11.715
						l-22.795-12.4C861.314,142.622,858.584,138.239,854.642,136.094z"/>
				</defs>
				<clipPath id="SVGID_8_">
					<use xlink:href="#SVGID_7_"  overflow="visible"/>
				</clipPath>
				<g clip-path="url(#SVGID_8_)" enable-background="new    ">
					<path fill="#701216" d="M884.099,160.209l-22.795-12.4c0.01-5.187-2.72-9.571-6.663-11.715l22.795,12.4
						C881.379,150.639,884.109,155.022,884.099,160.209"/>
				</g>
			</g>
			<g enable-background="new    ">
				<defs>
					<path id="SVGID_9_" enable-background="new    " d="M855.102,135.217l22.795,12.4c-2.254-1.226-4.88-1.765-7.625-1.379
						l-22.795-12.4C850.222,133.452,852.848,133.991,855.102,135.217z"/>
				</defs>
				<clipPath id="SVGID_10_">
					<use xlink:href="#SVGID_9_"  overflow="visible"/>
				</clipPath>
				<g clip-path="url(#SVGID_10_)" enable-background="new    ">
					<path fill="#D42229" d="M870.272,146.238l-22.795-12.4c1.166-0.164,2.31-0.161,3.414-0.01l22.795,12.4
						C872.582,146.077,871.437,146.074,870.272,146.238"/>
					<path fill="#CF2228" d="M873.685,146.228l-22.795-12.4c0.469,0.064,0.931,0.156,1.384,0.272l22.795,12.4
						C874.616,146.384,874.154,146.293,873.685,146.228"/>
					<path fill="#CB2127" d="M875.069,146.501l-22.795-12.4c0.346,0.089,0.687,0.193,1.022,0.311l22.795,12.4
						C875.756,146.694,875.415,146.59,875.069,146.501"/>
					<path fill="#C72027" d="M876.091,146.812l-22.795-12.4c0.289,0.102,0.573,0.215,0.853,0.337l22.795,12.4
						C876.664,147.027,876.379,146.914,876.091,146.812"/>
					<path fill="#C22026" d="M876.944,147.149l-22.795-12.4c0.247,0.108,0.491,0.225,0.73,0.349l22.795,12.4
						C877.434,147.374,877.191,147.258,876.944,147.149"/>
					<path fill="#BE1F25" d="M877.674,147.498l-22.795-12.4c0.075,0.039,0.149,0.078,0.223,0.118l22.795,12.4
						C877.823,147.577,877.748,147.537,877.674,147.498"/>
				</g>
			</g>
			<g enable-background="new    ">
				<defs>
					<path id="SVGID_11_" enable-background="new    " d="M885.973,78.687l22.795,12.4c-11.105-6.041-24.271-8.595-38.38-6.612
						l-22.795-12.4C861.702,70.092,874.867,72.646,885.973,78.687z"/>
				</defs>
				<clipPath id="SVGID_12_">
					<use xlink:href="#SVGID_11_"  overflow="visible"/>
				</clipPath>
				<g clip-path="url(#SVGID_12_)" enable-background="new    ">
					<path fill="#D42229" d="M870.387,84.475l-22.795-12.4c6.158-0.866,12.136-0.867,17.842-0.091l22.795,12.4
						C882.524,83.608,876.545,83.609,870.387,84.475"/>
					<path fill="#CF2228" d="M888.229,84.384l-22.795-12.4c2.358,0.321,4.67,0.774,6.928,1.354l22.795,12.4
						C892.899,85.158,890.587,84.704,888.229,84.384"/>
					<path fill="#CB2127" d="M895.157,85.738l-22.795-12.4c1.693,0.435,3.355,0.94,4.985,1.514l22.795,12.4
						C898.512,86.678,896.85,86.172,895.157,85.738"/>
					<path fill="#C72027" d="M900.143,87.252l-22.795-12.4c1.387,0.488,2.75,1.026,4.088,1.612l22.795,12.4
						C902.892,88.278,901.529,87.74,900.143,87.252"/>
					<path fill="#C22026" d="M904.23,88.864l-22.795-12.4c1.189,0.521,2.359,1.08,3.507,1.675l22.795,12.4
						C906.589,89.944,905.42,89.385,904.23,88.864"/>
					<path fill="#BE1F25" d="M907.737,90.539l-22.795-12.4c0.345,0.179,0.689,0.362,1.031,0.548l22.795,12.4
						C908.426,90.901,908.083,90.719,907.737,90.539"/>
				</g>
			</g>
			<g>
				<polygon fill="#6D1215" points="826.278,492.685 803.482,480.285 618.359,306.12 641.154,318.52 				"/>
			</g>
			<g>
				<polygon fill="#98191E" points="411.843,596.362 389.048,583.962 618.362,304.76 641.157,317.16 				"/>
			</g>
			<g>
				<polygon fill="#D42229" points="153.825,926.114 131.03,913.714 846.204,813.188 868.999,825.588 				"/>
			</g>
			<g>
				<polygon fill="#D42229" points="197.417,796.497 174.622,784.097 803.079,695.76 825.874,708.16 				"/>
			</g>
			<g>
				<polygon fill="#6D1215" points="411.841,597.718 389.046,585.318 317.666,518.179 340.461,530.579 				"/>
			</g>
			<g>
				<polygon fill="#D42229" points="153.941,864.351 131.146,851.951 846.319,751.424 869.114,763.825 				"/>
			</g>
			<g enable-background="new    ">
				<defs>
					<path id="SVGID_13_" enable-background="new    " d="M146.782,863.055l-22.795-12.4c2.117,1.152,4.583,1.658,7.159,1.296
						l22.795,12.4C151.364,864.713,148.899,864.206,146.782,863.055z"/>
				</defs>
				<clipPath id="SVGID_14_">
					<use xlink:href="#SVGID_13_"  overflow="visible"/>
				</clipPath>
				<g clip-path="url(#SVGID_14_)" enable-background="new    ">
					<path fill="#BE1F25" d="M146.782,863.055l-22.795-12.4c0.07,0.038,0.139,0.075,0.21,0.111l22.795,12.4
						C146.921,863.13,146.851,863.093,146.782,863.055"/>
					<path fill="#C22026" d="M146.991,863.166l-22.795-12.4c0.225,0.117,0.454,0.226,0.686,0.328l22.795,12.4
						C147.445,863.392,147.216,863.283,146.991,863.166"/>
					<path fill="#C72027" d="M147.678,863.494l-22.795-12.4c0.263,0.115,0.53,0.221,0.802,0.317l22.795,12.4
						C148.208,863.715,147.94,863.609,147.678,863.494"/>
					<path fill="#CB2127" d="M148.479,863.811l-22.795-12.4c0.315,0.111,0.635,0.209,0.96,0.293l22.795,12.4
						C149.114,864.02,148.794,863.922,148.479,863.811"/>
					<path fill="#CF2228" d="M149.439,864.104l-22.795-12.4c0.426,0.11,0.86,0.195,1.301,0.256l22.795,12.4
						C150.299,864.299,149.865,864.213,149.439,864.104"/>
					<path fill="#D42229" d="M150.74,864.36l-22.795-12.4c1.035,0.142,2.108,0.145,3.201-0.009l22.795,12.4
						C152.848,864.504,151.775,864.502,150.74,864.36"/>
				</g>
			</g>
			<g enable-background="new    ">
				<defs>
					<path id="SVGID_15_" enable-background="new    " d="M115.925,919.583l-22.795-12.4c10.967,5.966,23.968,8.489,37.9,6.531
						l22.795,12.4C139.894,928.072,126.893,925.549,115.925,919.583z"/>
				</defs>
				<clipPath id="SVGID_16_">
					<use xlink:href="#SVGID_15_"  overflow="visible"/>
				</clipPath>
				<g clip-path="url(#SVGID_16_)" enable-background="new    ">
					<path fill="#BE1F25" d="M115.925,919.583l-22.795-12.4c0.337,0.184,0.677,0.364,1.018,0.541l22.795,12.4
						C116.602,919.947,116.263,919.767,115.925,919.583"/>
					<path fill="#C22026" d="M116.943,920.124l-22.795-12.4c1.134,0.588,2.289,1.14,3.463,1.655l22.795,12.4
						C119.232,921.264,118.077,920.712,116.943,920.124"/>
					<path fill="#C72027" d="M120.407,921.779l-22.795-12.4c1.321,0.579,2.668,1.11,4.037,1.592l22.795,12.4
						C123.075,922.889,121.728,922.357,120.407,921.779"/>
					<path fill="#CB2127" d="M124.444,923.371l-22.795-12.4c1.61,0.567,3.252,1.066,4.924,1.496l22.795,12.4
						C127.697,924.438,126.054,923.938,124.444,923.371"/>
					<path fill="#CF2228" d="M129.368,924.867l-22.795-12.4c2.23,0.573,4.513,1.02,6.841,1.337l22.795,12.4
						C133.881,925.887,131.598,925.439,129.368,924.867"/>
					<path fill="#D42229" d="M136.209,926.203l-22.795-12.4c5.634,0.766,11.536,0.765,17.616-0.09l22.795,12.4
						C147.746,926.968,141.843,926.969,136.209,926.203"/>
				</g>
			</g>
			<g enable-background="new    ">
				<defs>
					<path id="SVGID_17_" enable-background="new    " d="M146.318,863.933l-22.795-12.4c-4.198-2.284-7.107-6.952-7.096-12.467
						l22.795,12.4C139.211,856.981,142.12,861.649,146.318,863.933z"/>
				</defs>
				<clipPath id="SVGID_18_">
					<use xlink:href="#SVGID_17_"  overflow="visible"/>
				</clipPath>
				<g clip-path="url(#SVGID_18_)" enable-background="new    ">
					<path fill="#701216" d="M146.318,863.933l-22.795-12.4c-4.198-2.284-7.107-6.952-7.096-12.467l22.795,12.4
						C139.211,856.981,142.12,861.649,146.318,863.933"/>
				</g>
			</g>
			<g>
				<polygon fill="#6C1215" points="196.526,797.583 173.731,785.183 173.905,691.86 196.7,704.26 				"/>
			</g>
			<g>
				<path fill="#D52229" d="M411.843,596.362L641.157,317.16l186.016,175l-0.406,216.835l-630.241,88.588l0.175-93.323
					l143.763-175.037L411.843,596.362z M825.874,708.16l0.404-215.475L641.154,318.52L411.841,597.718l-71.38-67.139L197.59,704.535
					l-0.172,91.962L825.874,708.16"/>
			</g>
			<g>
				<polygon fill="#98191E" points="196.7,704.26 173.905,691.86 317.669,516.823 340.464,529.223 				"/>
			</g>
			<g enable-background="new    ">
				<defs>
					<path id="SVGID_19_" enable-background="new    " d="M115.444,920.458l-22.795-12.4c-20.127-10.949-33.488-33.351-33.436-60.95
						l22.795,12.4C81.956,887.107,95.317,909.509,115.444,920.458z"/>
				</defs>
				<clipPath id="SVGID_20_">
					<use xlink:href="#SVGID_19_"  overflow="visible"/>
				</clipPath>
				<g clip-path="url(#SVGID_20_)" enable-background="new    ">
					<path fill="#701216" d="M115.444,920.458l-22.795-12.4c-20.127-10.949-33.488-33.351-33.436-60.95l22.795,12.4
						C81.956,887.107,95.317,909.509,115.444,920.458"/>
				</g>
			</g>
			<g enable-background="new    ">
				<defs>
					<path id="SVGID_21_" enable-background="new    " d="M237.84,467.861l-22.795-12.4c13.173,7.166,28.79,10.196,45.526,7.844
						c47.083-6.618,85.455-53.351,85.55-104.165c0.061-32.744-15.786-59.317-39.662-72.305l22.795,12.4
						c23.877,12.988,39.724,39.562,39.662,72.305c-0.095,50.814-38.468,97.547-85.55,104.165
						C266.629,478.057,251.013,475.027,237.84,467.861z"/>
				</defs>
				<clipPath id="SVGID_22_">
					<use xlink:href="#SVGID_21_"  overflow="visible"/>
				</clipPath>
				<g clip-path="url(#SVGID_22_)" enable-background="new    ">
					<path fill="#BE1F25" d="M237.84,467.861l-22.795-12.4c0.405,0.221,0.813,0.437,1.223,0.65l22.795,12.4
						C238.653,468.298,238.245,468.081,237.84,467.861"/>
					<path fill="#C22026" d="M239.063,468.51l-22.795-12.4c1.362,0.706,2.749,1.369,4.16,1.987l22.795,12.4
						C241.811,469.88,240.424,469.217,239.063,468.51"/>
					<path fill="#C72027" d="M243.222,470.497l-22.795-12.4c1.587,0.695,3.204,1.333,4.849,1.913l22.795,12.4
						C246.426,471.831,244.809,471.192,243.222,470.497"/>
					<path fill="#CB2127" d="M248.071,472.41l-22.795-12.4c1.934,0.681,3.906,1.281,5.914,1.796l22.795,12.4
						C251.978,473.691,250.005,473.091,248.071,472.41"/>
					<path fill="#CF2228" d="M253.986,474.207l-22.795-12.4c2.679,0.688,5.42,1.225,8.217,1.606l22.795,12.4
						C259.406,475.432,256.664,474.894,253.986,474.207"/>
					<path fill="#D42229" d="M262.203,475.812l-22.795-12.4c6.768,0.92,13.859,0.919,21.163-0.108
						c2.045-0.287,4.073-0.65,6.082-1.086l22.795,12.4c-2.009,0.436-4.038,0.799-6.082,1.086
						C276.061,476.731,268.97,476.732,262.203,475.812"/>
					<path fill="#CF2228" d="M289.447,474.618l-22.795-12.4c2.975-0.645,5.909-1.45,8.794-2.404l22.795,12.4
						C295.357,473.168,292.423,473.973,289.447,474.618"/>
					<path fill="#CB2127" d="M298.241,472.214l-22.795-12.4c2.117-0.701,4.208-1.482,6.27-2.34l22.795,12.4
						C302.45,470.732,300.359,471.513,298.241,472.214"/>
					<path fill="#C72027" d="M304.511,469.874l-22.795-12.4c1.727-0.719,3.434-1.492,5.118-2.317l22.795,12.4
						C307.945,468.381,306.238,469.155,304.511,469.874"/>
					<path fill="#C22026" d="M309.629,467.556l-22.795-12.4c1.493-0.731,2.968-1.504,4.425-2.315l22.795,12.4
						C312.597,466.053,311.122,466.825,309.629,467.556"/>
					<path fill="#BE1F25" d="M314.053,465.242l-22.795-12.4c1.371-0.764,2.726-1.563,4.062-2.395l22.795,12.4
						C316.779,463.679,315.425,464.478,314.053,465.242"/>
					<path fill="#BA1E24" d="M318.115,462.847l-22.795-12.4c1.258-0.783,2.5-1.596,3.725-2.437l22.795,12.4
						C320.615,461.251,319.373,462.064,318.115,462.847"/>
					<path fill="#B51D23" d="M321.84,460.41l-22.795-12.4c1.163-0.798,2.31-1.623,3.442-2.471l22.795,12.4
						C324.15,458.787,323.003,459.611,321.84,460.41"/>
					<path fill="#B11D22" d="M325.282,457.938l-22.795-12.4c1.113-0.835,2.21-1.694,3.292-2.575l22.795,12.4
						C327.492,456.245,326.394,457.103,325.282,457.938"/>
					<path fill="#AD1C22" d="M328.573,455.363l-22.795-12.4c1.044-0.852,2.074-1.725,3.087-2.619l22.795,12.4
						C330.647,453.638,329.618,454.511,328.573,455.363"/>
					<path fill="#A81B21" d="M331.661,452.744l-22.795-12.4c1.01-0.89,2.004-1.801,2.982-2.732l22.795,12.4
						C333.664,450.943,332.67,451.854,331.661,452.744"/>
					<path fill="#A41B20" d="M334.642,450.012l-22.795-12.4c0.969-0.922,1.921-1.863,2.858-2.823l22.795,12.4
						C336.564,448.149,335.611,449.091,334.642,450.012"/>
					<path fill="#A01A1F" d="M337.5,447.189l-22.795-12.4c0.94-0.964,1.864-1.946,2.77-2.947l22.795,12.4
						C339.364,445.243,338.44,446.226,337.5,447.189"/>
					<path fill="#9C191E" d="M340.27,444.242l-22.795-12.4c0.91-1.005,1.803-2.028,2.678-3.069l22.795,12.4
						C342.073,442.214,341.18,443.237,340.27,444.242"/>
					<path fill="#97191D" d="M342.948,441.174l-22.795-12.4c0.893-1.062,1.767-2.142,2.621-3.24l22.795,12.4
						C344.715,439.031,343.84,440.111,342.948,441.174"/>
					<path fill="#93181D" d="M345.569,437.934l-22.795-12.4c0.862-1.108,1.705-2.233,2.527-3.375l22.795,12.4
						C347.274,435.701,346.432,436.826,345.569,437.934"/>
					<path fill="#8F171C" d="M348.096,434.559l-22.795-12.4c0.863-1.198,1.702-2.415,2.519-3.649l22.795,12.4
						C349.799,432.143,348.959,433.36,348.096,434.559"/>
					<path fill="#8A161B" d="M350.615,430.909l-22.795-12.4c0.838-1.267,1.651-2.552,2.439-3.854l22.795,12.4
						C352.266,428.357,351.453,429.642,350.615,430.909"/>
					<path fill="#86161A" d="M353.054,427.055l-22.795-12.4c0.832-1.376,1.635-2.771,2.409-4.184l22.795,12.4
						C354.689,424.284,353.886,425.679,353.054,427.055"/>
					<path fill="#821519" d="M355.463,422.871l-22.795-12.4c0.841-1.535,1.647-3.092,2.417-4.668l22.795,12.4
						C357.11,419.779,356.304,421.336,355.463,422.871"/>
					<path fill="#7D1418" d="M357.88,418.203l-22.795-12.4c0.838-1.717,1.634-3.457,2.385-5.218l22.795,12.4
						C359.514,414.746,358.718,416.486,357.88,418.203"/>
					<path fill="#791418" d="M360.265,412.985l-22.795-12.4c0.86-2.018,1.662-4.063,2.402-6.134l22.795,12.4
						C361.926,408.921,361.125,410.967,360.265,412.985"/>
					<path fill="#751317" d="M362.667,406.851l-22.795-12.4c0.951-2.658,1.801-5.358,2.545-8.092l22.795,12.4
						C364.467,401.493,363.617,404.192,362.667,406.851"/>
					<path fill="#701216" d="M365.211,398.759l-22.795-12.4c2.392-8.791,3.687-17.937,3.704-27.22
						c0.061-32.744-15.786-59.317-39.662-72.305l22.795,12.4c23.877,12.988,39.724,39.562,39.662,72.305
						C368.898,380.822,367.603,389.968,365.211,398.759"/>
				</g>
			</g>
			<g>
				<path fill="#D52229" d="M283.363,476.66c-47.565,6.686-86.181-29.643-86.085-80.996c0.096-51.339,38.869-98.551,86.434-105.236
					c47.569-6.686,86.189,29.647,86.093,80.986C369.709,422.766,330.933,469.974,283.363,476.66z M283.711,291.389
					c-47.074,6.617-85.447,53.337-85.542,104.151c-0.095,50.814,38.122,86.782,85.197,80.165
					c47.083-6.618,85.455-53.351,85.55-104.165C369.011,320.725,330.793,284.771,283.711,291.389"/>
			</g>
			<g enable-background="new    ">
				<defs>
					<path id="SVGID_23_" enable-background="new    " d="M237.357,468.735l-22.795-12.4c-24.126-13.124-40.14-39.978-40.078-73.07
						c0.096-51.339,38.869-98.551,86.434-105.236c16.916-2.378,32.7,0.685,46.014,7.927l22.795,12.4
						c-13.314-7.242-29.098-10.305-46.014-7.927c-47.565,6.686-86.338,53.897-86.434,105.236
						C197.217,428.757,213.231,455.611,237.357,468.735z"/>
				</defs>
				<clipPath id="SVGID_24_">
					<use xlink:href="#SVGID_23_"  overflow="visible"/>
				</clipPath>
				<g clip-path="url(#SVGID_24_)" enable-background="new    ">
					<path fill="#701216" d="M237.357,468.735l-22.795-12.4c-24.126-13.124-40.14-39.978-40.078-73.07
						c0.018-9.378,1.326-18.618,3.742-27.498l22.795,12.4c-2.416,8.88-3.724,18.12-3.742,27.498
						C197.217,428.757,213.231,455.611,237.357,468.735"/>
					<path fill="#751317" d="M201.021,368.166l-22.795-12.4c0.751-2.762,1.61-5.489,2.571-8.174l22.795,12.4
						C202.631,362.678,201.772,365.405,201.021,368.166"/>
					<path fill="#791418" d="M203.591,359.992l-22.795-12.4c0.748-2.092,1.558-4.159,2.427-6.197l22.795,12.4
						C205.149,355.834,204.339,357.9,203.591,359.992"/>
					<path fill="#7D1418" d="M206.018,353.795l-22.795-12.4c0.759-1.78,1.562-3.537,2.409-5.272l22.795,12.4
						C207.58,350.258,206.776,352.016,206.018,353.795"/>
					<path fill="#821519" d="M208.427,348.523l-22.795-12.4c0.778-1.593,1.592-3.165,2.441-4.716l22.795,12.4
						C210.019,345.358,209.205,346.931,208.427,348.523"/>
					<path fill="#86161A" d="M210.868,343.807l-22.795-12.4c0.782-1.427,1.593-2.837,2.434-4.226l22.795,12.4
						C212.462,340.971,211.65,342.38,210.868,343.807"/>
					<path fill="#8A161B" d="M213.302,339.581l-22.795-12.4c0.796-1.316,1.618-2.614,2.464-3.894l22.795,12.4
						C214.92,336.967,214.098,338.265,213.302,339.581"/>
					<path fill="#8F171C" d="M215.767,335.687l-22.795-12.4c0.825-1.247,1.673-2.476,2.545-3.687l22.795,12.4
						C217.44,333.211,216.591,334.44,215.767,335.687"/>
					<path fill="#93181D" d="M218.311,332l-22.795-12.4c0.83-1.154,1.682-2.291,2.553-3.41l22.795,12.4
						C219.993,329.709,219.142,330.846,218.311,332"/>
					<path fill="#97191D" d="M220.864,328.59l-22.795-12.4c0.863-1.109,1.746-2.2,2.649-3.273l22.795,12.4
						C222.611,326.39,221.728,327.481,220.864,328.59"/>
					<path fill="#9C191E" d="M223.513,325.317l-22.795-12.4c0.884-1.051,1.786-2.085,2.705-3.101l22.795,12.4
						C225.299,323.231,224.397,324.265,223.513,325.317"/>
					<path fill="#A01A1F" d="M226.218,322.216l-22.795-12.4c0.916-1.011,1.849-2.004,2.799-2.978l22.795,12.4
						C228.067,320.212,227.134,321.205,226.218,322.216"/>
					<path fill="#A41B20" d="M229.017,319.239l-22.795-12.4c0.946-0.97,1.909-1.921,2.887-2.852l22.795,12.4
						C230.926,317.318,229.963,318.269,229.017,319.239"/>
					<path fill="#A81B21" d="M231.904,316.387l-22.795-12.4c0.988-0.94,1.993-1.861,3.013-2.76l22.795,12.4
						C233.897,314.526,232.892,315.446,231.904,316.387"/>
					<path fill="#AD1C22" d="M234.917,313.626l-22.795-12.4c1.024-0.903,2.064-1.785,3.119-2.646l22.795,12.4
						C236.981,311.841,235.941,312.723,234.917,313.626"/>
					<path fill="#B11D22" d="M238.036,310.981l-22.795-12.4c1.093-0.891,2.201-1.759,3.326-2.602l22.795,12.4
						C240.238,309.222,239.129,310.09,238.036,310.981"/>
					<path fill="#B51D23" d="M241.362,308.378l-22.795-12.4c1.143-0.858,2.303-1.69,3.477-2.497l22.795,12.4
						C243.665,306.688,242.505,307.521,241.362,308.378"/>
					<path fill="#BA1E24" d="M244.839,305.881l-22.795-12.4c1.238-0.85,2.493-1.671,3.763-2.463l22.795,12.4
						C247.332,304.21,246.077,305.031,244.839,305.881"/>
					<path fill="#BE1F25" d="M248.603,303.419l-22.795-12.4c1.35-0.841,2.719-1.648,4.104-2.42l22.795,12.4
						C251.321,301.771,249.953,302.578,248.603,303.419"/>
					<path fill="#C22026" d="M252.707,300.999l-22.795-12.4c1.471-0.82,2.962-1.6,4.47-2.339l22.795,12.4
						C255.668,299.399,254.178,300.18,252.707,300.999"/>
					<path fill="#C72027" d="M257.177,298.66l-22.795-12.4c1.701-0.834,3.426-1.615,5.171-2.341l22.795,12.4
						C260.603,297.046,258.878,297.827,257.177,298.66"/>
					<path fill="#CB2127" d="M262.348,296.319l-22.795-12.4c2.083-0.867,4.195-1.656,6.335-2.364l22.795,12.4
						C266.543,294.663,264.431,295.452,262.348,296.319"/>
					<path fill="#CF2228" d="M268.683,293.955l-22.795-12.4c2.915-0.964,5.879-1.777,8.885-2.429l22.795,12.4
						C274.561,292.178,271.597,292.99,268.683,293.955"/>
					<path fill="#D42229" d="M277.567,291.526l-22.795-12.4c2.03-0.44,4.079-0.807,6.145-1.097c7.383-1.038,14.55-1.039,21.39-0.109
						l22.795,12.4c-6.84-0.93-14.007-0.928-21.39,0.109C281.647,290.719,279.598,291.085,277.567,291.526"/>
					<path fill="#CF2228" d="M305.103,290.319l-22.795-12.4c2.827,0.384,5.598,0.928,8.306,1.623l22.795,12.4
						C310.701,291.247,307.93,290.703,305.103,290.319"/>
					<path fill="#CB2127" d="M313.408,291.942l-22.795-12.4c2.029,0.521,4.023,1.127,5.977,1.816l22.795,12.4
						C317.431,293.069,315.438,292.463,313.408,291.942"/>
					<path fill="#C72027" d="M319.386,293.758l-22.795-12.4c1.663,0.586,3.297,1.23,4.901,1.933l22.795,12.4
						C322.682,294.988,321.048,294.343,319.386,293.758"/>
					<path fill="#C22026" d="M324.286,295.69l-22.795-12.4c1.426,0.624,2.828,1.294,4.204,2.008l22.795,12.4
						C327.114,296.985,325.712,296.315,324.286,295.69"/>
					<path fill="#BE1F25" d="M328.491,297.699l-22.795-12.4c0.414,0.215,0.826,0.434,1.235,0.656l22.795,12.4
						C329.317,298.133,328.905,297.914,328.491,297.699"/>
				</g>
			</g>
			<g>
				<polygon fill="#D42229" points="155.098,246.764 132.303,234.364 847.477,133.838 870.272,146.238 				"/>
			</g>
			<g>
				<polygon fill="#6C1215" points="139.222,851.465 116.427,839.065 117.526,252.356 140.321,264.756 				"/>
			</g>
			<g enable-background="new    ">
				<defs>
					<path id="SVGID_25_" enable-background="new    " d="M140.321,264.756l-22.795-12.4c0.016-8.485,6.921-16.888,14.777-17.992
						l22.795,12.4C147.242,247.868,140.337,256.271,140.321,264.756z"/>
				</defs>
				<clipPath id="SVGID_26_">
					<use xlink:href="#SVGID_25_"  overflow="visible"/>
				</clipPath>
				<g clip-path="url(#SVGID_26_)" enable-background="new    ">
					<path fill="#701216" d="M140.321,264.756l-22.795-12.4c0.003-1.48,0.215-2.958,0.606-4.395l22.795,12.4
						C140.536,261.798,140.324,263.276,140.321,264.756"/>
					<path fill="#751317" d="M140.927,260.36l-22.795-12.4c0.126-0.464,0.271-0.923,0.433-1.377l22.795,12.4
						C141.198,259.437,141.053,259.897,140.927,260.36"/>
					<path fill="#791418" d="M141.36,258.983l-22.795-12.4c0.129-0.362,0.27-0.721,0.421-1.076l22.795,12.4
						C141.63,258.262,141.489,258.621,141.36,258.983"/>
					<path fill="#7D1418" d="M141.781,257.907l-22.795-12.4c0.133-0.313,0.275-0.622,0.424-0.928l22.795,12.4
						C142.056,257.285,141.914,257.595,141.781,257.907"/>
					<path fill="#821519" d="M142.205,256.979l-22.795-12.4c0.138-0.282,0.282-0.561,0.433-0.836l22.795,12.4
						C142.488,256.419,142.343,256.698,142.205,256.979"/>
					<path fill="#86161A" d="M142.638,256.144l-22.795-12.4c0.138-0.253,0.282-0.502,0.431-0.749l22.795,12.4
						C142.921,255.641,142.777,255.891,142.638,256.144"/>
					<path fill="#8A161B" d="M143.07,255.395l-22.795-12.4c0.144-0.238,0.292-0.472,0.445-0.703l22.795,12.4
						C143.362,254.923,143.213,255.157,143.07,255.395"/>
					<path fill="#8F171C" d="M143.515,254.691l-22.795-12.4c0.149-0.225,0.302-0.446,0.459-0.665l22.795,12.4
						C143.817,254.245,143.664,254.467,143.515,254.691"/>
					<path fill="#93181D" d="M143.974,254.027l-22.795-12.4c0.151-0.209,0.305-0.415,0.463-0.618l22.795,12.4
						C144.279,253.611,144.124,253.818,143.974,254.027"/>
					<path fill="#97191D" d="M144.437,253.409l-22.795-12.4c0.156-0.201,0.317-0.399,0.48-0.593l22.795,12.4
						C144.753,253.01,144.593,253.208,144.437,253.409"/>
					<path fill="#9C191E" d="M144.917,252.815l-22.795-12.4c0.16-0.191,0.324-0.378,0.491-0.562l22.795,12.4
						C145.241,252.437,145.077,252.624,144.917,252.815"/>
					<path fill="#A01A1F" d="M145.408,252.253l-22.795-12.4c0.166-0.183,0.334-0.362,0.506-0.538l22.795,12.4
						C145.742,251.89,145.573,252.07,145.408,252.253"/>
					<path fill="#A41B20" d="M145.914,251.714l-22.795-12.4c0.171-0.175,0.345-0.347,0.521-0.515l22.795,12.4
						C146.258,251.368,146.084,251.539,145.914,251.714"/>
					<path fill="#A81B21" d="M146.435,251.2l-22.795-12.4c0.177-0.169,0.357-0.334,0.54-0.495l22.795,12.4
						C146.792,250.866,146.612,251.031,146.435,251.2"/>
					<path fill="#AD1C22" d="M146.975,250.705l-22.795-12.4c0.183-0.162,0.37-0.32,0.558-0.474l22.795,12.4
						C147.344,250.385,147.158,250.543,146.975,250.705"/>
					<path fill="#B11D22" d="M147.533,250.231l-22.795-12.4c0.193-0.157,0.388-0.31,0.586-0.458l22.795,12.4
						C147.921,249.921,147.725,250.074,147.533,250.231"/>
					<path fill="#B51D23" d="M148.118,249.773l-22.795-12.4c0.202-0.152,0.407-0.299,0.614-0.441l22.795,12.4
						C148.526,249.474,148.321,249.621,148.118,249.773"/>
					<path fill="#BA1E24" d="M148.733,249.332l-22.795-12.4c0.213-0.146,0.428-0.287,0.646-0.423l22.795,12.4
						C149.161,249.045,148.946,249.186,148.733,249.332"/>
					<path fill="#BE1F25" d="M149.379,248.909l-22.795-12.4c0.233-0.145,0.469-0.284,0.707-0.417l22.795,12.4
						C149.847,248.625,149.612,248.764,149.379,248.909"/>
					<path fill="#C22026" d="M150.086,248.492l-22.795-12.4c0.252-0.141,0.507-0.274,0.765-0.4l22.795,12.4
						C150.593,248.218,150.338,248.351,150.086,248.492"/>
					<path fill="#C72027" d="M150.85,248.092l-22.795-12.4c0.28-0.137,0.563-0.265,0.849-0.384l22.795,12.4
						C151.414,247.827,151.13,247.955,150.85,248.092"/>
					<path fill="#CB2127" d="M151.699,247.707l-22.795-12.4c0.338-0.141,0.679-0.269,1.024-0.383l22.795,12.4
						C152.379,247.439,152.037,247.567,151.699,247.707"/>
					<path fill="#CF2228" d="M152.724,247.324l-22.795-12.4c0.475-0.158,0.956-0.29,1.442-0.394l22.795,12.4
						C153.68,247.035,153.199,247.167,152.724,247.324"/>
					<path fill="#D42229" d="M154.165,246.93l-22.795-12.4c0.309-0.067,0.62-0.122,0.933-0.166l22.795,12.4
						C154.786,246.808,154.475,246.864,154.165,246.93"/>
				</g>
			</g>
			<g>
				<path fill="#D52229" d="M870.272,146.238c7.856-1.104,14.733,5.361,14.718,13.846l-1.099,586.709
					c-0.016,8.476-6.921,16.888-14.777,17.992L153.939,865.311c-7.856,1.104-14.733-5.37-14.718-13.846l1.099-586.709
					c0.016-8.485,6.921-16.888,14.777-17.992L870.272,146.238z M883,746.919l1.099-586.709c0.015-7.973-6.443-14.049-13.829-13.01
					L155.096,247.725c-7.378,1.037-13.87,8.933-13.885,16.906l-1.099,586.709c-0.015,7.964,6.452,14.047,13.829,13.01
					l715.173-100.526C876.501,762.786,882.985,754.882,883,746.919"/>
			</g>
			<g>
				<polygon fill="#D42229" points="155.214,185.001 132.419,172.601 847.592,72.075 870.387,84.475 				"/>
			</g>
			<g>
				<polygon fill="#6C1215" points="82.008,859.507 59.213,847.107 60.312,260.398 83.107,272.798 				"/>
			</g>
			<g>
				<path fill="#D52229" d="M870.387,84.475c39.68-5.577,71.896,24.731,71.815,67.567l-1.099,586.709
					c-0.08,42.827-32.427,82.215-72.107,87.793L153.824,927.07c-39.68,5.578-71.896-24.735-71.816-67.562l1.099-586.709
					c0.08-42.836,32.427-82.22,72.107-87.797L870.387,84.475z M940.214,738.876l1.099-586.709
					c0.079-42.307-31.734-72.241-70.927-66.731L155.212,185.962c-39.185,5.508-71.136,44.404-71.215,86.711l-1.099,586.709
					c-0.079,42.298,31.742,72.239,70.927,66.731l715.173-100.526C908.192,820.079,940.134,781.174,940.214,738.876"/>
			</g>
			<g enable-background="new    ">
				<defs>
					<path id="SVGID_27_" enable-background="new    " d="M83.107,272.798l-22.795-12.4c0.08-42.836,32.427-82.22,72.107-87.797
						l22.795,12.4C115.534,190.578,83.188,229.962,83.107,272.798z"/>
				</defs>
				<clipPath id="SVGID_28_">
					<use xlink:href="#SVGID_27_"  overflow="visible"/>
				</clipPath>
				<g clip-path="url(#SVGID_28_)" enable-background="new    ">
					<path fill="#701216" d="M83.107,272.798l-22.795-12.4c0.015-7.825,1.106-15.535,3.122-22.945l22.795,12.4
						C84.213,257.263,83.122,264.973,83.107,272.798"/>
					<path fill="#751317" d="M86.23,249.853l-22.795-12.4c0.627-2.304,1.343-4.579,2.145-6.82l22.795,12.4
						C87.573,245.274,86.857,247.549,86.23,249.853"/>
					<path fill="#791418" d="M88.374,243.033l-22.795-12.4c0.624-1.745,1.3-3.469,2.025-5.17l22.795,12.4
						C89.674,239.564,88.998,241.288,88.374,243.033"/>
					<path fill="#7D1418" d="M90.399,237.863l-22.795-12.4c0.633-1.485,1.303-2.951,2.01-4.398l22.795,12.4
						C91.702,234.912,91.032,236.379,90.399,237.863"/>
					<path fill="#821519" d="M92.409,233.465l-22.795-12.4c0.649-1.329,1.328-2.64,2.037-3.934l22.795,12.4
						C93.737,230.825,93.057,232.137,92.409,233.465"/>
					<path fill="#86161A" d="M94.445,229.531l-22.795-12.4c0.652-1.191,1.329-2.366,2.03-3.526l22.795,12.4
						C95.775,227.164,95.098,228.34,94.445,229.531"/>
					<path fill="#8A161B" d="M96.476,226.005l-22.795-12.4c0.664-1.098,1.349-2.181,2.056-3.249l22.795,12.4
						C97.825,223.824,97.14,224.907,96.476,226.005"/>
					<path fill="#8F171C" d="M98.532,222.757l-22.795-12.4c0.688-1.04,1.396-2.066,2.123-3.076l22.795,12.4
						C99.928,220.691,99.22,221.716,98.532,222.757"/>
					<path fill="#93181D" d="M100.655,219.681l-22.795-12.4c0.693-0.963,1.403-1.911,2.13-2.844l22.795,12.4
						C102.057,217.77,101.347,218.718,100.655,219.681"/>
					<path fill="#97191D" d="M102.784,216.836l-22.795-12.4c0.72-0.925,1.457-1.836,2.209-2.731l22.795,12.4
						C104.241,215.001,103.505,215.911,102.784,216.836"/>
					<path fill="#9C191E" d="M104.994,214.106l-22.795-12.4c0.737-0.877,1.49-1.739,2.257-2.587l22.795,12.4
						C106.483,212.366,105.731,213.229,104.994,214.106"/>
					<path fill="#A01A1F" d="M107.251,211.519l-22.795-12.4c0.764-0.843,1.542-1.672,2.335-2.484l22.795,12.4
						C108.793,209.848,108.014,210.676,107.251,211.519"/>
					<path fill="#A41B20" d="M109.585,209.035l-22.795-12.4c0.789-0.809,1.592-1.602,2.409-2.379l22.795,12.4
						C111.177,207.433,110.374,208.226,109.585,209.035"/>
					<path fill="#A81B21" d="M111.994,206.656l-22.795-12.4c0.824-0.784,1.662-1.552,2.513-2.303l22.795,12.4
						C113.656,205.104,112.818,205.872,111.994,206.656"/>
					<path fill="#AD1C22" d="M114.507,204.354l-22.795-12.4c0.854-0.753,1.722-1.489,2.602-2.207l22.795,12.4
						C116.229,202.864,115.361,203.6,114.507,204.354"/>
					<path fill="#B11D22" d="M117.109,202.146l-22.795-12.4c0.911-0.743,1.836-1.467,2.774-2.171l22.795,12.4
						C118.945,200.679,118.02,201.403,117.109,202.146"/>
					<path fill="#B51D23" d="M119.883,199.976l-22.795-12.4c0.954-0.715,1.921-1.41,2.901-2.083l22.795,12.4
						C121.804,198.566,120.837,199.26,119.883,199.976"/>
					<path fill="#BA1E24" d="M122.784,197.893l-22.795-12.4c1.033-0.709,2.079-1.394,3.139-2.054l22.795,12.4
						C124.864,196.498,123.817,197.184,122.784,197.893"/>
					<path fill="#BE1F25" d="M125.924,195.838l-22.795-12.4c1.126-0.701,2.268-1.375,3.424-2.018l22.795,12.4
						C128.192,194.464,127.05,195.137,125.924,195.838"/>
					<path fill="#C22026" d="M129.347,193.82l-22.795-12.4c1.227-0.684,2.471-1.335,3.729-1.951l22.795,12.4
						C131.818,192.485,130.575,193.136,129.347,193.82"/>
					<path fill="#C72027" d="M133.077,191.869l-22.795-12.4c1.419-0.695,2.858-1.347,4.314-1.953l22.795,12.4
						C135.935,190.522,134.496,191.173,133.077,191.869"/>
					<path fill="#CB2127" d="M137.391,189.915l-22.795-12.4c1.737-0.723,3.5-1.382,5.285-1.972l22.795,12.4
						C140.891,188.533,139.128,189.192,137.391,189.915"/>
					<path fill="#CF2228" d="M142.675,187.943l-22.795-12.4c2.431-0.804,4.904-1.483,7.412-2.026l22.795,12.4
						C147.58,186.46,145.107,187.139,142.675,187.943"/>
					<path fill="#D42229" d="M150.087,185.917l-22.795-12.4c1.694-0.367,3.403-0.673,5.127-0.916l22.795,12.4
						C153.491,185.243,151.781,185.549,150.087,185.917"/>
				</g>
			</g>
		</g>
	</g>
</g>
</svg>
