<?xml version="1.0" encoding="utf-8"?>
<!-- Generator: Adobe Illustrator 17.0.0, SVG Export Plug-In . SVG Version: 6.00 Build 0)  -->
<!DOCTYPE svg PUBLIC "-//W3C//DTD SVG 1.1//EN" "http://www.w3.org/Graphics/SVG/1.1/DTD/svg11.dtd">
<svg version="1.1" xmlns="http://www.w3.org/2000/svg" xmlns:xlink="http://www.w3.org/1999/xlink" x="0px" y="0px" width="960px"
	 height="960px" viewBox="0 0 960 960" enable-background="new 0 0 960 960" xml:space="preserve">
<g id="Layer_1">
	<g>
		<path d="M344.199,291.837v-22.8c0-51.6-42-93.6-93.6-93.6c-51.6,0-93.6,42-93.6,93.6c0,0,0,16.8,0,30c0,1.2,0,1.2,0,1.2v14.4
			c0,4.8,2.4,10.8,4.8,14.4L349,579.836c4.8,6,7.2,15.6,7.2,22.8v13.2L356,647.333c0,28.8-10.601,56.102-29.8,76.502
			c-20.4,20.4-46.8,31.2-75.6,31.2c-58.8,0-106.8-48-106.8-106.8v-22.8c0-2.4,2.4-4.8,6-4.8h2.4c2.4,0,4.8,2.399,4.8,4.8v22.8
			c0,51.6,42,93.6,93.6,93.6c51.6,0,93.6-42,93.6-93.6v-31.2v1.2c0-1.2,0-1.2,0-2.399v-13.2c0-4.8-2.4-10.8-4.8-14.4L152.2,337.437
			c-4.8-6-7.2-15.6-7.2-22.8l-1.2-14.4v-31.2c0-28.8,12-55.2,31.2-75.6c20.4-20.4,46.8-31.2,75.6-31.2
			c58.8,0,106.8,48,106.8,106.799v22.8c0,2.4-2.4,4.8-6,4.8H349C346.6,296.637,344.199,294.237,344.199,291.837z"/>
		<path d="M506.2,458.636c40.8,14.4,70.8,52.799,70.8,99.599v192c0,2.399-2.4,4.8-6,4.8h-2.4c-2.399,0-4.8-2.4-4.8-4.8v-192
			c0-51.6-42-93.599-93.6-93.599h-93.6v285.599c0,2.399-2.4,4.8-4.8,4.8h-2.4c-3.6,0-6-2.4-6-4.8V169.437c0-3.6,3.6-7.2,7.2-7.2
			h99.6c58.8,0,106.8,48,106.8,106.799v88.8C577,404.636,547,443.037,506.2,458.636z M563.8,357.836v-88.8c0-51.6-42-93.6-93.6-93.6
			h-93.6v275.999h93.6C521.8,451.436,563.8,409.437,563.8,357.836z"/>
		<path d="M796.398,269.037v481.199c0,2.399-2.399,4.8-4.8,4.8h-3.6c-2.4,0-4.801-2.4-4.801-4.8V464.636H597.199v285.599
			c0,2.399-2.4,4.8-6,4.8h-2.4c-2.399,0-4.8-2.4-4.8-4.8V269.037c0-58.8,48-106.799,105.6-106.799
			C748.398,162.237,796.398,210.237,796.398,269.037z M783.198,451.436V269.037c0-51.6-42-93.6-93.6-93.6
			c-50.399,0-92.399,42-92.399,93.6v182.399H783.198z"/>
	</g>
</g>
<g id="Layer_2" display="none">
	<g display="inline">
		<path d="M-138.375,458.234c0-4.688,2.734-7.031,8.203-7.031h50.391c4.688,0,7.94,2.606,9.766,7.812
			c22.394,66.668,79.425,100,171.094,100c47.913,0,84.57-8.526,109.961-25.586c25.391-17.053,38.086-38.214,38.086-63.476
			c0-25.256-8.008-45.636-24.023-61.133c-16.016-15.49-41.083-28.058-75.196-37.695L9.672,331.281
			c-90.625-26.037-135.938-75.391-135.938-148.047c0-44.788,19.073-81.311,57.227-109.57c38.147-28.253,89.258-42.383,153.32-42.383
			s115.82,13.739,155.274,41.211c39.453,27.478,64.258,65.173,74.414,113.086c1.037,6.513-1.697,9.766-8.203,9.766h-50.391
			c-4.688,0-7.947-2.734-9.766-8.203c-22.4-66.663-75.654-100-159.766-100c-44.275,0-78.711,8.533-103.32,25.586
			c-24.609,17.06-36.914,38.416-36.914,64.062c0,25.653,8.008,45.898,24.023,60.742s41.339,27.344,75.977,37.5l140.234,40.234
			C275.944,340.791,321,390.137,321,463.312c0,45.312-19.6,81.97-58.789,109.96c-39.197,27.997-92.908,41.992-161.133,41.992
			c-68.231,0-122.656-13.672-163.281-41.016c-20.312-13.537-38.086-30.792-53.32-51.758
			C-130.758,501.532-138.375,480.109-138.375,458.234z"/>
		<path d="M130.522,595.343V51.203c0-5.206,2.6-7.94,7.812-8.203h224.218c65.625,0,116.662,15.106,153.125,45.312
			c36.457,30.212,54.688,72.528,54.688,126.953c0,39.062-14.002,72.791-41.992,101.172c-27.996,28.388-67.254,46.619-117.774,54.688
			c14.844,3.65,28.254,10.156,40.234,19.531c11.975,9.375,20.637,17.518,25.977,24.414c5.334,6.903,12.561,17.646,21.68,32.227
			l96.094,146.093c1.301,2.088,1.953,4.236,1.953,6.445c0,2.216-2.869,3.32-8.594,3.32h-65.625c-4.168,0-8.074-2.6-11.719-7.812
			l-96.094-148.046c-25.525-40.1-62.891-60.156-112.109-60.156h-100v208.203c0,5.213-2.606,7.812-7.812,7.812h-56.25
			C133.123,603.155,130.522,600.556,130.522,595.343z M202.397,331.281h160.156c41.145,0,74.084-10.021,98.828-30.078
			c24.739-20.05,37.11-48.761,37.11-86.133c0-37.366-12.439-66.016-37.305-85.938c-24.871-19.922-57.752-29.883-98.633-29.883
			H202.397V331.281z"/>
		<path d="M334.966,595.343l212.11-528.125c6.506-15.881,18.487-23.956,35.938-24.219h24.219c17.706,0,29.688,8.075,35.938,24.219
			l212.109,528.125c0.781,1.562,1.172,2.734,1.172,3.516c0,2.869-2.606,4.297-7.812,4.297h-57.422c-5.213,0-9.247-2.6-12.109-7.812
			l-55.859-136.328h-256.25l-55.859,136.328c-2.606,5.213-6.641,7.812-12.109,7.812h-57.422c-4.95,0-7.422-1.428-7.422-4.297
			C333.922,598.077,334.185,596.905,334.966,595.343z M487.311,403.156h216.016L595.123,135.187L487.311,403.156z"/>
	</g>
	<g display="inline">
		<path fill="#F2F2F2" d="M131,51.195v39.571c28,5.065,52,15.439,71,31.117V99h68.421c-9.037-10-19.319-18.591-30.866-26.633
			C221.137,59.543,200.036,50,176.256,43h-37.921C133.123,43,131,45.989,131,51.195z"/>
		<path fill="#F2F2F2" d="M229.921,331H202v-10.613c-5-1.805-10.418-3.516-16.116-5.13L131,299.385v66.224l18.946,5.507
			C170.844,377.021,188,384.03,202,392.131V387h97.497C284.33,364,261.138,346,229.921,331z"/>
		<path fill="#F2F2F2" d="M138.335,603h56.25c5.206,0,7.415-2.452,7.415-7.665V538.65c-18,10.285-42,16.675-71,19.163v37.522
			C131,600.548,133.123,603,138.335,603z"/>
	</g>
	<g display="inline">
		<path fill="#F2F2F2" d="M496.491,450.289c-9.119-14.581-16.346-25.319-21.68-32.223c-5.34-6.896-14.002-15.037-25.977-24.412
			c-8.431-6.598-17.574-11.767-27.423-15.528l-21.936,54.618c4.64,5.348,8.986,11.197,13.031,17.552l35.122,54.102L464.998,462
			h39.202L496.491,450.289z"/>
		<path fill="#F2F2F2" d="M494.796,195.408c1.126,7.161,1.695,14.712,1.695,22.662c0,37.372-12.371,66.083-37.11,86.133
			c-3.687,2.988-7.559,5.748-11.61,8.291l-23.59,58.736c37.67-7.988,68.447-22.197,92.33-42.623l51.222-127.312
			c-2.83-37.779-15.338-69.131-37.526-94.053L494.796,195.408z"/>
	</g>
</g>
</svg>
